LightItalic.ufo
<glyph name="exclam" format="1">
  <advance width="284"/>
  <unicode hex="0021"/>
  <outline>
    <contour>
      <point x="233" y="700" type="line"/>
      <point x="298" y="700" type="line"/>
      <point x="197" y="200" type="line"/>
      <point x="158" y="200" type="line"/>
    </contour>
    <contour>
      <point x="109" y="24" type="curve" smooth="yes"/>
      <point x="113" y="45"/>
      <point x="133" y="62"/>
      <point x="153" y="62" type="curve" smooth="yes"/>
      <point x="173" y="62"/>
      <point x="188" y="45"/>
      <point x="184" y="24" type="curve" smooth="yes"/>
      <point x="180" y="3"/>
      <point x="160" y="-13"/>
      <point x="140" y="-13" type="curve" smooth="yes"/>
      <point x="120" y="-13"/>
      <point x="105" y="3"/>
    </contour>
  </outline>
</glyph>
<glyph name="quotedbl" format="1">
  <advance width="440"/>
  <unicode hex="0022"/>
  <outline>
    <contour>
      <point x="257" y="700" type="line"/>
      <point x="319" y="700" type="line"/>
      <point x="192" y="408" type="line"/>
      <point x="156" y="408" type="line"/>
    </contour>
    <contour>
      <point x="437" y="700" type="line"/>
      <point x="499" y="700" type="line"/>
      <point x="372" y="408" type="line"/>
      <point x="336" y="408" type="line"/>
    </contour>
  </outline>
</glyph>
<glyph name="numbersign" format="1">
  <advance width="591"/>
  <unicode hex="0023"/>
  <outline>
    <contour>
      <point x="154" y="446" type="line"/>
      <point x="161" y="489" type="line"/>
      <point x="642" y="489" type="line"/>
      <point x="635" y="446" type="line"/>
      <point x="505" y="446" type="line" smooth="yes"/>
      <point x="495" y="446" type="line" smooth="yes"/>
      <point x="297" y="446" type="line" smooth="yes"/>
      <point x="287" y="446" type="line" smooth="yes"/>
    </contour>
    <contour>
      <point x="73" y="216" type="line"/>
      <point x="81" y="259" type="line"/>
      <point x="208" y="259" type="line" smooth="yes"/>
      <point x="219" y="259" type="line" smooth="yes"/>
      <point x="420" y="259" type="line" smooth="yes"/>
      <point x="435" y="259" type="line" smooth="yes"/>
      <point x="562" y="259" type="line"/>
      <point x="554" y="216" type="line"/>
    </contour>
    <contour>
      <point x="584" y="700" type="line"/>
      <point x="633" y="700" type="line"/>
      <point x="340" y="0" type="line"/>
      <point x="291" y="0" type="line"/>
      <point x="389" y="234" type="line" smooth="yes"/>
      <point x="394" y="246" type="line" smooth="yes"/>
      <point x="484" y="460" type="line" smooth="yes"/>
      <point x="488" y="472" type="line" smooth="yes"/>
    </contour>
    <contour>
      <point x="374" y="700" type="line"/>
      <point x="423" y="700" type="line"/>
      <point x="329" y="474" type="line" smooth="yes"/>
      <point x="325" y="463" type="line" smooth="yes"/>
      <point x="232" y="244" type="line" smooth="yes"/>
      <point x="228" y="233" type="line" smooth="yes"/>
      <point x="130" y="0" type="line"/>
      <point x="81" y="0" type="line"/>
    </contour>
  </outline>
</glyph>
<glyph name="dollar" format="1">
  <advance width="580"/>
  <unicode hex="0024"/>
  <outline>
    <contour>
      <point x="399" y="818" type="line"/>
      <point x="447" y="818" type="line"/>
      <point x="423" y="681" type="line"/>
      <point x="375" y="681" type="line"/>
    </contour>
    <contour>
      <point x="260" y="28" type="line"/>
      <point x="309" y="28" type="line"/>
      <point x="284" y="-112" type="line"/>
      <point x="235" y="-112" type="line"/>
    </contour>
    <contour>
      <point x="529" y="528" type="line"/>
      <point x="514" y="590"/>
      <point x="483" y="656"/>
      <point x="394" y="656" type="curve" smooth="yes"/>
      <point x="310" y="656"/>
      <point x="252" y="611"/>
      <point x="239" y="540" type="curve" smooth="yes"/>
      <point x="224" y="454"/>
      <point x="302" y="416"/>
      <point x="382" y="385" type="curve" smooth="yes"/>
      <point x="454" y="357"/>
      <point x="541" y="303"/>
      <point x="520" y="184" type="curve" smooth="yes"/>
      <point x="500" y="73"/>
      <point x="422" y="-9"/>
      <point x="283" y="-9" type="curve" smooth="yes"/>
      <point x="164" y="-9"/>
      <point x="101" y="79"/>
      <point x="82" y="187" type="curve"/>
      <point x="134" y="214" type="line"/>
      <point x="153" y="119"/>
      <point x="195" y="43"/>
      <point x="296" y="43" type="curve" smooth="yes"/>
      <point x="396" y="43"/>
      <point x="449" y="99"/>
      <point x="463" y="180" type="curve" smooth="yes"/>
      <point x="480" y="275"/>
      <point x="401" y="317"/>
      <point x="327" y="346" type="curve" smooth="yes"/>
      <point x="258" y="373"/>
      <point x="161" y="425"/>
      <point x="182" y="544" type="curve" smooth="yes"/>
      <point x="199" y="640"/>
      <point x="296" y="709"/>
      <point x="402" y="709" type="curve" smooth="yes"/>
      <point x="515" y="709"/>
      <point x="568" y="627"/>
      <point x="579" y="556" type="curve"/>
    </contour>
  </outline>
</glyph>
<glyph name="ampersand" format="1">
  <advance width="675"/>
  <unicode hex="0026"/>
  <outline>
    <contour>
      <point x="72" y="179" type="curve"/>
      <point x="127" y="182" type="line"/>
      <point x="111" y="91"/>
      <point x="175" y="38"/>
      <point x="267" y="38" type="curve" smooth="yes"/>
      <point x="412" y="38"/>
      <point x="536" y="182"/>
      <point x="658" y="316" type="curve"/>
      <point x="694" y="291" type="line"/>
      <point x="564" y="151"/>
      <point x="434" y="-10"/>
      <point x="255" y="-10" type="curve" smooth="yes"/>
      <point x="140" y="-10"/>
      <point x="51" y="60"/>
    </contour>
    <contour>
      <point x="216" y="564" type="line"/>
      <point x="231" y="650"/>
      <point x="305" y="711"/>
      <point x="405" y="711" type="curve" smooth="yes"/>
      <point x="506" y="711"/>
      <point x="548" y="638"/>
      <point x="535" y="562" type="curve"/>
      <point x="482" y="562" type="line"/>
      <point x="491" y="615"/>
      <point x="466" y="664"/>
      <point x="397" y="664" type="curve" smooth="yes"/>
      <point x="326" y="664"/>
      <point x="280" y="621"/>
      <point x="270" y="564" type="curve"/>
    </contour>
    <contour>
      <point x="278" y="401" type="line" smooth="yes"/>
      <point x="252" y="439"/>
      <point x="203" y="489"/>
      <point x="216" y="564" type="curve"/>
      <point x="270" y="564" type="line"/>
      <point x="260" y="508"/>
      <point x="294" y="470"/>
      <point x="323" y="429" type="curve" smooth="yes"/>
      <point x="621" y="0" type="line"/>
      <point x="559" y="0" type="line"/>
    </contour>
    <contour>
      <point x="535" y="562" type="line"/>
      <point x="523" y="495"/>
      <point x="460" y="438"/>
      <point x="357" y="382" type="curve" smooth="yes"/>
      <point x="276" y="338"/>
      <point x="147" y="298"/>
      <point x="127" y="182" type="curve"/>
      <point x="72" y="179" type="line"/>
      <point x="98" y="326"/>
      <point x="252" y="374"/>
      <point x="327" y="413" type="curve" smooth="yes"/>
      <point x="416" y="459"/>
      <point x="473" y="510"/>
      <point x="482" y="562" type="curve"/>
    </contour>
  </outline>
</glyph>
<glyph name="parenleft" format="1">
  <advance width="282"/>
  <unicode hex="0028"/>
  <outline>
    <contour>
      <point x="343" y="780" type="curve"/>
      <point x="390" y="780" type="line"/>
      <point x="291" y="626"/>
      <point x="229" y="460"/>
      <point x="199" y="290" type="curve" smooth="yes"/>
      <point x="169" y="120"/>
      <point x="172" y="-46"/>
      <point x="217" y="-200" type="curve"/>
      <point x="170" y="-200" type="line"/>
      <point x="116" y="-50"/>
      <point x="111" y="120"/>
      <point x="141" y="290" type="curve" smooth="yes"/>
      <point x="171" y="460"/>
      <point x="237" y="630"/>
    </contour>
  </outline>
</glyph>
<glyph name="parenright" format="1">
  <advance width="282"/>
  <unicode hex="0029"/>
  <outline>
    <contour>
      <point x="42" y="-200" type="curve"/>
      <point x="-5" y="-200" type="line"/>
      <point x="94" y="-46"/>
      <point x="155" y="120"/>
      <point x="185" y="290" type="curve" smooth="yes"/>
      <point x="215" y="460"/>
      <point x="213" y="626"/>
      <point x="168" y="780" type="curve"/>
      <point x="215" y="780" type="line"/>
      <point x="269" y="630"/>
      <point x="273" y="460"/>
      <point x="243" y="290" type="curve" smooth="yes"/>
      <point x="213" y="120"/>
      <point x="148" y="-50"/>
    </contour>
  </outline>
</glyph>
<glyph name="asterisk" format="1">
  <advance width="592"/>
  <unicode hex="002A"/>
  <outline>
    <contour>
      <point x="572" y="593" type="line"/>
      <point x="578" y="548" type="line"/>
      <point x="389" y="497" type="line"/>
      <point x="383" y="529" type="line"/>
    </contour>
    <contour>
      <point x="491" y="376" type="line"/>
      <point x="448" y="348" type="line"/>
      <point x="372" y="503" type="line"/>
      <point x="401" y="523" type="line"/>
    </contour>
    <contour>
      <point x="266" y="348" type="line"/>
      <point x="233" y="376" type="line"/>
      <point x="375" y="523" type="line"/>
      <point x="398" y="503" type="line"/>
    </contour>
    <contour>
      <point x="208" y="548" type="line"/>
      <point x="230" y="593" type="line"/>
      <point x="395" y="529" type="line"/>
      <point x="379" y="497" type="line"/>
    </contour>
    <contour>
      <point x="396" y="700" type="line"/>
      <point x="442" y="700" type="line"/>
      <point x="402" y="513" type="line"/>
      <point x="370" y="513" type="line"/>
    </contour>
  </outline>
</glyph>
<glyph name="plus" format="1">
  <advance width="589"/>
  <unicode hex="002B"/>
  <outline>
    <contour>
      <point x="105" y="229" type="line"/>
      <point x="115" y="281" type="line"/>
      <point x="570" y="281" type="line"/>
      <point x="560" y="229" type="line"/>
    </contour>
    <contour>
      <point x="352" y="492" type="line"/>
      <point x="407" y="492" type="line"/>
      <point x="323" y="18" type="line"/>
      <point x="268" y="18" type="line"/>
    </contour>
  </outline>
</glyph>
<glyph name="comma" format="1">
  <advance width="295"/>
  <unicode hex="002C"/>
  <outline>
    <contour>
      <point x="177" y="104" type="line"/>
      <point x="226" y="84" type="line"/>
      <point x="72" y="-166" type="line"/>
      <point x="37" y="-153" type="line"/>
    </contour>
  </outline>
</glyph>
<glyph name="hyphen" format="1">
  <advance width="210"/>
  <unicode hex="002D"/>
  <outline>
    <contour>
      <point x="45" y="226" type="line"/>
      <point x="53" y="275" type="line"/>
      <point x="253" y="275" type="line"/>
      <point x="245" y="226" type="line"/>
    </contour>
  </outline>
</glyph>
<glyph name="period" format="1">
  <advance width="284"/>
  <unicode hex="002E"/>
  <outline>
    <contour>
      <point x="109" y="24" type="curve" smooth="yes"/>
      <point x="113" y="45"/>
      <point x="133" y="62"/>
      <point x="153" y="62" type="curve" smooth="yes"/>
      <point x="173" y="62"/>
      <point x="187" y="45"/>
      <point x="183" y="24" type="curve" smooth="yes"/>
      <point x="179" y="3"/>
      <point x="160" y="-13"/>
      <point x="140" y="-13" type="curve" smooth="yes"/>
      <point x="120" y="-13"/>
      <point x="105" y="3"/>
    </contour>
  </outline>
</glyph>
<glyph name="zero" format="1">
  <advance width="580"/>
  <unicode hex="0030"/>
  <outline>
    <contour>
      <point x="163" y="350" type="curve" smooth="yes"/>
      <point x="132" y="177"/>
      <point x="179" y="42"/>
      <point x="297" y="42" type="curve" smooth="yes"/>
      <point x="415" y="42"/>
      <point x="510" y="177"/>
      <point x="541" y="350" type="curve" smooth="yes"/>
      <point x="572" y="523"/>
      <point x="524" y="658"/>
      <point x="406" y="658" type="curve" smooth="yes"/>
      <point x="288" y="658"/>
      <point x="194" y="523"/>
    </contour>
    <contour>
      <point x="108" y="350" type="curve" smooth="yes"/>
      <point x="144" y="555"/>
      <point x="267" y="710"/>
      <point x="415" y="710" type="curve" smooth="yes"/>
      <point x="563" y="710"/>
      <point x="632" y="555"/>
      <point x="596" y="350" type="curve" smooth="yes"/>
      <point x="560" y="145"/>
      <point x="436" y="-10"/>
      <point x="288" y="-10" type="curve" smooth="yes"/>
      <point x="140" y="-10"/>
      <point x="72" y="145"/>
    </contour>
  </outline>
</glyph>
<glyph name="one" format="1">
  <advance width="434"/>
  <unicode hex="0031"/>
  <outline>
    <contour>
      <point x="192" y="599" type="line"/>
      <point x="202" y="656" type="line"/>
      <point x="427" y="708" type="line"/>
      <point x="302" y="0" type="line"/>
      <point x="247" y="0" type="line"/>
      <point x="360" y="641" type="line"/>
    </contour>
  </outline>
</glyph>
<glyph name="two" format="1">
  <advance width="547"/>
  <unicode hex="0032"/>
  <outline>
    <contour>
      <point x="22" y="0" type="line"/>
      <point x="410" y="345" type="line" smooth="yes"/>
      <point x="466" y="395"/>
      <point x="508" y="444"/>
      <point x="520" y="511" type="curve" smooth="yes"/>
      <point x="532" y="579"/>
      <point x="502" y="659"/>
      <point x="399" y="659" type="curve" smooth="yes"/>
      <point x="297" y="659"/>
      <point x="215" y="580"/>
      <point x="194" y="460" type="curve"/>
      <point x="139" y="460" type="line"/>
      <point x="165" y="609"/>
      <point x="271" y="711"/>
      <point x="408" y="711" type="curve" smooth="yes"/>
      <point x="554" y="711"/>
      <point x="592" y="597"/>
      <point x="576" y="507" type="curve" smooth="yes"/>
      <point x="563" y="431"/>
      <point x="511" y="370"/>
      <point x="448" y="315" type="curve" smooth="yes"/>
      <point x="146" y="52" type="line"/>
      <point x="509" y="52" type="line"/>
      <point x="500" y="0" type="line"/>
    </contour>
  </outline>
</glyph>
<glyph name="three" format="1">
  <advance width="548"/>
  <unicode hex="0033"/>
  <outline>
    <contour>
      <point x="313" y="352" type="curve"/>
      <point x="319" y="388" type="line"/>
      <point x="409" y="388"/>
      <point x="498" y="445"/>
      <point x="512" y="526" type="curve" smooth="yes"/>
      <point x="525" y="599"/>
      <point x="489" y="660"/>
      <point x="402" y="660" type="curve" smooth="yes"/>
      <point x="319" y="660"/>
      <point x="252" y="603"/>
      <point x="238" y="526" type="curve"/>
      <point x="185" y="526" type="line"/>
      <point x="204" y="635"/>
      <point x="295" y="710"/>
      <point x="410" y="710" type="curve" smooth="yes"/>
      <point x="530" y="710"/>
      <point x="585" y="623"/>
      <point x="568" y="528" type="curve" smooth="yes"/>
      <point x="550" y="425"/>
      <point x="436" y="352"/>
    </contour>
    <contour>
      <point x="279" y="-10" type="curve" smooth="yes"/>
      <point x="144" y="-10"/>
      <point x="76" y="76"/>
      <point x="95" y="185" type="curve"/>
      <point x="151" y="185" type="line"/>
      <point x="137" y="103"/>
      <point x="188" y="42"/>
      <point x="288" y="42" type="curve" smooth="yes"/>
      <point x="384" y="42"/>
      <point x="457" y="101"/>
      <point x="472" y="187" type="curve" smooth="yes"/>
      <point x="490" y="289"/>
      <point x="401" y="339"/>
      <point x="311" y="339" type="curve"/>
      <point x="317" y="375" type="line"/>
      <point x="440" y="375"/>
      <point x="551" y="316"/>
      <point x="527" y="181" type="curve" smooth="yes"/>
      <point x="507" y="66"/>
      <point x="404" y="-10"/>
    </contour>
  </outline>
</glyph>
<glyph name="six" format="1">
  <advance width="560"/>
  <unicode hex="0036"/>
  <outline>
    <contour>
      <point x="143" y="226" type="curve" smooth="yes"/>
      <point x="124" y="118"/>
      <point x="183" y="40"/>
      <point x="287" y="40" type="curve" smooth="yes"/>
      <point x="391" y="40"/>
      <point x="478" y="118"/>
      <point x="497" y="226" type="curve" smooth="yes"/>
      <point x="515" y="330"/>
      <point x="452" y="408"/>
      <point x="356" y="408" type="curve" smooth="yes"/>
      <point x="246" y="408"/>
      <point x="161" y="326"/>
    </contour>
    <contour>
      <point x="453" y="700" type="line"/>
      <point x="522" y="700" type="line"/>
      <point x="240" y="389" type="line"/>
      <point x="236" y="392" type="line"/>
      <point x="276" y="433"/>
      <point x="325" y="449"/>
      <point x="382" y="449" type="curve" smooth="yes"/>
      <point x="496" y="449"/>
      <point x="572" y="351"/>
      <point x="550" y="226" type="curve" smooth="yes"/>
      <point x="525" y="86"/>
      <point x="413" y="-10"/>
      <point x="278" y="-10" type="curve" smooth="yes"/>
      <point x="143" y="-10"/>
      <point x="65" y="86"/>
      <point x="90" y="226" type="curve" smooth="yes"/>
      <point x="100" y="283"/>
      <point x="131" y="340"/>
      <point x="165" y="377" type="curve" smooth="yes"/>
    </contour>
  </outline>
</glyph>
<glyph name="seven" format="1">
  <advance width="521"/>
  <unicode hex="0037"/>
  <outline>
    <contour>
      <point x="146" y="648" type="line"/>
      <point x="155" y="700" type="line"/>
      <point x="637" y="700" type="line"/>
      <point x="165" y="0" type="line"/>
      <point x="107" y="0" type="line"/>
      <point x="545" y="648" type="line"/>
    </contour>
  </outline>
</glyph>
<glyph name="nine" format="1">
  <advance width="560"/>
  <unicode hex="0039"/>
  <outline>
    <contour>
      <point x="541" y="474" type="curve" smooth="yes"/>
      <point x="560" y="582"/>
      <point x="500" y="660"/>
      <point x="396" y="660" type="curve" smooth="yes"/>
      <point x="292" y="660"/>
      <point x="206" y="582"/>
      <point x="187" y="474" type="curve" smooth="yes"/>
      <point x="169" y="370"/>
      <point x="231" y="292"/>
      <point x="327" y="292" type="curve" smooth="yes"/>
      <point x="437" y="292"/>
      <point x="523" y="374"/>
    </contour>
    <contour>
      <point x="230" y="0" type="line"/>
      <point x="161" y="0" type="line"/>
      <point x="444" y="311" type="line"/>
      <point x="447" y="308" type="line"/>
      <point x="407" y="267"/>
      <point x="358" y="251"/>
      <point x="301" y="251" type="curve" smooth="yes"/>
      <point x="187" y="251"/>
      <point x="112" y="349"/>
      <point x="134" y="474" type="curve" smooth="yes"/>
      <point x="159" y="614"/>
      <point x="270" y="710"/>
      <point x="405" y="710" type="curve" smooth="yes"/>
      <point x="540" y="710"/>
      <point x="619" y="614"/>
      <point x="594" y="474" type="curve" smooth="yes"/>
      <point x="584" y="417"/>
      <point x="552" y="360"/>
      <point x="518" y="323" type="curve" smooth="yes"/>
    </contour>
  </outline>
</glyph>
<glyph name="colon" format="1">
  <advance width="300"/>
  <unicode hex="003A"/>
  <outline>
    <contour>
      <point x="109" y="24" type="curve" smooth="yes"/>
      <point x="113" y="45"/>
      <point x="133" y="62"/>
      <point x="153" y="62" type="curve" smooth="yes"/>
      <point x="173" y="62"/>
      <point x="187" y="45"/>
      <point x="183" y="24" type="curve" smooth="yes"/>
      <point x="179" y="3"/>
      <point x="160" y="-13"/>
      <point x="140" y="-13" type="curve" smooth="yes"/>
      <point x="120" y="-13"/>
      <point x="105" y="3"/>
    </contour>
    <contour>
      <point x="174" y="392" type="curve" smooth="yes"/>
      <point x="178" y="413"/>
      <point x="198" y="429"/>
      <point x="218" y="429" type="curve" smooth="yes"/>
      <point x="238" y="429"/>
      <point x="252" y="413"/>
      <point x="248" y="392" type="curve" smooth="yes"/>
      <point x="244" y="371"/>
      <point x="224" y="354"/>
      <point x="204" y="354" type="curve" smooth="yes"/>
      <point x="184" y="354"/>
      <point x="170" y="371"/>
    </contour>
  </outline>
</glyph>
<glyph name="semicolon" format="1">
  <advance width="308"/>
  <unicode hex="003B"/>
  <outline>
    <contour>
      <point x="204" y="392" type="curve" smooth="yes"/>
      <point x="208" y="413"/>
      <point x="228" y="429"/>
      <point x="248" y="429" type="curve" smooth="yes"/>
      <point x="268" y="429"/>
      <point x="282" y="413"/>
      <point x="278" y="392" type="curve" smooth="yes"/>
      <point x="274" y="371"/>
      <point x="254" y="354"/>
      <point x="234" y="354" type="curve" smooth="yes"/>
      <point x="214" y="354"/>
      <point x="200" y="371"/>
    </contour>
    <contour>
      <point x="177" y="104" type="line"/>
      <point x="226" y="84" type="line"/>
      <point x="72" y="-166" type="line"/>
      <point x="37" y="-153" type="line"/>
    </contour>
  </outline>
</glyph>
<glyph name="less" format="1">
  <advance width="640"/>
  <unicode hex="003C"/>
  <outline>
    <contour>
      <point x="197" y="260" type="line"/>
      <point x="589" y="79" type="line"/>
      <point x="580" y="27" type="line"/>
      <point x="108" y="243" type="line"/>
      <point x="113" y="272" type="line"/>
      <point x="661" y="488" type="line"/>
      <point x="652" y="436" type="line"/>
    </contour>
  </outline>
</glyph>
<glyph name="question" format="1">
  <advance width="551"/>
  <unicode hex="003F"/>
  <outline>
    <contour>
      <point x="207" y="24" type="curve" smooth="yes"/>
      <point x="211" y="45"/>
      <point x="231" y="62"/>
      <point x="251" y="62" type="curve" smooth="yes"/>
      <point x="271" y="62"/>
      <point x="285" y="45"/>
      <point x="281" y="24" type="curve" smooth="yes"/>
      <point x="277" y="3"/>
      <point x="258" y="-13"/>
      <point x="238" y="-13" type="curve" smooth="yes"/>
      <point x="218" y="-13"/>
      <point x="203" y="3"/>
    </contour>
    <contour>
      <point x="269" y="345" type="line"/>
      <point x="327" y="345" type="line"/>
      <point x="291" y="170" type="line"/>
      <point x="252" y="170" type="line"/>
    </contour>
    <contour>
      <point x="520" y="508" type="curve" smooth="yes"/>
      <point x="536" y="600"/>
      <point x="486" y="661"/>
      <point x="384" y="661" type="curve" smooth="yes"/>
      <point x="307" y="661"/>
      <point x="251" y="624"/>
      <point x="205" y="566" type="curve"/>
      <point x="167" y="593" type="line"/>
      <point x="225" y="663"/>
      <point x="287" y="710"/>
      <point x="398" y="710" type="curve" smooth="yes"/>
      <point x="523" y="710"/>
      <point x="593" y="623"/>
      <point x="573" y="508" type="curve" smooth="yes"/>
      <point x="553" y="397"/>
      <point x="431" y="309"/>
      <point x="310" y="309" type="curve"/>
      <point x="284" y="345" type="line"/>
      <point x="408" y="345"/>
      <point x="505" y="424"/>
    </contour>
  </outline>
</glyph>
<glyph name="A" format="1">
  <advance width="636"/>
  <unicode hex="0041"/>
  <outline>
    <contour>
      <point x="180" y="235" type="line"/>
      <point x="208" y="287" type="line"/>
      <point x="532" y="287" type="line"/>
      <point x="540" y="235" type="line"/>
    </contour>
    <contour>
      <point x="424" y="600" type="line"/>
      <point x="229" y="269" type="line"/>
      <point x="221" y="257" type="line"/>
      <point x="71" y="0" type="line"/>
      <point x="9" y="0" type="line"/>
      <point x="446" y="727" type="line"/>
      <point x="627" y="0" type="line"/>
      <point x="565" y="0" type="line"/>
      <point x="506" y="253" type="line"/>
      <point x="503" y="266" type="line"/>
    </contour>
  </outline>
</glyph>
<glyph name="B" format="1">
  <advance width="532"/>
  <unicode hex="0042"/>
  <outline>
    <contour>
      <point x="184" y="391" type="line"/>
      <point x="319" y="391" type="line" smooth="yes"/>
      <point x="434" y="391"/>
      <point x="538" y="332"/>
      <point x="515" y="203" type="curve" smooth="yes"/>
      <point x="490" y="64"/>
      <point x="381" y="0"/>
      <point x="246" y="0" type="curve" smooth="yes"/>
      <point x="115" y="0" type="line"/>
      <point x="124" y="49" type="line"/>
      <point x="255" y="49" type="line" smooth="yes"/>
      <point x="361" y="49"/>
      <point x="441" y="102"/>
      <point x="459" y="206" type="curve" smooth="yes"/>
      <point x="476" y="304"/>
      <point x="403" y="359"/>
      <point x="309" y="359" type="curve" smooth="yes"/>
      <point x="178" y="359" type="line"/>
    </contour>
    <contour>
      <point x="181" y="376" type="line"/>
      <point x="187" y="408" type="line"/>
      <point x="308" y="408" type="line" smooth="yes"/>
      <point x="390" y="408"/>
      <point x="464" y="446"/>
      <point x="478" y="528" type="curve" smooth="yes"/>
      <point x="492" y="605"/>
      <point x="441" y="651"/>
      <point x="351" y="651" type="curve" smooth="yes"/>
      <point x="230" y="651" type="line"/>
      <point x="238" y="700" type="line"/>
      <point x="359" y="700" type="line" smooth="yes"/>
      <point x="484" y="700"/>
      <point x="554" y="642"/>
      <point x="534" y="531" type="curve" smooth="yes"/>
      <point x="516" y="428"/>
      <point x="423" y="376"/>
      <point x="306" y="376" type="curve" smooth="yes"/>
    </contour>
    <contour>
      <point x="207" y="700" type="line"/>
      <point x="262" y="700" type="line"/>
      <point x="139" y="0" type="line"/>
      <point x="84" y="0" type="line"/>
    </contour>
  </outline>
</glyph>
<glyph name="J" format="1">
  <advance width="222"/>
  <unicode hex="004A"/>
  <outline>
    <contour>
      <point x="-113" y="-126" type="line"/>
      <point x="-99" y="-149"/>
      <point x="-70" y="-168"/>
      <point x="-30" y="-168" type="curve" smooth="yes"/>
      <point x="24" y="-168"/>
      <point x="62" y="-136"/>
      <point x="77" y="-50" type="curve" smooth="yes"/>
      <point x="209" y="700" type="line"/>
      <point x="262" y="700" type="line"/>
      <point x="128" y="-60" type="line" smooth="yes"/>
      <point x="109" y="-169"/>
      <point x="53" y="-220"/>
      <point x="-41" y="-220" type="curve" smooth="yes"/>
      <point x="-94" y="-220"/>
      <point x="-139" y="-188"/>
      <point x="-150" y="-168" type="curve"/>
    </contour>
  </outline>
</glyph>
<glyph name="K" format="1">
  <advance width="520"/>
  <unicode hex="004B"/>
  <outline>
    <contour>
      <point x="205" y="700" type="line"/>
      <point x="260" y="700" type="line"/>
      <point x="137" y="0" type="line"/>
      <point x="82" y="0" type="line"/>
    </contour>
    <contour>
      <point x="550" y="700" type="line"/>
      <point x="620" y="700" type="line"/>
      <point x="255" y="372" type="line"/>
      <point x="512" y="0" type="line"/>
      <point x="442" y="0" type="line"/>
      <point x="186" y="371" type="line"/>
    </contour>
  </outline>
</glyph>
<glyph name="V" format="1">
  <advance width="636"/>
  <unicode hex="0056"/>
  <outline>
    <contour>
      <point x="336" y="101" type="line"/>
      <point x="688" y="700" type="line"/>
      <point x="750" y="700" type="line"/>
      <point x="313" y="-27" type="line"/>
      <point x="132" y="700" type="line"/>
      <point x="194" y="700" type="line"/>
    </contour>
  </outline>
</glyph>
<glyph name="X" format="1">
  <advance width="533"/>
  <unicode hex="0058"/>
  <outline>
    <contour>
      <point x="561" y="700" type="line"/>
      <point x="627" y="700" type="line"/>
      <point x="362" y="367" type="line"/>
      <point x="519" y="0" type="line"/>
      <point x="453" y="0" type="line"/>
      <point x="325" y="318" type="line"/>
      <point x="80" y="0" type="line"/>
      <point x="14" y="0" type="line"/>
      <point x="306" y="367" type="line"/>
      <point x="162" y="700" type="line"/>
      <point x="228" y="700" type="line"/>
      <point x="343" y="415" type="line"/>
    </contour>
  </outline>
</glyph>
<glyph name="Y" format="1">
  <advance width="539"/>
  <unicode hex="0059"/>
  <outline>
    <contour>
      <point x="297" y="326" type="line"/>
      <point x="352" y="326" type="line"/>
      <point x="295" y="0" type="line"/>
      <point x="240" y="0" type="line"/>
    </contour>
    <contour>
      <point x="591" y="700" type="line"/>
      <point x="653" y="700" type="line"/>
      <point x="309" y="240" type="line"/>
      <point x="132" y="700" type="line"/>
      <point x="194" y="700" type="line"/>
      <point x="327" y="338" type="line"/>
    </contour>
  </outline>
</glyph>
<glyph name="Z" format="1">
  <advance width="541"/>
  <unicode hex="005A"/>
  <outline>
    <contour>
      <point x="151" y="648" type="line"/>
      <point x="160" y="700" type="line"/>
      <point x="646" y="700" type="line"/>
      <point x="117" y="52" type="line"/>
      <point x="516" y="52" type="line"/>
      <point x="507" y="0" type="line"/>
      <point x="17" y="0" type="line"/>
      <point x="546" y="648" type="line"/>
    </contour>
  </outline>
</glyph>
<glyph name="bracketleft" format="1">
  <advance width="284"/>
  <unicode hex="005B"/>
  <outline>
    <contour>
      <point x="281" y="731" type="line"/>
      <point x="122" y="-171" type="line"/>
      <point x="234" y="-171" type="line"/>
      <point x="225" y="-220" type="line"/>
      <point x="61" y="-220" type="line"/>
      <point x="238" y="780" type="line"/>
      <point x="402" y="780" type="line"/>
      <point x="393" y="731" type="line"/>
    </contour>
  </outline>
</glyph>
<glyph name="backslash" format="1">
  <advance width="483"/>
  <unicode hex="005C"/>
  <outline>
    <contour>
      <point x="138" y="700" type="line"/>
      <point x="194" y="700" type="line"/>
      <point x="468" y="0" type="line"/>
      <point x="412" y="0" type="line"/>
    </contour>
  </outline>
</glyph>
<glyph name="bracketright" format="1">
  <advance width="284"/>
  <unicode hex="005D"/>
  <outline>
    <contour>
      <point x="102" y="-171" type="line"/>
      <point x="261" y="731" type="line"/>
      <point x="149" y="731" type="line"/>
      <point x="158" y="780" type="line"/>
      <point x="322" y="780" type="line"/>
      <point x="145" y="-220" type="line"/>
      <point x="-19" y="-220" type="line"/>
      <point x="-10" y="-171" type="line"/>
    </contour>
  </outline>
</glyph>
<glyph name="asciicircum" format="1">
  <advance width="510"/>
  <unicode hex="005E"/>
  <outline>
    <contour>
      <point x="370" y="650" type="line"/>
      <point x="200" y="460" type="line"/>
      <point x="146" y="460" type="line"/>
      <point x="368" y="710" type="line"/>
      <point x="392" y="710" type="line"/>
      <point x="526" y="460" type="line"/>
      <point x="472" y="460" type="line"/>
    </contour>
  </outline>
</glyph>
<glyph name="underscore" format="1">
  <advance width="500"/>
  <unicode hex="005F"/>
  <outline>
    <contour>
      <point x="-22" y="-123" type="line"/>
      <point x="-15" y="-86" type="line"/>
      <point x="485" y="-86" type="line"/>
      <point x="478" y="-123" type="line"/>
    </contour>
  </outline>
</glyph>
<glyph name="grave" format="1">
  <advance width="366"/>
  <unicode hex="0060"/>
  <outline>
    <contour>
      <point x="204" y="673" type="line"/>
      <point x="256" y="700" type="line"/>
      <point x="386" y="540" type="line"/>
      <point x="354" y="520" type="line"/>
    </contour>
  </outline>
</glyph>
<glyph name="e" format="1">
  <advance width="509"/>
  <unicode hex="0065"/>
  <outline>
    <contour>
      <point x="116" y="217" type="line"/>
      <point x="124" y="262" type="line"/>
      <point x="502" y="262" type="line"/>
      <point x="507" y="217" type="line"/>
    </contour>
    <contour>
      <point x="464" y="251" type="line" smooth="yes"/>
      <point x="481" y="350"/>
      <point x="428" y="424"/>
      <point x="334" y="424" type="curve" smooth="yes"/>
      <point x="245" y="424"/>
      <point x="156" y="358"/>
      <point x="137" y="249" type="curve"/>
      <point x="133" y="231" type="line"/>
      <point x="113" y="115"/>
      <point x="167" y="39"/>
      <point x="265" y="39" type="curve" smooth="yes"/>
      <point x="352" y="39"/>
      <point x="405" y="84"/>
      <point x="445" y="134" type="curve"/>
      <point x="482" y="107" type="line"/>
      <point x="431" y="46"/>
      <point x="371" y="-10"/>
      <point x="250" y="-10" type="curve" smooth="yes"/>
      <point x="129" y="-10"/>
      <point x="55" y="92"/>
      <point x="80" y="231" type="curve" smooth="yes"/>
      <point x="84" y="252"/>
      <point x="88" y="272"/>
      <point x="96" y="291" type="curve" smooth="yes"/>
      <point x="137" y="397"/>
      <point x="232" y="470"/>
      <point x="343" y="470" type="curve" smooth="yes"/>
      <point x="463" y="470"/>
      <point x="538" y="379"/>
      <point x="514" y="242" type="curve" smooth="yes"/>
      <point x="513" y="234"/>
      <point x="509" y="225"/>
      <point x="507" y="217" type="curve"/>
      <point x="461" y="230" type="line"/>
    </contour>
  </outline>
</glyph>
<glyph name="h" format="1">
  <advance width="505"/>
  <unicode hex="0068"/>
  <outline>
    <contour>
      <point x="269" y="780" type="line"/>
      <point x="131" y="0" type="line"/>
      <point x="79" y="0" type="line"/>
      <point x="217" y="780" type="line"/>
    </contour>
    <contour>
      <point x="426" y="296" type="line" smooth="yes"/>
      <point x="440" y="374"/>
      <point x="415" y="421"/>
      <point x="340" y="421" type="curve" smooth="yes"/>
      <point x="262" y="421"/>
      <point x="194" y="358"/>
      <point x="180" y="280" type="curve"/>
      <point x="162" y="280" type="line"/>
      <point x="181" y="389"/>
      <point x="266" y="470"/>
      <point x="361" y="470" type="curve" smooth="yes"/>
      <point x="456" y="470"/>
      <point x="498" y="409"/>
      <point x="479" y="302" type="curve" smooth="yes"/>
      <point x="426" y="0" type="line"/>
      <point x="374" y="0" type="line"/>
    </contour>
  </outline>
</glyph>
<glyph name="l" format="1">
  <advance width="210"/>
  <unicode hex="006C"/>
  <outline>
    <contour>
      <point x="217" y="780" type="line"/>
      <point x="269" y="780" type="line"/>
      <point x="131" y="0" type="line"/>
      <point x="79" y="0" type="line"/>
    </contour>
  </outline>
</glyph>
<glyph name="o" format="1">
  <advance width="550"/>
  <unicode hex="006F"/>
  <outline>
    <contour>
      <point x="80" y="230" type="curve" smooth="yes"/>
      <point x="105" y="369"/>
      <point x="224" y="470"/>
      <point x="358" y="470" type="curve" smooth="yes"/>
      <point x="492" y="470"/>
      <point x="577" y="369"/>
      <point x="552" y="230" type="curve" smooth="yes"/>
      <point x="527" y="91"/>
      <point x="407" y="-10"/>
      <point x="273" y="-10" type="curve" smooth="yes"/>
      <point x="139" y="-10"/>
      <point x="55" y="91"/>
    </contour>
    <contour>
      <point x="133" y="230" type="curve" smooth="yes"/>
      <point x="113" y="119"/>
      <point x="178" y="39"/>
      <point x="282" y="39" type="curve" smooth="yes"/>
      <point x="386" y="39"/>
      <point x="479" y="119"/>
      <point x="499" y="230" type="curve" smooth="yes"/>
      <point x="519" y="341"/>
      <point x="453" y="421"/>
      <point x="349" y="421" type="curve" smooth="yes"/>
      <point x="245" y="421"/>
      <point x="153" y="341"/>
    </contour>
  </outline>
</glyph>
<glyph name="s" format="1">
  <advance width="403"/>
  <unicode hex="0073"/>
  <outline>
    <contour>
      <point x="105" y="155" type="line"/>
      <point x="107" y="93"/>
      <point x="139" y="39"/>
      <point x="212" y="39" type="curve" smooth="yes"/>
      <point x="271" y="39"/>
      <point x="316" y="73"/>
      <point x="324" y="121" type="curve" smooth="yes"/>
      <point x="334" y="177"/>
      <point x="284" y="200"/>
      <point x="229" y="221" type="curve" smooth="yes"/>
      <point x="166" y="245"/>
      <point x="108" y="277"/>
      <point x="122" y="358" type="curve" smooth="yes"/>
      <point x="134" y="427"/>
      <point x="201" y="469"/>
      <point x="274" y="469" type="curve" smooth="yes"/>
      <point x="360" y="469"/>
      <point x="400" y="404"/>
      <point x="409" y="353" type="curve"/>
      <point x="363" y="337" type="line"/>
      <point x="350" y="375"/>
      <point x="325" y="420"/>
      <point x="265" y="420" type="curve" smooth="yes"/>
      <point x="215" y="420"/>
      <point x="182" y="398"/>
      <point x="174" y="355" type="curve" smooth="yes"/>
      <point x="165" y="303"/>
      <point x="219" y="277"/>
      <point x="274" y="256" type="curve" smooth="yes"/>
      <point x="336" y="232"/>
      <point x="391" y="194"/>
      <point x="379" y="125" type="curve" smooth="yes"/>
      <point x="364" y="39"/>
      <point x="291" y="-10"/>
      <point x="200" y="-10" type="curve" smooth="yes"/>
      <point x="107" y="-10"/>
      <point x="56" y="61"/>
      <point x="56" y="141" type="curve"/>
    </contour>
  </outline>
</glyph>
<glyph name="x" format="1">
  <advance width="404"/>
  <unicode hex="0078"/>
  <outline>
    <contour>
      <point x="411" y="460" type="line"/>
      <point x="471" y="460" type="line"/>
      <point x="273" y="237" type="line"/>
      <point x="400" y="0" type="line"/>
      <point x="340" y="0" type="line"/>
      <point x="237" y="196" type="line"/>
      <point x="64" y="0" type="line"/>
      <point x="4" y="0" type="line"/>
      <point x="215" y="237" type="line"/>
      <point x="95" y="460" type="line"/>
      <point x="155" y="460" type="line"/>
      <point x="251" y="278" type="line"/>
    </contour>
  </outline>
</glyph>
<glyph name="y" format="1">
  <advance width="434"/>
  <unicode hex="0079"/>
  <outline>
    <contour>
      <point x="511" y="460" type="line"/>
      <point x="91" y="-220" type="line"/>
      <point x="33" y="-220" type="line"/>
      <point x="198" y="47" type="line"/>
      <point x="85" y="460" type="line"/>
      <point x="147" y="460" type="line"/>
      <point x="245" y="68" type="line"/>
      <point x="221" y="70" type="line"/>
      <point x="453" y="460" type="line"/>
    </contour>
  </outline>
</glyph>
<glyph name="z" format="1">
  <advance width="448"/>
  <unicode hex="007A"/>
  <outline>
    <contour>
      <point x="404" y="411" type="line"/>
      <point x="115" y="411" type="line"/>
      <point x="124" y="460" type="line"/>
      <point x="508" y="460" type="line"/>
      <point x="121" y="49" type="line"/>
      <point x="428" y="49" type="line"/>
      <point x="419" y="0" type="line"/>
      <point x="17" y="0" type="line"/>
    </contour>
  </outline>
</glyph>
<glyph name="braceright" format="1">
  <advance width="299"/>
  <unicode hex="007D"/>
  <outline>
    <contour>
      <point x="125" y="-72" type="curve" smooth="yes"/>
      <point x="158" y="114" type="line" smooth="yes"/>
      <point x="174" y="203"/>
      <point x="208" y="297"/>
      <point x="285" y="297" type="curve"/>
      <point x="283" y="283" type="line"/>
      <point x="206" y="283"/>
      <point x="204" y="377"/>
      <point x="220" y="466" type="curve" smooth="yes"/>
      <point x="253" y="652" type="line" smooth="yes"/>
      <point x="263" y="706"/>
      <point x="249" y="734"/>
      <point x="205" y="734" type="curve" smooth="yes"/>
      <point x="176" y="734" type="line"/>
      <point x="185" y="780" type="line"/>
      <point x="229" y="780" type="line" smooth="yes"/>
      <point x="285" y="780"/>
      <point x="320" y="739"/>
      <point x="303" y="640" type="curve" smooth="yes"/>
      <point x="266" y="430" type="line" smooth="yes"/>
      <point x="253" y="354"/>
      <point x="269" y="320"/>
      <point x="297" y="310" type="curve"/>
      <point x="290" y="270" type="line"/>
      <point x="258" y="260"/>
      <point x="229" y="226"/>
      <point x="216" y="150" type="curve" smooth="yes"/>
      <point x="179" y="-60" type="line" smooth="yes"/>
      <point x="162" y="-159"/>
      <point x="112" y="-200"/>
      <point x="56" y="-200" type="curve" smooth="yes"/>
      <point x="12" y="-200" type="line"/>
      <point x="20" y="-154" type="line"/>
      <point x="49" y="-154" type="line" smooth="yes"/>
      <point x="93" y="-154"/>
      <point x="115" y="-126"/>
    </contour>
  </outline>
</glyph>
<glyph name="asciitilde" format="1">
  <advance width="575"/>
  <unicode hex="007E"/>
  <outline>
    <contour>
      <point x="151" y="177" type="curve"/>
      <point x="104" y="181" type="line"/>
      <point x="103" y="188"/>
      <point x="103" y="196"/>
      <point x="105" y="205" type="curve" smooth="yes"/>
      <point x="110" y="231"/>
      <point x="122" y="258"/>
      <point x="144" y="281" type="curve" smooth="yes"/>
      <point x="172" y="311"/>
      <point x="208" y="327"/>
      <point x="248" y="327" type="curve" smooth="yes"/>
      <point x="295" y="327"/>
      <point x="328" y="299"/>
      <point x="358" y="267" type="curve" smooth="yes"/>
      <point x="382" y="242"/>
      <point x="405" y="221"/>
      <point x="435" y="221" type="curve" smooth="yes"/>
      <point x="476" y="221"/>
      <point x="500" y="250"/>
      <point x="508" y="294" type="curve" smooth="yes"/>
      <point x="509" y="302"/>
      <point x="510" y="312"/>
      <point x="508" y="322" type="curve"/>
      <point x="558" y="318" type="line"/>
      <point x="559" y="310"/>
      <point x="559" y="300"/>
      <point x="557" y="290" type="curve" smooth="yes"/>
      <point x="553" y="265"/>
      <point x="543" y="236"/>
      <point x="522" y="214" type="curve" smooth="yes"/>
      <point x="495" y="185"/>
      <point x="463" y="172"/>
      <point x="428" y="172" type="curve" smooth="yes"/>
      <point x="386" y="172"/>
      <point x="356" y="197"/>
      <point x="325" y="229" type="curve" smooth="yes"/>
      <point x="301" y="254"/>
      <point x="275" y="279"/>
      <point x="238" y="279" type="curve" smooth="yes"/>
      <point x="191" y="279"/>
      <point x="159" y="247"/>
      <point x="151" y="199" type="curve" smooth="yes"/>
      <point x="150" y="192"/>
      <point x="149" y="185"/>
    </contour>
  </outline>
</glyph>
<glyph name="exclamdown" format="1">
  <advance width="300"/>
  <unicode hex="00A1"/>
  <outline>
    <contour>
      <point x="147" y="-245" type="line"/>
      <point x="82" y="-245" type="line"/>
      <point x="183" y="255" type="line"/>
      <point x="222" y="255" type="line"/>
    </contour>
    <contour>
      <point x="271" y="431" type="curve" smooth="yes"/>
      <point x="267" y="410"/>
      <point x="247" y="393"/>
      <point x="227" y="393" type="curve" smooth="yes"/>
      <point x="207" y="393"/>
      <point x="192" y="410"/>
      <point x="196" y="431" type="curve" smooth="yes"/>
      <point x="200" y="452"/>
      <point x="221" y="468"/>
      <point x="241" y="468" type="curve" smooth="yes"/>
      <point x="261" y="468"/>
      <point x="275" y="452"/>
    </contour>
  </outline>
</glyph>
<glyph name="cent" format="1">
  <advance width="580"/>
  <unicode hex="00A2"/>
  <outline>
    <contour>
      <point x="298" y="21" type="line"/>
      <point x="338" y="21" type="line"/>
      <point x="316" y="-112" type="line"/>
      <point x="272" y="-112" type="line"/>
    </contour>
    <contour>
      <point x="177" y="230" type="curve" smooth="yes"/>
      <point x="158" y="120"/>
      <point x="221" y="39"/>
      <point x="326" y="39" type="curve" smooth="yes"/>
      <point x="400" y="39"/>
      <point x="469" y="77"/>
      <point x="497" y="114" type="curve"/>
      <point x="486" y="49" type="line"/>
      <point x="452" y="16"/>
      <point x="384" y="-10"/>
      <point x="317" y="-10" type="curve" smooth="yes"/>
      <point x="183" y="-10"/>
      <point x="99" y="91"/>
      <point x="124" y="230" type="curve" smooth="yes"/>
      <point x="149" y="369"/>
      <point x="268" y="470"/>
      <point x="402" y="470" type="curve" smooth="yes"/>
      <point x="469" y="470"/>
      <point x="527" y="443"/>
      <point x="549" y="411" type="curve"/>
      <point x="538" y="346" type="line"/>
      <point x="524" y="383"/>
      <point x="467" y="421"/>
      <point x="393" y="421" type="curve" smooth="yes"/>
      <point x="288" y="421"/>
      <point x="196" y="340"/>
    </contour>
    <contour>
      <point x="394" y="578" type="line"/>
      <point x="438" y="578" type="line"/>
      <point x="412" y="442" type="line"/>
      <point x="372" y="442" type="line"/>
    </contour>
  </outline>
</glyph>
<glyph name="currency" format="1">
  <advance width="572"/>
  <unicode hex="00A4"/>
  <outline>
    <contour>
      <point x="135" y="511" type="line"/>
      <point x="175" y="545" type="line"/>
      <point x="242" y="463" type="line"/>
      <point x="203" y="430" type="line"/>
    </contour>
    <contour>
      <point x="89" y="55" type="line"/>
      <point x="61" y="89" type="line"/>
      <point x="157" y="170" type="line"/>
      <point x="184" y="137" type="line"/>
    </contour>
    <contour>
      <point x="525" y="430" type="line"/>
      <point x="497" y="463" type="line"/>
      <point x="593" y="545" type="line"/>
      <point x="620" y="511" type="line"/>
    </contour>
    <contour>
      <point x="439" y="137" type="line"/>
      <point x="479" y="170" type="line"/>
      <point x="546" y="89" type="line"/>
      <point x="507" y="55" type="line"/>
    </contour>
    <contour>
      <point x="105" y="300" type="curve" smooth="yes"/>
      <point x="130" y="439"/>
      <point x="250" y="540"/>
      <point x="381" y="540" type="curve" smooth="yes"/>
      <point x="512" y="540"/>
      <point x="598" y="439"/>
      <point x="573" y="300" type="curve" smooth="yes"/>
      <point x="548" y="161"/>
      <point x="428" y="60"/>
      <point x="297" y="60" type="curve" smooth="yes"/>
      <point x="166" y="60"/>
      <point x="80" y="161"/>
    </contour>
    <contour>
      <point x="158" y="300" type="curve" smooth="yes"/>
      <point x="139" y="190"/>
      <point x="203" y="109"/>
      <point x="305" y="109" type="curve" smooth="yes"/>
      <point x="407" y="109"/>
      <point x="501" y="190"/>
      <point x="520" y="300" type="curve" smooth="yes"/>
      <point x="539" y="410"/>
      <point x="475" y="491"/>
      <point x="373" y="491" type="curve" smooth="yes"/>
      <point x="271" y="491"/>
      <point x="177" y="410"/>
    </contour>
  </outline>
</glyph>
<glyph name="section" format="1">
  <advance width="404"/>
  <unicode hex="00A7"/>
  <outline>
    <contour>
      <point x="434" y="594" type="line"/>
      <point x="421" y="636"/>
      <point x="371" y="660"/>
      <point x="323" y="660" type="curve" smooth="yes"/>
      <point x="275" y="660"/>
      <point x="224" y="640"/>
      <point x="216" y="593" type="curve" smooth="yes"/>
      <point x="207" y="544"/>
      <point x="281" y="518"/>
      <point x="328" y="497" type="curve" smooth="yes"/>
      <point x="388" y="470"/>
      <point x="451" y="433"/>
      <point x="439" y="366" type="curve" smooth="yes"/>
      <point x="423" y="275"/>
      <point x="349" y="240"/>
      <point x="250" y="240" type="curve"/>
      <point x="254" y="261" type="line"/>
      <point x="321" y="267"/>
      <point x="375" y="310"/>
      <point x="384" y="362" type="curve" smooth="yes"/>
      <point x="394" y="416"/>
      <point x="332" y="442"/>
      <point x="283" y="463" type="curve" smooth="yes"/>
      <point x="224" y="488"/>
      <point x="150" y="516"/>
      <point x="164" y="593" type="curve" smooth="yes"/>
      <point x="177" y="669"/>
      <point x="257" y="710"/>
      <point x="331" y="710" type="curve" smooth="yes"/>
      <point x="404" y="710"/>
      <point x="470" y="671"/>
      <point x="479" y="620" type="curve"/>
    </contour>
    <contour>
      <point x="99" y="147" type="line"/>
      <point x="100" y="87"/>
      <point x="153" y="39"/>
      <point x="222" y="39" type="curve" smooth="yes"/>
      <point x="276" y="39"/>
      <point x="330" y="58"/>
      <point x="340" y="114" type="curve" smooth="yes"/>
      <point x="351" y="176"/>
      <point x="290" y="199"/>
      <point x="237" y="222" type="curve" smooth="yes"/>
      <point x="179" y="248"/>
      <point x="109" y="286"/>
      <point x="122" y="359" type="curve" smooth="yes"/>
      <point x="134" y="427"/>
      <point x="197" y="480"/>
      <point x="311" y="480" type="curve"/>
      <point x="308" y="464" type="line"/>
      <point x="229" y="448"/>
      <point x="183" y="410"/>
      <point x="175" y="365" type="curve" smooth="yes"/>
      <point x="164" y="300"/>
      <point x="235" y="277"/>
      <point x="282" y="256" type="curve" smooth="yes"/>
      <point x="342" y="229"/>
      <point x="408" y="193"/>
      <point x="395" y="118" type="curve" smooth="yes"/>
      <point x="379" y="27"/>
      <point x="301" y="-10"/>
      <point x="210" y="-10" type="curve" smooth="yes"/>
      <point x="125" y="-10"/>
      <point x="53" y="48"/>
      <point x="52" y="123" type="curve"/>
    </contour>
  </outline>
</glyph>
<glyph name="ordfeminine" format="1">
  <advance width="238"/>
  <unicode hex="00AA"/>
  <outline>
    <contour>
      <point x="142" y="530" type="curve" smooth="yes"/>
      <point x="136" y="497"/>
      <point x="155" y="479"/>
      <point x="191" y="479" type="curve" smooth="yes"/>
      <point x="230" y="479"/>
      <point x="268" y="503"/>
      <point x="276" y="546" type="curve"/>
      <point x="280" y="531" type="line"/>
      <point x="272" y="487"/>
      <point x="230" y="455"/>
      <point x="181" y="455" type="curve" smooth="yes"/>
      <point x="141" y="455"/>
      <point x="106" y="480"/>
      <point x="115" y="530" type="curve" smooth="yes"/>
      <point x="123" y="578"/>
      <point x="176" y="608"/>
      <point x="224" y="608" type="curve" smooth="yes"/>
      <point x="266" y="608"/>
      <point x="285" y="589"/>
      <point x="292" y="581" type="curve"/>
      <point x="289" y="564" type="line"/>
      <point x="273" y="578"/>
      <point x="253" y="588"/>
      <point x="222" y="588" type="curve" smooth="yes"/>
      <point x="184" y="588"/>
      <point x="148" y="565"/>
    </contour>
    <contour>
      <point x="171" y="652" type="curve"/>
      <point x="162" y="673" type="line"/>
      <point x="181" y="687"/>
      <point x="211" y="703"/>
      <point x="251" y="703" type="curve" smooth="yes"/>
      <point x="300" y="703"/>
      <point x="325" y="675"/>
      <point x="317" y="631" type="curve" smooth="yes"/>
      <point x="287" y="460" type="line"/>
      <point x="261" y="460" type="line"/>
      <point x="291" y="631" type="line" smooth="yes"/>
      <point x="296" y="662"/>
      <point x="279" y="680"/>
      <point x="247" y="680" type="curve" smooth="yes"/>
      <point x="214" y="680"/>
      <point x="187" y="664"/>
    </contour>
  </outline>
</glyph>
<glyph name="logicalnot" format="1">
  <advance width="620"/>
  <unicode hex="00AC"/>
  <outline>
    <contour>
      <point x="122" y="326" type="line"/>
      <point x="131" y="375" type="line"/>
      <point x="621" y="375" type="line"/>
      <point x="612" y="326" type="line"/>
    </contour>
    <contour>
      <point x="572" y="375" type="line"/>
      <point x="621" y="375" type="line"/>
      <point x="586" y="175" type="line"/>
      <point x="537" y="175" type="line"/>
    </contour>
  </outline>
</glyph>
<glyph name="uni00AD" format="1">
  <advance width="210"/>
  <unicode hex="00AD"/>
  <outline>
    <contour>
      <point x="45" y="226" type="line"/>
      <point x="53" y="275" type="line"/>
      <point x="253" y="275" type="line"/>
      <point x="245" y="226" type="line"/>
    </contour>
  </outline>
</glyph>
<glyph name="registered" format="1">
  <advance width="800"/>
  <unicode hex="00AE"/>
  <outline>
    <contour>
      <point x="418" y="350" type="line"/>
      <point x="455" y="350" type="line"/>
      <point x="562" y="150" type="line"/>
      <point x="521" y="150" type="line"/>
    </contour>
    <contour>
      <point x="385" y="570" type="line"/>
      <point x="419" y="570" type="line"/>
      <point x="344" y="150" type="line"/>
      <point x="310" y="150" type="line"/>
    </contour>
    <contour>
      <point x="397" y="540" type="line"/>
      <point x="403" y="570" type="line"/>
      <point x="481" y="570" type="line" smooth="yes"/>
      <point x="562" y="570"/>
      <point x="616" y="525"/>
      <point x="602" y="448" type="curve" smooth="yes"/>
      <point x="588" y="371"/>
      <point x="518" y="326"/>
      <point x="437" y="326" type="curve" smooth="yes"/>
      <point x="359" y="326" type="line"/>
      <point x="365" y="356" type="line"/>
      <point x="443" y="356" type="line" smooth="yes"/>
      <point x="507" y="356"/>
      <point x="558" y="387"/>
      <point x="569" y="448" type="curve" smooth="yes"/>
      <point x="580" y="509"/>
      <point x="539" y="540"/>
      <point x="475" y="540" type="curve" smooth="yes"/>
    </contour>
    <contour>
      <point x="139" y="350" type="curve" smooth="yes"/>
      <point x="106" y="162"/>
      <point x="223" y="24"/>
      <point x="404" y="24" type="curve" smooth="yes"/>
      <point x="585" y="24"/>
      <point x="752" y="162"/>
      <point x="785" y="350" type="curve" smooth="yes"/>
      <point x="818" y="538"/>
      <point x="700" y="676"/>
      <point x="519" y="676" type="curve" smooth="yes"/>
      <point x="338" y="676"/>
      <point x="172" y="538"/>
    </contour>
    <contour>
      <point x="102" y="350" type="curve" smooth="yes"/>
      <point x="139" y="559"/>
      <point x="321" y="710"/>
      <point x="525" y="710" type="curve" smooth="yes"/>
      <point x="729" y="710"/>
      <point x="859" y="559"/>
      <point x="822" y="350" type="curve" smooth="yes"/>
      <point x="785" y="141"/>
      <point x="602" y="-10"/>
      <point x="398" y="-10" type="curve" smooth="yes"/>
      <point x="194" y="-10"/>
      <point x="65" y="141"/>
    </contour>
  </outline>
</glyph>
<glyph name="degree" format="1">
  <advance width="278"/>
  <unicode hex="00B0"/>
  <outline>
    <contour>
      <point x="126" y="600" type="curve" smooth="yes"/>
      <point x="138" y="670"/>
      <point x="198" y="720"/>
      <point x="266" y="720" type="curve" smooth="yes"/>
      <point x="334" y="720"/>
      <point x="376" y="670"/>
      <point x="364" y="600" type="curve" smooth="yes"/>
      <point x="352" y="530"/>
      <point x="292" y="480"/>
      <point x="224" y="480" type="curve" smooth="yes"/>
      <point x="156" y="480"/>
      <point x="114" y="530"/>
    </contour>
    <contour>
      <point x="154" y="600" type="curve" smooth="yes"/>
      <point x="144" y="545"/>
      <point x="177" y="507"/>
      <point x="228" y="507" type="curve" smooth="yes"/>
      <point x="279" y="507"/>
      <point x="326" y="545"/>
      <point x="336" y="600" type="curve" smooth="yes"/>
      <point x="346" y="655"/>
      <point x="312" y="693"/>
      <point x="261" y="693" type="curve" smooth="yes"/>
      <point x="210" y="693"/>
      <point x="164" y="655"/>
    </contour>
  </outline>
</glyph>
<glyph name="uni00B2" format="1">
  <advance width="340"/>
  <unicode hex="00B2"/>
  <outline>
    <contour>
      <point x="77" y="282" type="line"/>
      <point x="309" y="490" type="line" smooth="yes"/>
      <point x="342" y="520"/>
      <point x="369" y="549"/>
      <point x="376" y="589" type="curve" smooth="yes"/>
      <point x="383" y="630"/>
      <point x="365" y="678"/>
      <point x="303" y="678" type="curve" smooth="yes"/>
      <point x="242" y="678"/>
      <point x="193" y="630"/>
      <point x="180" y="558" type="curve"/>
      <point x="147" y="558" type="line"/>
      <point x="163" y="647"/>
      <point x="226" y="709"/>
      <point x="308" y="709" type="curve" smooth="yes"/>
      <point x="395" y="709"/>
      <point x="419" y="641"/>
      <point x="409" y="587" type="curve" smooth="yes"/>
      <point x="401" y="542"/>
      <point x="370" y="504"/>
      <point x="332" y="471" type="curve" smooth="yes"/>
      <point x="151" y="313" type="line"/>
      <point x="368" y="313" type="line"/>
      <point x="363" y="282" type="line"/>
    </contour>
  </outline>
</glyph>
<glyph name="paragraph" format="1">
  <advance width="526"/>
  <unicode hex="00B6"/>
  <outline>
    <contour>
      <point x="404" y="657" type="line"/>
      <point x="411" y="700" type="line"/>
      <point x="571" y="700" type="line"/>
      <point x="564" y="657" type="line"/>
    </contour>
    <contour>
      <point x="543" y="700" type="line"/>
      <point x="589" y="700" type="line"/>
      <point x="427" y="-220" type="line"/>
      <point x="381" y="-220" type="line"/>
    </contour>
    <contour>
      <point x="411" y="700" type="line"/>
      <point x="457" y="700" type="line"/>
      <point x="295" y="-220" type="line"/>
      <point x="249" y="-220" type="line"/>
    </contour>
    <contour>
      <point x="336" y="270" type="line"/>
      <point x="211" y="270"/>
      <point x="121" y="346"/>
      <point x="146" y="485" type="curve" smooth="yes"/>
      <point x="171" y="624"/>
      <point x="286" y="700"/>
      <point x="411" y="700" type="curve"/>
    </contour>
  </outline>
</glyph>
<glyph name="uni00B9" format="1">
  <advance width="470"/>
  <unicode hex="00B9"/>
  <outline>
    <contour>
      <point x="260" y="633" type="line"/>
      <point x="266" y="668" type="line"/>
      <point x="401" y="699" type="line"/>
      <point x="326" y="274" type="line"/>
      <point x="293" y="274" type="line"/>
      <point x="361" y="659" type="line"/>
    </contour>
  </outline>
</glyph>
<glyph name="ordmasculine" format="1">
  <advance width="278"/>
  <unicode hex="00BA"/>
  <outline>
    <contour>
      <point x="122" y="580" type="curve" smooth="yes"/>
      <point x="134" y="650"/>
      <point x="194" y="700"/>
      <point x="262" y="700" type="curve" smooth="yes"/>
      <point x="330" y="700"/>
      <point x="372" y="650"/>
      <point x="360" y="580" type="curve" smooth="yes"/>
      <point x="348" y="510"/>
      <point x="288" y="460"/>
      <point x="220" y="460" type="curve" smooth="yes"/>
      <point x="152" y="460"/>
      <point x="110" y="510"/>
    </contour>
    <contour>
      <point x="150" y="580" type="curve" smooth="yes"/>
      <point x="140" y="525"/>
      <point x="174" y="487"/>
      <point x="225" y="487" type="curve" smooth="yes"/>
      <point x="276" y="487"/>
      <point x="322" y="525"/>
      <point x="332" y="580" type="curve" smooth="yes"/>
      <point x="342" y="635"/>
      <point x="309" y="673"/>
      <point x="258" y="673" type="curve" smooth="yes"/>
      <point x="207" y="673"/>
      <point x="160" y="635"/>
    </contour>
  </outline>
</glyph>
<glyph name="onehalf" format="1">
  <advance width="819"/>
  <unicode hex="00BD"/>
  <outline>
    <contour>
      <point x="762" y="700" type="line"/>
      <point x="806" y="700" type="line"/>
      <point x="142" y="0" type="line"/>
      <point x="98" y="0" type="line"/>
    </contour>
    <contour>
      <point x="138" y="633" type="line"/>
      <point x="144" y="668" type="line"/>
      <point x="279" y="699" type="line"/>
      <point x="204" y="274" type="line"/>
      <point x="171" y="274" type="line"/>
      <point x="239" y="659" type="line"/>
    </contour>
    <contour>
      <point x="494" y="2" type="line"/>
      <point x="727" y="209" type="line" smooth="yes"/>
      <point x="760" y="239"/>
      <point x="786" y="269"/>
      <point x="793" y="309" type="curve" smooth="yes"/>
      <point x="800" y="350"/>
      <point x="783" y="398"/>
      <point x="721" y="398" type="curve" smooth="yes"/>
      <point x="660" y="398"/>
      <point x="611" y="350"/>
      <point x="598" y="278" type="curve"/>
      <point x="565" y="278" type="line"/>
      <point x="581" y="367"/>
      <point x="645" y="429"/>
      <point x="727" y="429" type="curve" smooth="yes"/>
      <point x="814" y="429"/>
      <point x="837" y="360"/>
      <point x="827" y="306" type="curve" smooth="yes"/>
      <point x="819" y="261"/>
      <point x="788" y="224"/>
      <point x="750" y="191" type="curve" smooth="yes"/>
      <point x="569" y="33" type="line"/>
      <point x="787" y="33" type="line"/>
      <point x="781" y="2" type="line"/>
    </contour>
  </outline>
</glyph>
<glyph name="threequarters" format="1">
  <advance width="820"/>
  <unicode hex="00BE"/>
  <outline>
    <contour>
      <point x="829" y="700" type="line"/>
      <point x="873" y="700" type="line"/>
      <point x="209" y="0" type="line"/>
      <point x="165" y="0" type="line"/>
    </contour>
    <contour>
      <point x="233" y="491" type="curve"/>
      <point x="236" y="513" type="line"/>
      <point x="290" y="513"/>
      <point x="343" y="547"/>
      <point x="352" y="596" type="curve" smooth="yes"/>
      <point x="360" y="640"/>
      <point x="338" y="676"/>
      <point x="286" y="676" type="curve" smooth="yes"/>
      <point x="237" y="676"/>
      <point x="195" y="643"/>
      <point x="187" y="596" type="curve"/>
      <point x="155" y="596" type="line"/>
      <point x="166" y="661"/>
      <point x="222" y="706"/>
      <point x="291" y="706" type="curve" smooth="yes"/>
      <point x="363" y="706"/>
      <point x="395" y="653"/>
      <point x="385" y="596" type="curve" smooth="yes"/>
      <point x="374" y="535"/>
      <point x="307" y="491"/>
    </contour>
    <contour>
      <point x="212" y="274" type="curve" smooth="yes"/>
      <point x="131" y="274"/>
      <point x="90" y="326"/>
      <point x="101" y="391" type="curve"/>
      <point x="135" y="391" type="line"/>
      <point x="126" y="341"/>
      <point x="158" y="305"/>
      <point x="218" y="305" type="curve" smooth="yes"/>
      <point x="276" y="305"/>
      <point x="319" y="340"/>
      <point x="328" y="392" type="curve" smooth="yes"/>
      <point x="339" y="453"/>
      <point x="285" y="483"/>
      <point x="231" y="483" type="curve"/>
      <point x="235" y="505" type="line"/>
      <point x="309" y="505"/>
      <point x="375" y="470"/>
      <point x="361" y="389" type="curve" smooth="yes"/>
      <point x="349" y="320"/>
      <point x="287" y="274"/>
    </contour>
    <contour>
      <point x="481" y="84" type="line"/>
      <point x="514" y="113" type="line"/>
      <point x="711" y="113" type="line" smooth="yes"/>
      <point x="718" y="113" type="line" smooth="yes"/>
      <point x="797" y="113" type="line"/>
      <point x="792" y="84" type="line"/>
    </contour>
    <contour>
      <point x="516" y="84" type="line"/>
      <point x="481" y="84" type="line"/>
      <point x="772" y="420" type="line"/>
      <point x="785" y="420" type="line"/>
      <point x="711" y="0" type="line"/>
      <point x="678" y="0" type="line"/>
      <point x="695" y="98" type="line" smooth="yes"/>
      <point x="696" y="102" type="line" smooth="yes"/>
      <point x="739" y="344" type="line"/>
    </contour>
  </outline>
</glyph>
<glyph name="questiondown" format="1">
  <advance width="551"/>
  <unicode hex="00BF"/>
  <outline>
    <contour>
      <point x="467" y="676" type="curve" smooth="yes"/>
      <point x="463" y="655"/>
      <point x="443" y="638"/>
      <point x="423" y="638" type="curve" smooth="yes"/>
      <point x="403" y="638"/>
      <point x="389" y="655"/>
      <point x="393" y="676" type="curve" smooth="yes"/>
      <point x="397" y="697"/>
      <point x="417" y="713"/>
      <point x="437" y="713" type="curve" smooth="yes"/>
      <point x="457" y="713"/>
      <point x="471" y="697"/>
    </contour>
    <contour>
      <point x="406" y="355" type="line"/>
      <point x="348" y="355" type="line"/>
      <point x="383" y="530" type="line"/>
      <point x="422" y="530" type="line"/>
    </contour>
    <contour>
      <point x="155" y="192" type="curve" smooth="yes"/>
      <point x="139" y="100"/>
      <point x="189" y="39"/>
      <point x="291" y="39" type="curve" smooth="yes"/>
      <point x="368" y="39"/>
      <point x="424" y="76"/>
      <point x="470" y="134" type="curve"/>
      <point x="508" y="107" type="line"/>
      <point x="450" y="37"/>
      <point x="387" y="-10"/>
      <point x="276" y="-10" type="curve" smooth="yes"/>
      <point x="151" y="-10"/>
      <point x="82" y="77"/>
      <point x="102" y="192" type="curve" smooth="yes"/>
      <point x="122" y="303"/>
      <point x="243" y="391"/>
      <point x="364" y="391" type="curve"/>
      <point x="391" y="355" type="line"/>
      <point x="267" y="355"/>
      <point x="170" y="276"/>
    </contour>
  </outline>
</glyph>
<glyph name="Agrave" format="1">
  <advance width="636"/>
  <unicode hex="00C0"/>
  <outline>
    <contour>
      <point x="180" y="235" type="line"/>
      <point x="208" y="287" type="line"/>
      <point x="532" y="287" type="line"/>
      <point x="540" y="235" type="line"/>
    </contour>
    <contour>
      <point x="424" y="600" type="line"/>
      <point x="229" y="269" type="line"/>
      <point x="221" y="257" type="line"/>
      <point x="71" y="0" type="line"/>
      <point x="9" y="0" type="line"/>
      <point x="446" y="727" type="line"/>
      <point x="627" y="0" type="line"/>
      <point x="565" y="0" type="line"/>
      <point x="506" y="253" type="line"/>
      <point x="503" y="266" type="line"/>
    </contour>
    <contour>
      <point x="352" y="940" type="line"/>
      <point x="405" y="967" type="line"/>
      <point x="534" y="807" type="line"/>
      <point x="502" y="787" type="line"/>
    </contour>
  </outline>
</glyph>
<glyph name="Acircumflex" format="1">
  <advance width="636"/>
  <unicode hex="00C2"/>
  <outline>
    <contour>
      <point x="180" y="235" type="line"/>
      <point x="208" y="287" type="line"/>
      <point x="532" y="287" type="line"/>
      <point x="540" y="235" type="line"/>
    </contour>
    <contour>
      <point x="424" y="600" type="line"/>
      <point x="229" y="269" type="line"/>
      <point x="221" y="257" type="line"/>
      <point x="71" y="0" type="line"/>
      <point x="9" y="0" type="line"/>
      <point x="446" y="727" type="line"/>
      <point x="627" y="0" type="line"/>
      <point x="565" y="0" type="line"/>
      <point x="506" y="253" type="line"/>
      <point x="503" y="266" type="line"/>
    </contour>
    <contour>
      <point x="472" y="874" type="line"/>
      <point x="326" y="763" type="line"/>
      <point x="297" y="790" type="line"/>
      <point x="482" y="930" type="line"/>
      <point x="617" y="790" type="line"/>
      <point x="580" y="763" type="line"/>
    </contour>
  </outline>
</glyph>
<glyph name="Adieresis" format="1">
  <advance width="636"/>
  <unicode hex="00C4"/>
  <outline>
    <contour>
      <point x="180" y="235" type="line"/>
      <point x="208" y="287" type="line"/>
      <point x="532" y="287" type="line"/>
      <point x="540" y="235" type="line"/>
    </contour>
    <contour>
      <point x="424" y="600" type="line"/>
      <point x="229" y="269" type="line"/>
      <point x="221" y="257" type="line"/>
      <point x="71" y="0" type="line"/>
      <point x="9" y="0" type="line"/>
      <point x="446" y="727" type="line"/>
      <point x="627" y="0" type="line"/>
      <point x="565" y="0" type="line"/>
      <point x="506" y="253" type="line"/>
      <point x="503" y="266" type="line"/>
    </contour>
    <contour>
      <point x="528" y="832" type="curve" smooth="yes"/>
      <point x="532" y="853"/>
      <point x="551" y="870"/>
      <point x="571" y="870" type="curve" smooth="yes"/>
      <point x="591" y="870"/>
      <point x="606" y="853"/>
      <point x="602" y="832" type="curve" smooth="yes"/>
      <point x="598" y="811"/>
      <point x="578" y="795"/>
      <point x="558" y="795" type="curve" smooth="yes"/>
      <point x="538" y="795"/>
      <point x="524" y="811"/>
    </contour>
    <contour>
      <point x="328" y="832" type="curve" smooth="yes"/>
      <point x="332" y="853"/>
      <point x="351" y="870"/>
      <point x="371" y="870" type="curve" smooth="yes"/>
      <point x="391" y="870"/>
      <point x="406" y="853"/>
      <point x="402" y="832" type="curve" smooth="yes"/>
      <point x="398" y="811"/>
      <point x="378" y="795"/>
      <point x="358" y="795" type="curve" smooth="yes"/>
      <point x="338" y="795"/>
      <point x="324" y="811"/>
    </contour>
  </outline>
</glyph>
<glyph name="Ccedilla" format="1">
  <advance width="685"/>
  <unicode hex="00C7"/>
  <outline>
    <contour>
      <point x="165" y="350" type="curve" smooth="yes"/>
      <point x="134" y="172"/>
      <point x="236" y="47"/>
      <point x="394" y="47" type="curve" smooth="yes"/>
      <point x="493" y="47"/>
      <point x="572" y="83"/>
      <point x="636" y="143" type="curve"/>
      <point x="623" y="69" type="line"/>
      <point x="555" y="17"/>
      <point x="486" y="-9"/>
      <point x="384" y="-9" type="curve" smooth="yes"/>
      <point x="190" y="-9"/>
      <point x="69" y="141"/>
      <point x="106" y="350" type="curve" smooth="yes"/>
      <point x="143" y="559"/>
      <point x="317" y="709"/>
      <point x="511" y="709" type="curve" smooth="yes"/>
      <point x="613" y="709"/>
      <point x="672" y="683"/>
      <point x="722" y="631" type="curve"/>
      <point x="709" y="558" type="line"/>
      <point x="668" y="618"/>
      <point x="598" y="653"/>
      <point x="501" y="653" type="curve" smooth="yes"/>
      <point x="344" y="653"/>
      <point x="197" y="529"/>
    </contour>
    <contour>
      <point x="396" y="34" type="line"/>
      <point x="437" y="34" type="line"/>
      <point x="359" y="-65" type="line"/>
      <point x="299" y="-102" type="line"/>
    </contour>
    <contour>
      <point x="454" y="-128" type="curve"/>
      <point x="415" y="-128" type="line"/>
      <point x="421" y="-96"/>
      <point x="401" y="-81"/>
      <point x="369" y="-81" type="curve" smooth="yes"/>
      <point x="351" y="-81"/>
      <point x="325" y="-86"/>
      <point x="299" y="-102" type="curve"/>
      <point x="332" y="-73" type="line"/>
      <point x="361" y="-57"/>
      <point x="373" y="-54"/>
      <point x="394" y="-54" type="curve" smooth="yes"/>
      <point x="427" y="-54"/>
      <point x="463" y="-79"/>
    </contour>
    <contour>
      <point x="454" y="-128" type="line"/>
      <point x="443" y="-189"/>
      <point x="386" y="-222"/>
      <point x="331" y="-222" type="curve" smooth="yes"/>
      <point x="294" y="-222"/>
      <point x="272" y="-212"/>
      <point x="249" y="-184" type="curve"/>
      <point x="275" y="-158" type="line"/>
      <point x="295" y="-177"/>
      <point x="308" y="-186"/>
      <point x="337" y="-186" type="curve" smooth="yes"/>
      <point x="376" y="-186"/>
      <point x="408" y="-165"/>
      <point x="415" y="-128" type="curve"/>
    </contour>
  </outline>
</glyph>
<glyph name="Ecircumflex" format="1">
  <advance width="534"/>
  <unicode hex="00CA"/>
  <outline>
    <contour>
      <point x="113" y="0" type="line"/>
      <point x="122" y="52" type="line"/>
      <point x="469" y="52" type="line"/>
      <point x="460" y="0" type="line"/>
    </contour>
    <contour>
      <point x="227" y="648" type="line"/>
      <point x="236" y="700" type="line"/>
      <point x="583" y="700" type="line"/>
      <point x="574" y="648" type="line"/>
    </contour>
    <contour>
      <point x="176" y="358" type="line"/>
      <point x="185" y="410" type="line"/>
      <point x="512" y="410" type="line"/>
      <point x="503" y="358" type="line"/>
    </contour>
    <contour>
      <point x="207" y="700" type="line"/>
      <point x="262" y="700" type="line"/>
      <point x="139" y="0" type="line"/>
      <point x="84" y="0" type="line"/>
    </contour>
    <contour>
      <point x="433" y="880" type="line"/>
      <point x="287" y="769" type="line"/>
      <point x="258" y="796" type="line"/>
      <point x="443" y="936" type="line"/>
      <point x="578" y="796" type="line"/>
      <point x="541" y="769" type="line"/>
    </contour>
  </outline>
</glyph>
<glyph name="Edieresis" format="1">
  <advance width="534"/>
  <unicode hex="00CB"/>
  <outline>
    <contour>
      <point x="113" y="0" type="line"/>
      <point x="122" y="52" type="line"/>
      <point x="469" y="52" type="line"/>
      <point x="460" y="0" type="line"/>
    </contour>
    <contour>
      <point x="227" y="648" type="line"/>
      <point x="236" y="700" type="line"/>
      <point x="583" y="700" type="line"/>
      <point x="574" y="648" type="line"/>
    </contour>
    <contour>
      <point x="176" y="358" type="line"/>
      <point x="185" y="410" type="line"/>
      <point x="512" y="410" type="line"/>
      <point x="503" y="358" type="line"/>
    </contour>
    <contour>
      <point x="207" y="700" type="line"/>
      <point x="262" y="700" type="line"/>
      <point x="139" y="0" type="line"/>
      <point x="84" y="0" type="line"/>
    </contour>
    <contour>
      <point x="487" y="827" type="curve" smooth="yes"/>
      <point x="491" y="848"/>
      <point x="510" y="864"/>
      <point x="530" y="864" type="curve" smooth="yes"/>
      <point x="550" y="864"/>
      <point x="565" y="848"/>
      <point x="561" y="827" type="curve" smooth="yes"/>
      <point x="557" y="806"/>
      <point x="537" y="789"/>
      <point x="517" y="789" type="curve" smooth="yes"/>
      <point x="497" y="789"/>
      <point x="483" y="806"/>
    </contour>
    <contour>
      <point x="287" y="827" type="curve" smooth="yes"/>
      <point x="291" y="848"/>
      <point x="310" y="864"/>
      <point x="330" y="864" type="curve" smooth="yes"/>
      <point x="350" y="864"/>
      <point x="365" y="848"/>
      <point x="361" y="827" type="curve" smooth="yes"/>
      <point x="357" y="806"/>
      <point x="337" y="789"/>
      <point x="317" y="789" type="curve" smooth="yes"/>
      <point x="297" y="789"/>
      <point x="283" y="806"/>
    </contour>
  </outline>
</glyph>
<glyph name="Igrave" format="1">
  <advance width="219"/>
  <unicode hex="00CC"/>
  <outline>
    <contour>
      <point x="205" y="700" type="line"/>
      <point x="260" y="700" type="line"/>
      <point x="137" y="0" type="line"/>
      <point x="82" y="0" type="line"/>
    </contour>
    <contour>
      <point x="132" y="922" type="line"/>
      <point x="185" y="949" type="line"/>
      <point x="315" y="789" type="line"/>
      <point x="282" y="769" type="line"/>
    </contour>
  </outline>
</glyph>
<glyph name="Icircumflex" format="1">
  <advance width="219"/>
  <unicode hex="00CE"/>
  <outline>
    <contour>
      <point x="205" y="700" type="line"/>
      <point x="260" y="700" type="line"/>
      <point x="137" y="0" type="line"/>
      <point x="82" y="0" type="line"/>
    </contour>
    <contour>
      <point x="264" y="880" type="line"/>
      <point x="118" y="769" type="line"/>
      <point x="89" y="796" type="line"/>
      <point x="274" y="936" type="line"/>
      <point x="409" y="796" type="line"/>
      <point x="372" y="769" type="line"/>
    </contour>
  </outline>
</glyph>
<glyph name="multiply" format="1">
  <advance width="588"/>
  <unicode hex="00D7"/>
  <outline>
    <contour>
      <point x="114" y="32" type="line"/>
      <point x="83" y="68" type="line"/>
      <point x="306" y="255" type="line"/>
      <point x="149" y="442" type="line"/>
      <point x="191" y="478" type="line"/>
      <point x="345" y="288" type="line"/>
      <point x="565" y="478" type="line"/>
      <point x="596" y="442" type="line"/>
      <point x="372" y="255" type="line"/>
      <point x="529" y="68" type="line"/>
      <point x="487" y="32" type="line"/>
      <point x="333" y="222" type="line"/>
    </contour>
  </outline>
</glyph>
<glyph name="Oslash" format="1">
  <advance width="790"/>
  <unicode hex="00D8"/>
  <outline>
    <contour>
      <point x="164" y="350" type="curve" smooth="yes"/>
      <point x="133" y="175"/>
      <point x="232" y="46"/>
      <point x="400" y="46" type="curve" smooth="yes"/>
      <point x="568" y="46"/>
      <point x="712" y="175"/>
      <point x="743" y="350" type="curve" smooth="yes"/>
      <point x="774" y="525"/>
      <point x="675" y="654"/>
      <point x="507" y="654" type="curve" smooth="yes"/>
      <point x="339" y="654"/>
      <point x="195" y="525"/>
    </contour>
    <contour>
      <point x="106" y="350" type="curve" smooth="yes"/>
      <point x="142" y="556"/>
      <point x="317" y="709"/>
      <point x="517" y="709" type="curve" smooth="yes"/>
      <point x="717" y="709"/>
      <point x="838" y="556"/>
      <point x="802" y="350" type="curve" smooth="yes"/>
      <point x="766" y="144"/>
      <point x="590" y="-9"/>
      <point x="390" y="-9" type="curve" smooth="yes"/>
      <point x="190" y="-9"/>
      <point x="70" y="144"/>
    </contour>
    <contour>
      <point x="829" y="743" type="line"/>
      <point x="863" y="717" type="line"/>
      <point x="80" y="-43" type="line"/>
      <point x="47" y="-17" type="line"/>
    </contour>
  </outline>
</glyph>
<glyph name="Udieresis" format="1">
  <advance width="606"/>
  <unicode hex="00DC"/>
  <outline>
    <contour>
      <point x="202" y="700" type="line"/>
      <point x="257" y="700" type="line"/>
      <point x="174" y="226" type="line" smooth="yes"/>
      <point x="154" y="114"/>
      <point x="202" y="42"/>
      <point x="310" y="42" type="curve" smooth="yes"/>
      <point x="418" y="42"/>
      <point x="492" y="114"/>
      <point x="512" y="226" type="curve" smooth="yes"/>
      <point x="595" y="700" type="line"/>
      <point x="650" y="700" type="line"/>
      <point x="567" y="226" type="line" smooth="yes"/>
      <point x="542" y="87"/>
      <point x="442" y="-10"/>
      <point x="301" y="-10" type="curve" smooth="yes"/>
      <point x="160" y="-10"/>
      <point x="94" y="87"/>
      <point x="119" y="226" type="curve" smooth="yes"/>
    </contour>
    <contour>
      <point x="504" y="807" type="curve" smooth="yes"/>
      <point x="508" y="828"/>
      <point x="528" y="844"/>
      <point x="548" y="844" type="curve" smooth="yes"/>
      <point x="568" y="844"/>
      <point x="582" y="828"/>
      <point x="578" y="807" type="curve" smooth="yes"/>
      <point x="574" y="786"/>
      <point x="555" y="769"/>
      <point x="535" y="769" type="curve" smooth="yes"/>
      <point x="515" y="769"/>
      <point x="500" y="786"/>
    </contour>
    <contour>
      <point x="312" y="807" type="curve" smooth="yes"/>
      <point x="316" y="828"/>
      <point x="336" y="844"/>
      <point x="356" y="844" type="curve" smooth="yes"/>
      <point x="376" y="844"/>
      <point x="390" y="828"/>
      <point x="386" y="807" type="curve" smooth="yes"/>
      <point x="382" y="786"/>
      <point x="363" y="769"/>
      <point x="343" y="769" type="curve" smooth="yes"/>
      <point x="323" y="769"/>
      <point x="308" y="786"/>
    </contour>
  </outline>
</glyph>
<glyph name="acircumflex" format="1">
  <advance width="558"/>
  <unicode hex="00E2"/>
  <outline>
    <contour>
      <point x="517" y="460" type="line"/>
      <point x="566" y="460" type="line"/>
      <point x="484" y="0" type="line"/>
      <point x="435" y="0" type="line"/>
    </contour>
    <contour>
      <point x="80" y="230" type="curve" smooth="yes"/>
      <point x="106" y="378"/>
      <point x="221" y="470"/>
      <point x="344" y="470" type="curve" smooth="yes"/>
      <point x="462" y="470"/>
      <point x="521" y="367"/>
      <point x="497" y="230" type="curve" smooth="yes"/>
      <point x="473" y="93"/>
      <point x="377" y="-10"/>
      <point x="259" y="-10" type="curve" smooth="yes"/>
      <point x="136" y="-10"/>
      <point x="54" y="82"/>
    </contour>
    <contour>
      <point x="132" y="230" type="curve" smooth="yes"/>
      <point x="111" y="110"/>
      <point x="178" y="39"/>
      <point x="275" y="39" type="curve" smooth="yes"/>
      <point x="361" y="39"/>
      <point x="454" y="120"/>
      <point x="473" y="230" type="curve" smooth="yes"/>
      <point x="492" y="340"/>
      <point x="428" y="421"/>
      <point x="342" y="421" type="curve" smooth="yes"/>
      <point x="245" y="421"/>
      <point x="153" y="350"/>
    </contour>
    <contour>
      <point x="387" y="649" type="line"/>
      <point x="241" y="538" type="line"/>
      <point x="213" y="565" type="line"/>
      <point x="397" y="705" type="line"/>
      <point x="533" y="565" type="line"/>
      <point x="495" y="538" type="line"/>
    </contour>
  </outline>
</glyph>
<glyph name="atilde" format="1">
  <advance width="558"/>
  <unicode hex="00E3"/>
  <outline>
    <contour>
      <point x="517" y="460" type="line"/>
      <point x="566" y="460" type="line"/>
      <point x="484" y="0" type="line"/>
      <point x="435" y="0" type="line"/>
    </contour>
    <contour>
      <point x="80" y="230" type="curve" smooth="yes"/>
      <point x="106" y="378"/>
      <point x="221" y="470"/>
      <point x="344" y="470" type="curve" smooth="yes"/>
      <point x="462" y="470"/>
      <point x="521" y="367"/>
      <point x="497" y="230" type="curve" smooth="yes"/>
      <point x="473" y="93"/>
      <point x="377" y="-10"/>
      <point x="259" y="-10" type="curve" smooth="yes"/>
      <point x="136" y="-10"/>
      <point x="54" y="82"/>
    </contour>
    <contour>
      <point x="132" y="230" type="curve" smooth="yes"/>
      <point x="111" y="110"/>
      <point x="178" y="39"/>
      <point x="275" y="39" type="curve" smooth="yes"/>
      <point x="361" y="39"/>
      <point x="454" y="120"/>
      <point x="473" y="230" type="curve" smooth="yes"/>
      <point x="492" y="340"/>
      <point x="428" y="421"/>
      <point x="342" y="421" type="curve" smooth="yes"/>
      <point x="245" y="421"/>
      <point x="153" y="350"/>
    </contour>
    <contour>
      <point x="222" y="561" type="line"/>
      <point x="235" y="602"/>
      <point x="277" y="633"/>
      <point x="322" y="633" type="curve" smooth="yes"/>
      <point x="383" y="633"/>
      <point x="384" y="586"/>
      <point x="438" y="586" type="curve" smooth="yes"/>
      <point x="461" y="586"/>
      <point x="479" y="602"/>
      <point x="503" y="634" type="curve"/>
      <point x="529" y="607" type="line"/>
      <point x="506" y="570"/>
      <point x="470" y="542"/>
      <point x="428" y="542" type="curve" smooth="yes"/>
      <point x="373" y="542"/>
      <point x="360" y="589"/>
      <point x="315" y="589" type="curve" smooth="yes"/>
      <point x="274" y="589"/>
      <point x="257" y="557"/>
      <point x="254" y="538" type="curve"/>
    </contour>
  </outline>
</glyph>
<glyph name="adieresis" format="1">
  <advance width="558"/>
  <unicode hex="00E4"/>
  <outline>
    <contour>
      <point x="517" y="460" type="line"/>
      <point x="566" y="460" type="line"/>
      <point x="484" y="0" type="line"/>
      <point x="435" y="0" type="line"/>
    </contour>
    <contour>
      <point x="80" y="230" type="curve" smooth="yes"/>
      <point x="106" y="378"/>
      <point x="221" y="470"/>
      <point x="344" y="470" type="curve" smooth="yes"/>
      <point x="462" y="470"/>
      <point x="521" y="367"/>
      <point x="497" y="230" type="curve" smooth="yes"/>
      <point x="473" y="93"/>
      <point x="377" y="-10"/>
      <point x="259" y="-10" type="curve" smooth="yes"/>
      <point x="136" y="-10"/>
      <point x="54" y="82"/>
    </contour>
    <contour>
      <point x="132" y="230" type="curve" smooth="yes"/>
      <point x="111" y="110"/>
      <point x="178" y="39"/>
      <point x="275" y="39" type="curve" smooth="yes"/>
      <point x="361" y="39"/>
      <point x="454" y="120"/>
      <point x="473" y="230" type="curve" smooth="yes"/>
      <point x="492" y="340"/>
      <point x="428" y="421"/>
      <point x="342" y="421" type="curve" smooth="yes"/>
      <point x="245" y="421"/>
      <point x="153" y="350"/>
    </contour>
    <contour>
      <point x="443" y="587" type="curve" smooth="yes"/>
      <point x="447" y="608"/>
      <point x="467" y="625"/>
      <point x="487" y="625" type="curve" smooth="yes"/>
      <point x="507" y="625"/>
      <point x="522" y="608"/>
      <point x="518" y="587" type="curve" smooth="yes"/>
      <point x="514" y="566"/>
      <point x="494" y="550"/>
      <point x="474" y="550" type="curve" smooth="yes"/>
      <point x="454" y="550"/>
      <point x="439" y="566"/>
    </contour>
    <contour>
      <point x="243" y="587" type="curve" smooth="yes"/>
      <point x="247" y="608"/>
      <point x="267" y="625"/>
      <point x="287" y="625" type="curve" smooth="yes"/>
      <point x="307" y="625"/>
      <point x="322" y="608"/>
      <point x="318" y="587" type="curve" smooth="yes"/>
      <point x="314" y="566"/>
      <point x="294" y="550"/>
      <point x="274" y="550" type="curve" smooth="yes"/>
      <point x="254" y="550"/>
      <point x="239" y="566"/>
    </contour>
  </outline>
</glyph>
<glyph name="aring" format="1">
  <advance width="558"/>
  <unicode hex="00E5"/>
  <outline>
    <contour>
      <point x="517" y="460" type="line"/>
      <point x="566" y="460" type="line"/>
      <point x="484" y="0" type="line"/>
      <point x="435" y="0" type="line"/>
    </contour>
    <contour>
      <point x="80" y="230" type="curve" smooth="yes"/>
      <point x="106" y="378"/>
      <point x="221" y="470"/>
      <point x="344" y="470" type="curve" smooth="yes"/>
      <point x="462" y="470"/>
      <point x="521" y="367"/>
      <point x="497" y="230" type="curve" smooth="yes"/>
      <point x="473" y="93"/>
      <point x="377" y="-10"/>
      <point x="259" y="-10" type="curve" smooth="yes"/>
      <point x="136" y="-10"/>
      <point x="54" y="82"/>
    </contour>
    <contour>
      <point x="132" y="230" type="curve" smooth="yes"/>
      <point x="111" y="110"/>
      <point x="178" y="39"/>
      <point x="275" y="39" type="curve" smooth="yes"/>
      <point x="361" y="39"/>
      <point x="454" y="120"/>
      <point x="473" y="230" type="curve" smooth="yes"/>
      <point x="492" y="340"/>
      <point x="428" y="421"/>
      <point x="342" y="421" type="curve" smooth="yes"/>
      <point x="245" y="421"/>
      <point x="153" y="350"/>
    </contour>
    <contour>
      <point x="282" y="630" type="curve" smooth="yes"/>
      <point x="293" y="690"/>
      <point x="350" y="730"/>
      <point x="402" y="730" type="curve" smooth="yes"/>
      <point x="454" y="730"/>
      <point x="497" y="690"/>
      <point x="486" y="630" type="curve" smooth="yes"/>
      <point x="475" y="570"/>
      <point x="418" y="530"/>
      <point x="366" y="530" type="curve" smooth="yes"/>
      <point x="314" y="530"/>
      <point x="271" y="570"/>
    </contour>
    <contour>
      <point x="317" y="630" type="curve" smooth="yes"/>
      <point x="310" y="589"/>
      <point x="338" y="562"/>
      <point x="372" y="562" type="curve" smooth="yes"/>
      <point x="406" y="562"/>
      <point x="444" y="589"/>
      <point x="451" y="630" type="curve" smooth="yes"/>
      <point x="458" y="671"/>
      <point x="430" y="698"/>
      <point x="396" y="698" type="curve" smooth="yes"/>
      <point x="362" y="698"/>
      <point x="324" y="671"/>
    </contour>
  </outline>
</glyph>
<glyph name="ae" format="1">
  <advance width="825"/>
  <unicode hex="00E6"/>
  <outline>
    <contour>
      <point x="111" y="134" type="curve" smooth="yes"/>
      <point x="101" y="77"/>
      <point x="131" y="37"/>
      <point x="209" y="37" type="curve" smooth="yes"/>
      <point x="292" y="37"/>
      <point x="365" y="89"/>
      <point x="380" y="175" type="curve"/>
      <point x="405" y="144" type="line"/>
      <point x="389" y="55"/>
      <point x="297" y="-10"/>
      <point x="200" y="-10" type="curve" smooth="yes"/>
      <point x="90" y="-10"/>
      <point x="43" y="46"/>
      <point x="57" y="128" type="curve" smooth="yes"/>
      <point x="75" y="230"/>
      <point x="167" y="284"/>
      <point x="276" y="284" type="curve" smooth="yes"/>
      <point x="360" y="284"/>
      <point x="399" y="244"/>
      <point x="410" y="229" type="curve"/>
      <point x="405" y="197" type="line"/>
      <point x="376" y="223"/>
      <point x="333" y="243"/>
      <point x="271" y="243" type="curve" smooth="yes"/>
      <point x="182" y="243"/>
      <point x="123" y="202"/>
    </contour>
    <contour>
      <point x="165" y="369" type="curve"/>
      <point x="146" y="409" type="line"/>
      <point x="184" y="436"/>
      <point x="244" y="470"/>
      <point x="327" y="470" type="curve" smooth="yes"/>
      <point x="424" y="470"/>
      <point x="461" y="413"/>
      <point x="446" y="330" type="curve" smooth="yes"/>
      <point x="413" y="142" type="line"/>
      <point x="374" y="142" type="line"/>
      <point x="405" y="320" type="line" smooth="yes"/>
      <point x="415" y="377"/>
      <point x="384" y="424"/>
      <point x="318" y="424" type="curve" smooth="yes"/>
      <point x="248" y="424"/>
      <point x="194" y="390"/>
    </contour>
    <contour>
      <point x="426" y="217" type="line"/>
      <point x="434" y="262" type="line"/>
      <point x="819" y="262" type="line"/>
      <point x="825" y="217" type="line"/>
    </contour>
    <contour>
      <point x="777" y="250" type="line" smooth="yes"/>
      <point x="796" y="355"/>
      <point x="740" y="424"/>
      <point x="650" y="424" type="curve" smooth="yes"/>
      <point x="550" y="424"/>
      <point x="465" y="350"/>
      <point x="447" y="250" type="curve"/>
      <point x="443" y="232" type="line"/>
      <point x="422" y="114"/>
      <point x="478" y="39"/>
      <point x="576" y="39" type="curve" smooth="yes"/>
      <point x="663" y="39"/>
      <point x="718" y="80"/>
      <point x="763" y="134" type="curve"/>
      <point x="800" y="107" type="line"/>
      <point x="742" y="37"/>
      <point x="680" y="-10"/>
      <point x="561" y="-10" type="curve" smooth="yes"/>
      <point x="440" y="-10"/>
      <point x="371" y="91"/>
      <point x="396" y="230" type="curve" smooth="yes"/>
      <point x="399" y="247"/>
      <point x="409" y="263"/>
      <point x="415" y="279" type="curve" smooth="yes"/>
      <point x="454" y="392"/>
      <point x="545" y="470"/>
      <point x="666" y="470" type="curve" smooth="yes"/>
      <point x="764" y="470"/>
      <point x="858" y="387"/>
      <point x="832" y="242" type="curve" smooth="yes"/>
      <point x="831" y="234"/>
      <point x="827" y="225"/>
      <point x="825" y="217" type="curve"/>
      <point x="774" y="230" type="line"/>
    </contour>
  </outline>
</glyph>
<glyph name="iacute" format="1">
  <advance width="232"/>
  <unicode hex="00ED"/>
  <outline>
    <contour>
      <point x="171" y="460" type="line"/>
      <point x="223" y="460" type="line"/>
      <point x="142" y="0" type="line"/>
      <point x="90" y="0" type="line"/>
    </contour>
    <contour>
      <point x="397" y="695" type="line"/>
      <point x="193" y="542" type="line"/>
      <point x="167" y="562" type="line"/>
      <point x="353" y="722" type="line"/>
    </contour>
  </outline>
</glyph>
<glyph name="icircumflex" format="1">
  <advance width="232"/>
  <unicode hex="00EE"/>
  <outline>
    <contour>
      <point x="171" y="460" type="line"/>
      <point x="223" y="460" type="line"/>
      <point x="142" y="0" type="line"/>
      <point x="90" y="0" type="line"/>
    </contour>
    <contour>
      <point x="230" y="647" type="line"/>
      <point x="84" y="536" type="line"/>
      <point x="55" y="563" type="line"/>
      <point x="240" y="703" type="line"/>
      <point x="375" y="563" type="line"/>
      <point x="338" y="536" type="line"/>
    </contour>
  </outline>
</glyph>
<glyph name="eth" format="1">
  <advance width="560"/>
  <unicode hex="00F0"/>
  <outline>
    <contour>
      <point x="497" y="226" type="curve" smooth="yes"/>
      <point x="515" y="326"/>
      <point x="458" y="408"/>
      <point x="348" y="408" type="curve" smooth="yes"/>
      <point x="252" y="408"/>
      <point x="161" y="330"/>
      <point x="143" y="226" type="curve" smooth="yes"/>
      <point x="124" y="118"/>
      <point x="183" y="40"/>
      <point x="287" y="40" type="curve" smooth="yes"/>
      <point x="393" y="40"/>
      <point x="478" y="121"/>
    </contour>
    <contour>
      <point x="353" y="700" type="line"/>
      <point x="527" y="377" type="line" smooth="yes"/>
      <point x="547" y="340"/>
      <point x="560" y="283"/>
      <point x="550" y="226" type="curve" smooth="yes"/>
      <point x="525" y="86"/>
      <point x="413" y="-10"/>
      <point x="278" y="-10" type="curve" smooth="yes"/>
      <point x="143" y="-10"/>
      <point x="65" y="86"/>
      <point x="90" y="226" type="curve" smooth="yes"/>
      <point x="112" y="351"/>
      <point x="222" y="449"/>
      <point x="336" y="449" type="curve" smooth="yes"/>
      <point x="393" y="449"/>
      <point x="436" y="433"/>
      <point x="462" y="392" type="curve"/>
      <point x="458" y="389" type="line"/>
      <point x="284" y="700" type="line"/>
    </contour>
    <contour>
      <point x="247" y="542" type="line"/>
      <point x="254" y="585" type="line"/>
      <point x="542" y="585" type="line"/>
      <point x="535" y="542" type="line"/>
    </contour>
  </outline>
</glyph>
<glyph name="otilde" format="1">
  <advance width="550"/>
  <unicode hex="00F5"/>
  <outline>
    <contour>
      <point x="80" y="230" type="curve" smooth="yes"/>
      <point x="105" y="369"/>
      <point x="224" y="470"/>
      <point x="358" y="470" type="curve" smooth="yes"/>
      <point x="492" y="470"/>
      <point x="577" y="369"/>
      <point x="552" y="230" type="curve" smooth="yes"/>
      <point x="527" y="91"/>
      <point x="407" y="-10"/>
      <point x="273" y="-10" type="curve" smooth="yes"/>
      <point x="139" y="-10"/>
      <point x="55" y="91"/>
    </contour>
    <contour>
      <point x="133" y="230" type="curve" smooth="yes"/>
      <point x="113" y="119"/>
      <point x="178" y="39"/>
      <point x="282" y="39" type="curve" smooth="yes"/>
      <point x="386" y="39"/>
      <point x="479" y="119"/>
      <point x="499" y="230" type="curve" smooth="yes"/>
      <point x="519" y="341"/>
      <point x="453" y="421"/>
      <point x="349" y="421" type="curve" smooth="yes"/>
      <point x="245" y="421"/>
      <point x="153" y="341"/>
    </contour>
    <contour>
      <point x="225" y="561" type="line"/>
      <point x="238" y="602"/>
      <point x="280" y="633"/>
      <point x="325" y="633" type="curve" smooth="yes"/>
      <point x="386" y="633"/>
      <point x="386" y="586"/>
      <point x="440" y="586" type="curve" smooth="yes"/>
      <point x="463" y="586"/>
      <point x="481" y="602"/>
      <point x="505" y="634" type="curve"/>
      <point x="531" y="607" type="line"/>
      <point x="508" y="570"/>
      <point x="472" y="542"/>
      <point x="430" y="542" type="curve" smooth="yes"/>
      <point x="375" y="542"/>
      <point x="362" y="589"/>
      <point x="317" y="589" type="curve" smooth="yes"/>
      <point x="276" y="589"/>
      <point x="259" y="557"/>
      <point x="256" y="538" type="curve"/>
    </contour>
  </outline>
</glyph>
<glyph name="odieresis" format="1">
  <advance width="550"/>
  <unicode hex="00F6"/>
  <outline>
    <contour>
      <point x="80" y="230" type="curve" smooth="yes"/>
      <point x="105" y="369"/>
      <point x="224" y="470"/>
      <point x="358" y="470" type="curve" smooth="yes"/>
      <point x="492" y="470"/>
      <point x="577" y="369"/>
      <point x="552" y="230" type="curve" smooth="yes"/>
      <point x="527" y="91"/>
      <point x="407" y="-10"/>
      <point x="273" y="-10" type="curve" smooth="yes"/>
      <point x="139" y="-10"/>
      <point x="55" y="91"/>
    </contour>
    <contour>
      <point x="133" y="230" type="curve" smooth="yes"/>
      <point x="113" y="119"/>
      <point x="178" y="39"/>
      <point x="282" y="39" type="curve" smooth="yes"/>
      <point x="386" y="39"/>
      <point x="479" y="119"/>
      <point x="499" y="230" type="curve" smooth="yes"/>
      <point x="519" y="341"/>
      <point x="453" y="421"/>
      <point x="349" y="421" type="curve" smooth="yes"/>
      <point x="245" y="421"/>
      <point x="153" y="341"/>
    </contour>
    <contour>
      <point x="443" y="593" type="curve" smooth="yes"/>
      <point x="447" y="614"/>
      <point x="466" y="631"/>
      <point x="486" y="631" type="curve" smooth="yes"/>
      <point x="506" y="631"/>
      <point x="521" y="614"/>
      <point x="517" y="593" type="curve" smooth="yes"/>
      <point x="513" y="572"/>
      <point x="493" y="556"/>
      <point x="473" y="556" type="curve" smooth="yes"/>
      <point x="453" y="556"/>
      <point x="439" y="572"/>
    </contour>
    <contour>
      <point x="243" y="593" type="curve" smooth="yes"/>
      <point x="247" y="614"/>
      <point x="266" y="631"/>
      <point x="286" y="631" type="curve" smooth="yes"/>
      <point x="306" y="631"/>
      <point x="321" y="614"/>
      <point x="317" y="593" type="curve" smooth="yes"/>
      <point x="313" y="572"/>
      <point x="293" y="556"/>
      <point x="273" y="556" type="curve" smooth="yes"/>
      <point x="253" y="556"/>
      <point x="239" y="572"/>
    </contour>
  </outline>
</glyph>
<glyph name="ugrave" format="1">
  <advance width="505"/>
  <unicode hex="00F9"/>
  <outline>
    <contour>
      <point x="374" y="0" type="line"/>
      <point x="455" y="460" type="line"/>
      <point x="507" y="460" type="line"/>
      <point x="426" y="0" type="line"/>
    </contour>
    <contour>
      <point x="161" y="168" type="line" smooth="yes"/>
      <point x="147" y="86"/>
      <point x="171" y="39"/>
      <point x="246" y="39" type="curve" smooth="yes"/>
      <point x="324" y="39"/>
      <point x="392" y="102"/>
      <point x="406" y="180" type="curve"/>
      <point x="430" y="180" type="line"/>
      <point x="411" y="71"/>
      <point x="320" y="-10"/>
      <point x="225" y="-10" type="curve" smooth="yes"/>
      <point x="130" y="-10"/>
      <point x="88" y="51"/>
      <point x="108" y="162" type="curve" smooth="yes"/>
      <point x="160" y="460" type="line"/>
      <point x="212" y="460" type="line"/>
    </contour>
    <contour>
      <point x="241" y="699" type="line"/>
      <point x="295" y="726" type="line"/>
      <point x="425" y="566" type="line"/>
      <point x="391" y="546" type="line"/>
    </contour>
  </outline>
</glyph>
<glyph name="udieresis" format="1">
  <advance width="505"/>
  <unicode hex="00FC"/>
  <outline>
    <contour>
      <point x="374" y="0" type="line"/>
      <point x="455" y="460" type="line"/>
      <point x="507" y="460" type="line"/>
      <point x="426" y="0" type="line"/>
    </contour>
    <contour>
      <point x="161" y="168" type="line" smooth="yes"/>
      <point x="147" y="86"/>
      <point x="171" y="39"/>
      <point x="246" y="39" type="curve" smooth="yes"/>
      <point x="324" y="39"/>
      <point x="392" y="102"/>
      <point x="406" y="180" type="curve"/>
      <point x="430" y="180" type="line"/>
      <point x="411" y="71"/>
      <point x="320" y="-10"/>
      <point x="225" y="-10" type="curve" smooth="yes"/>
      <point x="130" y="-10"/>
      <point x="88" y="51"/>
      <point x="108" y="162" type="curve" smooth="yes"/>
      <point x="160" y="460" type="line"/>
      <point x="212" y="460" type="line"/>
    </contour>
    <contour>
      <point x="411" y="587" type="curve" smooth="yes"/>
      <point x="415" y="608"/>
      <point x="434" y="625"/>
      <point x="454" y="625" type="curve" smooth="yes"/>
      <point x="474" y="625"/>
      <point x="490" y="608"/>
      <point x="486" y="587" type="curve" smooth="yes"/>
      <point x="482" y="566"/>
      <point x="461" y="550"/>
      <point x="441" y="550" type="curve" smooth="yes"/>
      <point x="421" y="550"/>
      <point x="407" y="566"/>
    </contour>
    <contour>
      <point x="227" y="587" type="curve" smooth="yes"/>
      <point x="231" y="608"/>
      <point x="250" y="625"/>
      <point x="270" y="625" type="curve" smooth="yes"/>
      <point x="290" y="625"/>
      <point x="306" y="608"/>
      <point x="302" y="587" type="curve" smooth="yes"/>
      <point x="298" y="566"/>
      <point x="277" y="550"/>
      <point x="257" y="550" type="curve" smooth="yes"/>
      <point x="237" y="550"/>
      <point x="223" y="566"/>
    </contour>
  </outline>
</glyph>
<glyph name="thorn" format="1">
  <advance width="558"/>
  <unicode hex="00FE"/>
  <outline>
    <contour>
      <point x="87" y="-220" type="line"/>
      <point x="35" y="-220" type="line"/>
      <point x="212" y="780" type="line"/>
      <point x="264" y="780" type="line"/>
    </contour>
    <contour>
      <point x="560" y="230" type="curve" smooth="yes"/>
      <point x="534" y="82"/>
      <point x="419" y="-10"/>
      <point x="296" y="-10" type="curve" smooth="yes"/>
      <point x="178" y="-10"/>
      <point x="119" y="93"/>
      <point x="143" y="230" type="curve" smooth="yes"/>
      <point x="167" y="367"/>
      <point x="262" y="470"/>
      <point x="380" y="470" type="curve" smooth="yes"/>
      <point x="503" y="470"/>
      <point x="586" y="378"/>
    </contour>
    <contour>
      <point x="507" y="230" type="curve" smooth="yes"/>
      <point x="528" y="350"/>
      <point x="461" y="421"/>
      <point x="364" y="421" type="curve" smooth="yes"/>
      <point x="278" y="421"/>
      <point x="186" y="340"/>
      <point x="167" y="230" type="curve" smooth="yes"/>
      <point x="148" y="120"/>
      <point x="211" y="39"/>
      <point x="297" y="39" type="curve" smooth="yes"/>
      <point x="394" y="39"/>
      <point x="486" y="110"/>
    </contour>
  </outline>
</glyph>
<glyph name="ydieresis" format="1">
  <advance width="434"/>
  <unicode hex="00FF"/>
  <outline>
    <contour>
      <point x="511" y="460" type="line"/>
      <point x="91" y="-220" type="line"/>
      <point x="33" y="-220" type="line"/>
      <point x="198" y="47" type="line"/>
      <point x="85" y="460" type="line"/>
      <point x="147" y="460" type="line"/>
      <point x="245" y="68" type="line"/>
      <point x="221" y="70" type="line"/>
      <point x="453" y="460" type="line"/>
    </contour>
    <contour>
      <point x="373" y="575" type="curve" smooth="yes"/>
      <point x="377" y="596"/>
      <point x="397" y="613"/>
      <point x="417" y="613" type="curve" smooth="yes"/>
      <point x="437" y="613"/>
      <point x="451" y="596"/>
      <point x="447" y="575" type="curve" smooth="yes"/>
      <point x="443" y="554"/>
      <point x="424" y="538"/>
      <point x="404" y="538" type="curve" smooth="yes"/>
      <point x="384" y="538"/>
      <point x="369" y="554"/>
    </contour>
    <contour>
      <point x="189" y="575" type="curve" smooth="yes"/>
      <point x="193" y="596"/>
      <point x="213" y="613"/>
      <point x="233" y="613" type="curve" smooth="yes"/>
      <point x="253" y="613"/>
      <point x="267" y="596"/>
      <point x="263" y="575" type="curve" smooth="yes"/>
      <point x="259" y="554"/>
      <point x="240" y="538"/>
      <point x="220" y="538" type="curve" smooth="yes"/>
      <point x="200" y="538"/>
      <point x="185" y="554"/>
    </contour>
  </outline>
</glyph>
<glyph name="abreve" format="1">
  <advance width="558"/>
  <unicode hex="0103"/>
  <outline>
    <contour>
      <point x="517" y="460" type="line"/>
      <point x="566" y="460" type="line"/>
      <point x="484" y="0" type="line"/>
      <point x="435" y="0" type="line"/>
    </contour>
    <contour>
      <point x="80" y="230" type="curve" smooth="yes"/>
      <point x="106" y="378"/>
      <point x="221" y="470"/>
      <point x="344" y="470" type="curve" smooth="yes"/>
      <point x="462" y="470"/>
      <point x="521" y="367"/>
      <point x="497" y="230" type="curve" smooth="yes"/>
      <point x="473" y="93"/>
      <point x="377" y="-10"/>
      <point x="259" y="-10" type="curve" smooth="yes"/>
      <point x="136" y="-10"/>
      <point x="54" y="82"/>
    </contour>
    <contour>
      <point x="132" y="230" type="curve" smooth="yes"/>
      <point x="111" y="110"/>
      <point x="178" y="39"/>
      <point x="275" y="39" type="curve" smooth="yes"/>
      <point x="361" y="39"/>
      <point x="454" y="120"/>
      <point x="473" y="230" type="curve" smooth="yes"/>
      <point x="492" y="340"/>
      <point x="428" y="421"/>
      <point x="342" y="421" type="curve" smooth="yes"/>
      <point x="245" y="421"/>
      <point x="153" y="350"/>
    </contour>
    <contour>
      <point x="223" y="678" type="curve"/>
      <point x="269" y="678" type="line"/>
      <point x="262" y="636"/>
      <point x="284" y="581"/>
      <point x="363" y="581" type="curve" smooth="yes"/>
      <point x="442" y="581"/>
      <point x="485" y="636"/>
      <point x="492" y="678" type="curve"/>
      <point x="539" y="678" type="line"/>
      <point x="527" y="609"/>
      <point x="461" y="538"/>
      <point x="356" y="538" type="curve" smooth="yes"/>
      <point x="251" y="538"/>
      <point x="211" y="609"/>
    </contour>
  </outline>
</glyph>
<glyph name="Aogonek" format="1">
  <advance width="636"/>
  <unicode hex="0104"/>
  <outline>
    <contour>
      <point x="180" y="235" type="line"/>
      <point x="208" y="287" type="line"/>
      <point x="532" y="287" type="line"/>
      <point x="540" y="235" type="line"/>
    </contour>
    <contour>
      <point x="424" y="600" type="line"/>
      <point x="229" y="269" type="line"/>
      <point x="221" y="257" type="line"/>
      <point x="71" y="0" type="line"/>
      <point x="9" y="0" type="line"/>
      <point x="446" y="727" type="line"/>
      <point x="627" y="0" type="line"/>
      <point x="565" y="0" type="line"/>
      <point x="506" y="253" type="line"/>
      <point x="503" y="266" type="line"/>
    </contour>
    <contour>
      <point x="612" y="-147" type="curve"/>
      <point x="628" y="-180" type="line"/>
      <point x="609" y="-200"/>
      <point x="572" y="-220"/>
      <point x="529" y="-220" type="curve" smooth="yes"/>
      <point x="453" y="-220"/>
      <point x="420" y="-183"/>
      <point x="430" y="-128" type="curve"/>
      <point x="485" y="-116" type="line"/>
      <point x="478" y="-156"/>
      <point x="502" y="-174"/>
      <point x="540" y="-174" type="curve" smooth="yes"/>
      <point x="572" y="-174"/>
      <point x="595" y="-162"/>
    </contour>
    <contour>
      <point x="485" y="-116" type="curve"/>
      <point x="430" y="-128" type="line"/>
      <point x="441" y="-65"/>
      <point x="521" y="-17"/>
      <point x="597" y="19" type="curve"/>
      <point x="621" y="0" type="line"/>
      <point x="558" y="-26"/>
      <point x="493" y="-71"/>
    </contour>
  </outline>
</glyph>
<glyph name="Ccircumflex" format="1">
  <advance width="685"/>
  <unicode hex="0108"/>
  <outline>
    <contour>
      <point x="165" y="350" type="curve" smooth="yes"/>
      <point x="134" y="172"/>
      <point x="236" y="47"/>
      <point x="394" y="47" type="curve" smooth="yes"/>
      <point x="493" y="47"/>
      <point x="572" y="83"/>
      <point x="636" y="143" type="curve"/>
      <point x="623" y="69" type="line"/>
      <point x="555" y="17"/>
      <point x="486" y="-9"/>
      <point x="384" y="-9" type="curve" smooth="yes"/>
      <point x="190" y="-9"/>
      <point x="69" y="141"/>
      <point x="106" y="350" type="curve" smooth="yes"/>
      <point x="143" y="559"/>
      <point x="317" y="709"/>
      <point x="511" y="709" type="curve" smooth="yes"/>
      <point x="613" y="709"/>
      <point x="672" y="683"/>
      <point x="722" y="631" type="curve"/>
      <point x="709" y="558" type="line"/>
      <point x="668" y="618"/>
      <point x="598" y="653"/>
      <point x="501" y="653" type="curve" smooth="yes"/>
      <point x="344" y="653"/>
      <point x="197" y="529"/>
    </contour>
    <contour>
      <point x="541" y="880" type="line"/>
      <point x="395" y="769" type="line"/>
      <point x="366" y="796" type="line"/>
      <point x="551" y="936" type="line"/>
      <point x="686" y="796" type="line"/>
      <point x="649" y="769" type="line"/>
    </contour>
  </outline>
</glyph>
<glyph name="cdotaccent" format="1">
  <advance width="482"/>
  <unicode hex="010B"/>
  <outline>
    <contour>
      <point x="128" y="230" type="curve" smooth="yes"/>
      <point x="108" y="119"/>
      <point x="173" y="39"/>
      <point x="277" y="39" type="curve" smooth="yes"/>
      <point x="351" y="39"/>
      <point x="420" y="77"/>
      <point x="448" y="114" type="curve"/>
      <point x="437" y="49" type="line"/>
      <point x="403" y="16"/>
      <point x="335" y="-10"/>
      <point x="268" y="-10" type="curve" smooth="yes"/>
      <point x="134" y="-10"/>
      <point x="50" y="91"/>
      <point x="75" y="230" type="curve" smooth="yes"/>
      <point x="100" y="369"/>
      <point x="219" y="470"/>
      <point x="353" y="470" type="curve" smooth="yes"/>
      <point x="420" y="470"/>
      <point x="478" y="443"/>
      <point x="500" y="411" type="curve"/>
      <point x="489" y="346" type="line"/>
      <point x="475" y="383"/>
      <point x="418" y="421"/>
      <point x="344" y="421" type="curve" smooth="yes"/>
      <point x="240" y="421"/>
      <point x="148" y="341"/>
    </contour>
    <contour>
      <point x="334" y="571" type="curve" smooth="yes"/>
      <point x="338" y="592"/>
      <point x="357" y="609"/>
      <point x="377" y="609" type="curve" smooth="yes"/>
      <point x="397" y="609"/>
      <point x="412" y="592"/>
      <point x="408" y="571" type="curve" smooth="yes"/>
      <point x="404" y="550"/>
      <point x="384" y="534"/>
      <point x="364" y="534" type="curve" smooth="yes"/>
      <point x="344" y="534"/>
      <point x="330" y="550"/>
    </contour>
  </outline>
</glyph>
<glyph name="ccaron" format="1">
  <advance width="482"/>
  <unicode hex="010D"/>
  <outline>
    <contour>
      <point x="128" y="230" type="curve" smooth="yes"/>
      <point x="108" y="119"/>
      <point x="173" y="39"/>
      <point x="277" y="39" type="curve" smooth="yes"/>
      <point x="351" y="39"/>
      <point x="420" y="77"/>
      <point x="448" y="114" type="curve"/>
      <point x="437" y="49" type="line"/>
      <point x="403" y="16"/>
      <point x="335" y="-10"/>
      <point x="268" y="-10" type="curve" smooth="yes"/>
      <point x="134" y="-10"/>
      <point x="50" y="91"/>
      <point x="75" y="230" type="curve" smooth="yes"/>
      <point x="100" y="369"/>
      <point x="219" y="470"/>
      <point x="353" y="470" type="curve" smooth="yes"/>
      <point x="420" y="470"/>
      <point x="478" y="443"/>
      <point x="500" y="411" type="curve"/>
      <point x="489" y="346" type="line"/>
      <point x="475" y="383"/>
      <point x="418" y="421"/>
      <point x="344" y="421" type="curve" smooth="yes"/>
      <point x="240" y="421"/>
      <point x="148" y="341"/>
    </contour>
    <contour>
      <point x="375" y="594" type="line"/>
      <point x="521" y="705" type="line"/>
      <point x="550" y="678" type="line"/>
      <point x="365" y="538" type="line"/>
      <point x="230" y="678" type="line"/>
      <point x="267" y="705" type="line"/>
    </contour>
  </outline>
</glyph>
<glyph name="Emacron" format="1">
  <advance width="534"/>
  <unicode hex="0112"/>
  <outline>
    <contour>
      <point x="113" y="0" type="line"/>
      <point x="122" y="52" type="line"/>
      <point x="469" y="52" type="line"/>
      <point x="460" y="0" type="line"/>
    </contour>
    <contour>
      <point x="227" y="648" type="line"/>
      <point x="236" y="700" type="line"/>
      <point x="583" y="700" type="line"/>
      <point x="574" y="648" type="line"/>
    </contour>
    <contour>
      <point x="176" y="358" type="line"/>
      <point x="185" y="410" type="line"/>
      <point x="512" y="410" type="line"/>
      <point x="503" y="358" type="line"/>
    </contour>
    <contour>
      <point x="207" y="700" type="line"/>
      <point x="262" y="700" type="line"/>
      <point x="139" y="0" type="line"/>
      <point x="84" y="0" type="line"/>
    </contour>
    <contour>
      <point x="245" y="796" type="line"/>
      <point x="254" y="845" type="line"/>
      <point x="604" y="845" type="line"/>
      <point x="595" y="796" type="line"/>
    </contour>
  </outline>
</glyph>
<glyph name="Ebreve" format="1">
  <advance width="534"/>
  <unicode hex="0114"/>
  <outline>
    <contour>
      <point x="113" y="0" type="line"/>
      <point x="122" y="52" type="line"/>
      <point x="469" y="52" type="line"/>
      <point x="460" y="0" type="line"/>
    </contour>
    <contour>
      <point x="227" y="648" type="line"/>
      <point x="236" y="700" type="line"/>
      <point x="583" y="700" type="line"/>
      <point x="574" y="648" type="line"/>
    </contour>
    <contour>
      <point x="176" y="358" type="line"/>
      <point x="185" y="410" type="line"/>
      <point x="512" y="410" type="line"/>
      <point x="503" y="358" type="line"/>
    </contour>
    <contour>
      <point x="207" y="700" type="line"/>
      <point x="262" y="700" type="line"/>
      <point x="139" y="0" type="line"/>
      <point x="84" y="0" type="line"/>
    </contour>
    <contour>
      <point x="278" y="909" type="curve"/>
      <point x="325" y="909" type="line"/>
      <point x="318" y="867"/>
      <point x="340" y="812"/>
      <point x="419" y="812" type="curve" smooth="yes"/>
      <point x="498" y="812"/>
      <point x="540" y="867"/>
      <point x="547" y="909" type="curve"/>
      <point x="594" y="909" type="line"/>
      <point x="582" y="840"/>
      <point x="517" y="769"/>
      <point x="412" y="769" type="curve" smooth="yes"/>
      <point x="307" y="769"/>
      <point x="266" y="840"/>
    </contour>
  </outline>
</glyph>
<glyph name="Edotaccent" format="1">
  <advance width="534"/>
  <unicode hex="0116"/>
  <outline>
    <contour>
      <point x="113" y="0" type="line"/>
      <point x="122" y="52" type="line"/>
      <point x="469" y="52" type="line"/>
      <point x="460" y="0" type="line"/>
    </contour>
    <contour>
      <point x="227" y="648" type="line"/>
      <point x="236" y="700" type="line"/>
      <point x="583" y="700" type="line"/>
      <point x="574" y="648" type="line"/>
    </contour>
    <contour>
      <point x="176" y="358" type="line"/>
      <point x="185" y="410" type="line"/>
      <point x="512" y="410" type="line"/>
      <point x="503" y="358" type="line"/>
    </contour>
    <contour>
      <point x="207" y="700" type="line"/>
      <point x="262" y="700" type="line"/>
      <point x="139" y="0" type="line"/>
      <point x="84" y="0" type="line"/>
    </contour>
    <contour>
      <point x="377" y="807" type="curve" smooth="yes"/>
      <point x="381" y="828"/>
      <point x="401" y="844"/>
      <point x="421" y="844" type="curve" smooth="yes"/>
      <point x="441" y="844"/>
      <point x="455" y="828"/>
      <point x="451" y="807" type="curve" smooth="yes"/>
      <point x="447" y="786"/>
      <point x="428" y="769"/>
      <point x="408" y="769" type="curve" smooth="yes"/>
      <point x="388" y="769"/>
      <point x="373" y="786"/>
    </contour>
  </outline>
</glyph>
<glyph name="Eogonek" format="1">
  <advance width="534"/>
  <unicode hex="0118"/>
  <outline>
    <contour>
      <point x="113" y="0" type="line"/>
      <point x="122" y="52" type="line"/>
      <point x="469" y="52" type="line"/>
      <point x="460" y="0" type="line"/>
    </contour>
    <contour>
      <point x="227" y="648" type="line"/>
      <point x="236" y="700" type="line"/>
      <point x="583" y="700" type="line"/>
      <point x="574" y="648" type="line"/>
    </contour>
    <contour>
      <point x="176" y="358" type="line"/>
      <point x="185" y="410" type="line"/>
      <point x="512" y="410" type="line"/>
      <point x="503" y="358" type="line"/>
    </contour>
    <contour>
      <point x="207" y="700" type="line"/>
      <point x="262" y="700" type="line"/>
      <point x="139" y="0" type="line"/>
      <point x="84" y="0" type="line"/>
    </contour>
    <contour>
      <point x="446" y="-148" type="curve"/>
      <point x="463" y="-181" type="line"/>
      <point x="444" y="-201"/>
      <point x="407" y="-221"/>
      <point x="364" y="-221" type="curve" smooth="yes"/>
      <point x="288" y="-221"/>
      <point x="255" y="-184"/>
      <point x="265" y="-129" type="curve"/>
      <point x="319" y="-117" type="line"/>
      <point x="312" y="-157"/>
      <point x="337" y="-175"/>
      <point x="375" y="-175" type="curve" smooth="yes"/>
      <point x="407" y="-175"/>
      <point x="429" y="-163"/>
    </contour>
    <contour>
      <point x="319" y="-117" type="curve"/>
      <point x="265" y="-129" type="line"/>
      <point x="276" y="-66"/>
      <point x="355" y="-18"/>
      <point x="431" y="18" type="curve"/>
      <point x="456" y="-1" type="line"/>
      <point x="393" y="-27"/>
      <point x="327" y="-72"/>
    </contour>
  </outline>
</glyph>
<glyph name="eogonek" format="1">
  <advance width="517"/>
  <unicode hex="0119"/>
  <outline>
    <contour>
      <point x="116" y="217" type="line"/>
      <point x="124" y="262" type="line"/>
      <point x="510" y="262" type="line"/>
      <point x="515" y="217" type="line"/>
    </contour>
    <contour>
      <point x="467" y="251" type="line" smooth="yes"/>
      <point x="484" y="350"/>
      <point x="435" y="424"/>
      <point x="339" y="424" type="curve" smooth="yes"/>
      <point x="248" y="424"/>
      <point x="156" y="358"/>
      <point x="137" y="249" type="curve"/>
      <point x="133" y="231" type="line"/>
      <point x="113" y="115"/>
      <point x="167" y="39"/>
      <point x="269" y="39" type="curve" smooth="yes"/>
      <point x="356" y="39"/>
      <point x="413" y="84"/>
      <point x="453" y="134" type="curve"/>
      <point x="490" y="107" type="line"/>
      <point x="439" y="46"/>
      <point x="375" y="-10"/>
      <point x="254" y="-10" type="curve" smooth="yes"/>
      <point x="129" y="-10"/>
      <point x="55" y="92"/>
      <point x="80" y="231" type="curve" smooth="yes"/>
      <point x="84" y="252"/>
      <point x="88" y="272"/>
      <point x="96" y="291" type="curve" smooth="yes"/>
      <point x="137" y="397"/>
      <point x="234" y="470"/>
      <point x="347" y="470" type="curve" smooth="yes"/>
      <point x="469" y="470"/>
      <point x="546" y="379"/>
      <point x="522" y="242" type="curve" smooth="yes"/>
      <point x="521" y="234"/>
      <point x="517" y="225"/>
      <point x="515" y="217" type="curve"/>
      <point x="464" y="230" type="line"/>
    </contour>
    <contour>
      <point x="272" y="-153" type="curve"/>
      <point x="288" y="-185" type="line"/>
      <point x="269" y="-205"/>
      <point x="232" y="-225"/>
      <point x="189" y="-225" type="curve" smooth="yes"/>
      <point x="113" y="-225"/>
      <point x="81" y="-188"/>
      <point x="91" y="-133" type="curve"/>
      <point x="145" y="-121" type="line"/>
      <point x="138" y="-161"/>
      <point x="162" y="-179"/>
      <point x="200" y="-179" type="curve" smooth="yes"/>
      <point x="232" y="-179"/>
      <point x="255" y="-168"/>
    </contour>
    <contour>
      <point x="145" y="-121" type="curve"/>
      <point x="91" y="-133" type="line"/>
      <point x="102" y="-70"/>
      <point x="180" y="-23"/>
      <point x="256" y="13" type="curve"/>
      <point x="281" y="-6" type="line"/>
      <point x="218" y="-32"/>
      <point x="153" y="-76"/>
    </contour>
  </outline>
</glyph>
<glyph name="Gcircumflex" format="1">
  <advance width="771"/>
  <unicode hex="011C"/>
  <outline>
    <contour>
      <point x="463" y="297" type="line"/>
      <point x="473" y="349" type="line"/>
      <point x="784" y="349" type="line"/>
      <point x="737" y="297" type="line"/>
    </contour>
    <contour>
      <point x="784" y="349" type="line"/>
      <point x="750" y="159"/>
      <point x="597" y="-9"/>
      <point x="391" y="-9" type="curve" smooth="yes"/>
      <point x="191" y="-9"/>
      <point x="69" y="141"/>
      <point x="106" y="350" type="curve" smooth="yes"/>
      <point x="143" y="559"/>
      <point x="318" y="709"/>
      <point x="518" y="709" type="curve" smooth="yes"/>
      <point x="647" y="709"/>
      <point x="734" y="652"/>
      <point x="778" y="559" type="curve"/>
      <point x="731" y="524" type="line"/>
      <point x="699" y="602"/>
      <point x="621" y="654"/>
      <point x="508" y="654" type="curve" smooth="yes"/>
      <point x="343" y="654"/>
      <point x="196" y="529"/>
      <point x="164" y="350" type="curve" smooth="yes"/>
      <point x="133" y="172"/>
      <point x="235" y="46"/>
      <point x="401" y="46" type="curve" smooth="yes"/>
      <point x="577" y="46"/>
      <point x="700" y="189"/>
      <point x="727" y="343" type="curve"/>
    </contour>
    <contour>
      <point x="548" y="880" type="line"/>
      <point x="402" y="769" type="line"/>
      <point x="373" y="796" type="line"/>
      <point x="558" y="936" type="line"/>
      <point x="693" y="796" type="line"/>
      <point x="656" y="769" type="line"/>
    </contour>
  </outline>
</glyph>
<glyph name="gbreve" format="1">
  <advance width="558"/>
  <unicode hex="011F"/>
  <outline>
    <contour>
      <point x="497" y="230" type="curve"/>
      <point x="473" y="230" type="line"/>
      <point x="493" y="344"/>
      <point x="423" y="421"/>
      <point x="345" y="421" type="curve" smooth="yes"/>
      <point x="242" y="421"/>
      <point x="154" y="348"/>
      <point x="133" y="230" type="curve"/>
      <point x="80" y="230" type="line"/>
      <point x="106" y="379"/>
      <point x="221" y="470"/>
      <point x="346" y="470" type="curve" smooth="yes"/>
      <point x="453" y="470"/>
      <point x="523" y="379"/>
    </contour>
    <contour>
      <point x="473" y="230" type="curve"/>
      <point x="497" y="230" type="line"/>
      <point x="471" y="81"/>
      <point x="368" y="-10"/>
      <point x="261" y="-10" type="curve" smooth="yes"/>
      <point x="136" y="-10"/>
      <point x="54" y="81"/>
      <point x="80" y="230" type="curve"/>
      <point x="133" y="230" type="line"/>
      <point x="112" y="112"/>
      <point x="175" y="39"/>
      <point x="278" y="39" type="curve" smooth="yes"/>
      <point x="356" y="39"/>
      <point x="453" y="116"/>
    </contour>
    <contour>
      <point x="45" y="-30" type="curve"/>
      <point x="98" y="-30" type="line"/>
      <point x="83" y="-116"/>
      <point x="135" y="-181"/>
      <point x="232" y="-181" type="curve" smooth="yes"/>
      <point x="317" y="-181"/>
      <point x="411" y="-122"/>
      <point x="434" y="10" type="curve" smooth="yes"/>
      <point x="513" y="460" type="line"/>
      <point x="565" y="460" type="line"/>
      <point x="486" y="10" type="line" smooth="yes"/>
      <point x="458" y="-149"/>
      <point x="338" y="-230"/>
      <point x="223" y="-230" type="curve" smooth="yes"/>
      <point x="96" y="-230"/>
      <point x="24" y="-149"/>
    </contour>
    <contour>
      <point x="223" y="678" type="curve"/>
      <point x="270" y="678" type="line"/>
      <point x="263" y="636"/>
      <point x="284" y="581"/>
      <point x="363" y="581" type="curve" smooth="yes"/>
      <point x="442" y="581"/>
      <point x="485" y="636"/>
      <point x="492" y="678" type="curve"/>
      <point x="539" y="678" type="line"/>
      <point x="527" y="609"/>
      <point x="461" y="538"/>
      <point x="356" y="538" type="curve" smooth="yes"/>
      <point x="251" y="538"/>
      <point x="211" y="609"/>
    </contour>
  </outline>
</glyph>
<glyph name="gdotaccent" format="1">
  <advance width="558"/>
  <unicode hex="0121"/>
  <outline>
    <contour>
      <point x="497" y="230" type="curve"/>
      <point x="473" y="230" type="line"/>
      <point x="493" y="344"/>
      <point x="423" y="421"/>
      <point x="345" y="421" type="curve" smooth="yes"/>
      <point x="242" y="421"/>
      <point x="154" y="348"/>
      <point x="133" y="230" type="curve"/>
      <point x="80" y="230" type="line"/>
      <point x="106" y="379"/>
      <point x="221" y="470"/>
      <point x="346" y="470" type="curve" smooth="yes"/>
      <point x="453" y="470"/>
      <point x="523" y="379"/>
    </contour>
    <contour>
      <point x="473" y="230" type="curve"/>
      <point x="497" y="230" type="line"/>
      <point x="471" y="81"/>
      <point x="368" y="-10"/>
      <point x="261" y="-10" type="curve" smooth="yes"/>
      <point x="136" y="-10"/>
      <point x="54" y="81"/>
      <point x="80" y="230" type="curve"/>
      <point x="133" y="230" type="line"/>
      <point x="112" y="112"/>
      <point x="175" y="39"/>
      <point x="278" y="39" type="curve" smooth="yes"/>
      <point x="356" y="39"/>
      <point x="453" y="116"/>
    </contour>
    <contour>
      <point x="45" y="-30" type="curve"/>
      <point x="98" y="-30" type="line"/>
      <point x="83" y="-116"/>
      <point x="135" y="-181"/>
      <point x="232" y="-181" type="curve" smooth="yes"/>
      <point x="317" y="-181"/>
      <point x="411" y="-122"/>
      <point x="434" y="10" type="curve" smooth="yes"/>
      <point x="513" y="460" type="line"/>
      <point x="565" y="460" type="line"/>
      <point x="486" y="10" type="line" smooth="yes"/>
      <point x="458" y="-149"/>
      <point x="338" y="-230"/>
      <point x="223" y="-230" type="curve" smooth="yes"/>
      <point x="96" y="-230"/>
      <point x="24" y="-149"/>
    </contour>
    <contour>
      <point x="324" y="567" type="curve" smooth="yes"/>
      <point x="328" y="588"/>
      <point x="348" y="605"/>
      <point x="368" y="605" type="curve" smooth="yes"/>
      <point x="388" y="605"/>
      <point x="402" y="588"/>
      <point x="398" y="567" type="curve" smooth="yes"/>
      <point x="394" y="546"/>
      <point x="374" y="530"/>
      <point x="354" y="530" type="curve" smooth="yes"/>
      <point x="334" y="530"/>
      <point x="320" y="546"/>
    </contour>
  </outline>
</glyph>
<glyph name="Hcircumflex" format="1">
  <advance width="687"/>
  <unicode hex="0124"/>
  <outline>
    <contour>
      <point x="176" y="355" type="line"/>
      <point x="185" y="407" type="line"/>
      <point x="657" y="407" type="line"/>
      <point x="648" y="355" type="line"/>
    </contour>
    <contour>
      <point x="671" y="700" type="line"/>
      <point x="727" y="700" type="line"/>
      <point x="604" y="0" type="line"/>
      <point x="548" y="0" type="line"/>
    </contour>
    <contour>
      <point x="207" y="700" type="line"/>
      <point x="262" y="700" type="line"/>
      <point x="139" y="0" type="line"/>
      <point x="84" y="0" type="line"/>
    </contour>
    <contour>
      <point x="499" y="880" type="line"/>
      <point x="353" y="769" type="line"/>
      <point x="324" y="796" type="line"/>
      <point x="509" y="936" type="line"/>
      <point x="644" y="796" type="line"/>
      <point x="607" y="769" type="line"/>
    </contour>
  </outline>
</glyph>
<glyph name="Imacron" format="1">
  <advance width="219"/>
  <unicode hex="012A"/>
  <outline>
    <contour>
      <point x="205" y="700" type="line"/>
      <point x="260" y="700" type="line"/>
      <point x="137" y="0" type="line"/>
      <point x="82" y="0" type="line"/>
    </contour>
    <contour>
      <point x="88" y="796" type="line"/>
      <point x="97" y="845" type="line"/>
      <point x="447" y="845" type="line"/>
      <point x="438" y="796" type="line"/>
    </contour>
  </outline>
</glyph>
<glyph name="Ibreve" format="1">
  <advance width="219"/>
  <unicode hex="012C"/>
  <outline>
    <contour>
      <point x="205" y="700" type="line"/>
      <point x="260" y="700" type="line"/>
      <point x="137" y="0" type="line"/>
      <point x="82" y="0" type="line"/>
    </contour>
    <contour>
      <point x="111" y="910" type="curve"/>
      <point x="158" y="910" type="line"/>
      <point x="151" y="868"/>
      <point x="173" y="813"/>
      <point x="252" y="813" type="curve" smooth="yes"/>
      <point x="331" y="813"/>
      <point x="373" y="868"/>
      <point x="380" y="910" type="curve"/>
      <point x="427" y="910" type="line"/>
      <point x="415" y="841"/>
      <point x="350" y="770"/>
      <point x="245" y="770" type="curve" smooth="yes"/>
      <point x="140" y="770"/>
      <point x="99" y="841"/>
    </contour>
  </outline>
</glyph>
<glyph name="ibreve" format="1">
  <advance width="232"/>
  <unicode hex="012D"/>
  <outline>
    <contour>
      <point x="171" y="460" type="line"/>
      <point x="223" y="460" type="line"/>
      <point x="142" y="0" type="line"/>
      <point x="90" y="0" type="line"/>
    </contour>
    <contour>
      <point x="76" y="670" type="curve"/>
      <point x="123" y="670" type="line"/>
      <point x="116" y="628"/>
      <point x="138" y="573"/>
      <point x="217" y="573" type="curve" smooth="yes"/>
      <point x="296" y="573"/>
      <point x="338" y="628"/>
      <point x="345" y="670" type="curve"/>
      <point x="392" y="670" type="line"/>
      <point x="380" y="601"/>
      <point x="314" y="530"/>
      <point x="209" y="530" type="curve" smooth="yes"/>
      <point x="104" y="530"/>
      <point x="64" y="601"/>
    </contour>
  </outline>
</glyph>
<glyph name="iogonek" format="1">
  <advance width="232"/>
  <unicode hex="012F"/>
  <outline>
    <contour>
      <point x="197" y="668" type="curve" smooth="yes"/>
      <point x="201" y="688"/>
      <point x="219" y="705"/>
      <point x="240" y="705" type="curve" smooth="yes"/>
      <point x="261" y="705"/>
      <point x="275" y="688"/>
      <point x="271" y="668" type="curve" smooth="yes"/>
      <point x="267" y="648"/>
      <point x="248" y="631"/>
      <point x="227" y="631" type="curve" smooth="yes"/>
      <point x="206" y="631"/>
      <point x="193" y="648"/>
    </contour>
    <contour>
      <point x="171" y="460" type="line"/>
      <point x="223" y="460" type="line"/>
      <point x="142" y="0" type="line"/>
      <point x="90" y="0" type="line"/>
    </contour>
    <contour>
      <point x="131" y="-157" type="curve"/>
      <point x="148" y="-190" type="line"/>
      <point x="129" y="-210"/>
      <point x="92" y="-230"/>
      <point x="49" y="-230" type="curve" smooth="yes"/>
      <point x="-27" y="-230"/>
      <point x="-59" y="-193"/>
      <point x="-49" y="-138" type="curve"/>
      <point x="5" y="-126" type="line"/>
      <point x="-2" y="-166"/>
      <point x="23" y="-184"/>
      <point x="61" y="-184" type="curve" smooth="yes"/>
      <point x="93" y="-184"/>
      <point x="114" y="-172"/>
    </contour>
    <contour>
      <point x="5" y="-126" type="curve"/>
      <point x="-49" y="-138" type="line"/>
      <point x="-38" y="-75"/>
      <point x="41" y="-27"/>
      <point x="117" y="9" type="curve"/>
      <point x="141" y="-10" type="line"/>
      <point x="78" y="-36"/>
      <point x="13" y="-81"/>
    </contour>
  </outline>
</glyph>
<glyph name="ij" format="1">
  <advance width="510"/>
  <unicode hex="0133"/>
  <outline>
    <contour>
      <point x="447" y="668" type="curve" smooth="yes"/>
      <point x="451" y="688"/>
      <point x="469" y="705"/>
      <point x="490" y="705" type="curve" smooth="yes"/>
      <point x="511" y="705"/>
      <point x="525" y="688"/>
      <point x="521" y="668" type="curve" smooth="yes"/>
      <point x="517" y="648"/>
      <point x="498" y="631"/>
      <point x="477" y="631" type="curve" smooth="yes"/>
      <point x="456" y="631"/>
      <point x="443" y="648"/>
    </contour>
    <contour>
      <point x="187" y="-134" type="line"/>
      <point x="198" y="-156"/>
      <point x="218" y="-168"/>
      <point x="242" y="-168" type="curve" smooth="yes"/>
      <point x="292" y="-168"/>
      <point x="318" y="-125"/>
      <point x="329" y="-63" type="curve" smooth="yes"/>
      <point x="421" y="460" type="line"/>
      <point x="473" y="460" type="line"/>
      <point x="380" y="-69" type="line" smooth="yes"/>
      <point x="364" y="-162"/>
      <point x="314" y="-220"/>
      <point x="230" y="-220" type="curve" smooth="yes"/>
      <point x="187" y="-220"/>
      <point x="162" y="-197"/>
      <point x="151" y="-177" type="curve"/>
    </contour>
    <contour>
      <point x="197" y="668" type="curve" smooth="yes"/>
      <point x="201" y="688"/>
      <point x="219" y="705"/>
      <point x="240" y="705" type="curve" smooth="yes"/>
      <point x="261" y="705"/>
      <point x="275" y="688"/>
      <point x="271" y="668" type="curve" smooth="yes"/>
      <point x="267" y="648"/>
      <point x="248" y="631"/>
      <point x="227" y="631" type="curve" smooth="yes"/>
      <point x="206" y="631"/>
      <point x="193" y="648"/>
    </contour>
    <contour>
      <point x="171" y="460" type="line"/>
      <point x="223" y="460" type="line"/>
      <point x="142" y="0" type="line"/>
      <point x="90" y="0" type="line"/>
    </contour>
  </outline>
</glyph>
<glyph name="jcircumflex" format="1">
  <advance width="222"/>
  <unicode hex="0135"/>
  <outline>
    <contour>
      <point x="-73" y="-134" type="line"/>
      <point x="-62" y="-156"/>
      <point x="-42" y="-168"/>
      <point x="-18" y="-168" type="curve" smooth="yes"/>
      <point x="32" y="-168"/>
      <point x="58" y="-125"/>
      <point x="69" y="-63" type="curve" smooth="yes"/>
      <point x="161" y="460" type="line"/>
      <point x="213" y="460" type="line"/>
      <point x="120" y="-69" type="line" smooth="yes"/>
      <point x="104" y="-162"/>
      <point x="54" y="-220"/>
      <point x="-30" y="-220" type="curve" smooth="yes"/>
      <point x="-73" y="-220"/>
      <point x="-98" y="-197"/>
      <point x="-109" y="-177" type="curve"/>
    </contour>
    <contour>
      <point x="235" y="654" type="line"/>
      <point x="89" y="543" type="line"/>
      <point x="61" y="570" type="line"/>
      <point x="245" y="710" type="line"/>
      <point x="381" y="570" type="line"/>
      <point x="343" y="543" type="line"/>
    </contour>
  </outline>
</glyph>
<glyph name="uni0136" format="1">
  <advance width="520"/>
  <unicode hex="0136"/>
  <outline>
    <contour>
      <point x="205" y="700" type="line"/>
      <point x="260" y="700" type="line"/>
      <point x="137" y="0" type="line"/>
      <point x="82" y="0" type="line"/>
    </contour>
    <contour>
      <point x="550" y="700" type="line"/>
      <point x="620" y="700" type="line"/>
      <point x="255" y="372" type="line"/>
      <point x="512" y="0" type="line"/>
      <point x="442" y="0" type="line"/>
      <point x="186" y="371" type="line"/>
    </contour>
    <contour>
      <point x="323" y="-66" type="line"/>
      <point x="372" y="-86" type="line"/>
      <point x="218" y="-336" type="line"/>
      <point x="183" y="-323" type="line"/>
    </contour>
  </outline>
</glyph>
<glyph name="Lacute" format="1">
  <advance width="442"/>
  <unicode hex="0139"/>
  <outline>
    <contour>
      <point x="115" y="0" type="line"/>
      <point x="124" y="52" type="line"/>
      <point x="437" y="52" type="line"/>
      <point x="428" y="0" type="line"/>
    </contour>
    <contour>
      <point x="207" y="700" type="line"/>
      <point x="262" y="700" type="line"/>
      <point x="139" y="0" type="line"/>
      <point x="84" y="0" type="line"/>
    </contour>
    <contour>
      <point x="567" y="922" type="line"/>
      <point x="363" y="769" type="line"/>
      <point x="337" y="789" type="line"/>
      <point x="523" y="949" type="line"/>
    </contour>
  </outline>
</glyph>
<glyph name="lacute" format="1">
  <advance width="210"/>
  <unicode hex="013A"/>
  <outline>
    <contour>
      <point x="217" y="780" type="line"/>
      <point x="269" y="780" type="line"/>
      <point x="131" y="0" type="line"/>
      <point x="79" y="0" type="line"/>
    </contour>
    <contour>
      <point x="428" y="993" type="line"/>
      <point x="224" y="840" type="line"/>
      <point x="199" y="860" type="line"/>
      <point x="385" y="1020" type="line"/>
    </contour>
  </outline>
</glyph>
<glyph name="uni013B" format="1">
  <advance width="442"/>
  <unicode hex="013B"/>
  <outline>
    <contour>
      <point x="115" y="0" type="line"/>
      <point x="124" y="52" type="line"/>
      <point x="437" y="52" type="line"/>
      <point x="428" y="0" type="line"/>
    </contour>
    <contour>
      <point x="207" y="700" type="line"/>
      <point x="262" y="700" type="line"/>
      <point x="139" y="0" type="line"/>
      <point x="84" y="0" type="line"/>
    </contour>
    <contour>
      <point x="258" y="-60" type="line"/>
      <point x="308" y="-80" type="line"/>
      <point x="154" y="-330" type="line"/>
      <point x="118" y="-317" type="line"/>
    </contour>
  </outline>
</glyph>
<glyph name="uni013C" format="1">
  <advance width="210"/>
  <unicode hex="013C"/>
  <outline>
    <contour>
      <point x="217" y="780" type="line"/>
      <point x="269" y="780" type="line"/>
      <point x="131" y="0" type="line"/>
      <point x="79" y="0" type="line"/>
    </contour>
    <contour>
      <point x="107" y="-60" type="line"/>
      <point x="157" y="-80" type="line"/>
      <point x="3" y="-330" type="line"/>
      <point x="-33" y="-317" type="line"/>
    </contour>
  </outline>
</glyph>
<glyph name="Lcaron" format="1">
  <advance width="450"/>
  <unicode hex="013D"/>
  <outline>
    <contour>
      <point x="115" y="0" type="line"/>
      <point x="124" y="52" type="line"/>
      <point x="437" y="52" type="line"/>
      <point x="428" y="0" type="line"/>
    </contour>
    <contour>
      <point x="207" y="700" type="line"/>
      <point x="262" y="700" type="line"/>
      <point x="139" y="0" type="line"/>
      <point x="84" y="0" type="line"/>
    </contour>
    <contour>
      <point x="453" y="704" type="line"/>
      <point x="502" y="684" type="line"/>
      <point x="348" y="434" type="line"/>
      <point x="313" y="447" type="line"/>
    </contour>
  </outline>
</glyph>
<glyph name="Ldot" format="1">
  <advance width="442"/>
  <unicode hex="013F"/>
  <outline>
    <contour>
      <point x="115" y="0" type="line"/>
      <point x="124" y="52" type="line"/>
      <point x="437" y="52" type="line"/>
      <point x="428" y="0" type="line"/>
    </contour>
    <contour>
      <point x="207" y="700" type="line"/>
      <point x="262" y="700" type="line"/>
      <point x="139" y="0" type="line"/>
      <point x="84" y="0" type="line"/>
    </contour>
    <contour>
      <point x="343" y="407" type="curve" smooth="yes"/>
      <point x="347" y="428"/>
      <point x="366" y="445"/>
      <point x="386" y="445" type="curve" smooth="yes"/>
      <point x="406" y="445"/>
      <point x="422" y="428"/>
      <point x="418" y="407" type="curve" smooth="yes"/>
      <point x="414" y="386"/>
      <point x="393" y="370"/>
      <point x="373" y="370" type="curve" smooth="yes"/>
      <point x="353" y="370"/>
      <point x="339" y="386"/>
    </contour>
  </outline>
</glyph>
<glyph name="ldot" format="1">
  <advance width="370"/>
  <unicode hex="0140"/>
  <outline>
    <contour>
      <point x="217" y="780" type="line"/>
      <point x="269" y="780" type="line"/>
      <point x="131" y="0" type="line"/>
      <point x="79" y="0" type="line"/>
    </contour>
    <contour>
      <point x="293" y="407" type="curve" smooth="yes"/>
      <point x="297" y="428"/>
      <point x="316" y="445"/>
      <point x="336" y="445" type="curve" smooth="yes"/>
      <point x="356" y="445"/>
      <point x="372" y="428"/>
      <point x="368" y="407" type="curve" smooth="yes"/>
      <point x="364" y="386"/>
      <point x="343" y="370"/>
      <point x="323" y="370" type="curve" smooth="yes"/>
      <point x="303" y="370"/>
      <point x="289" y="386"/>
    </contour>
  </outline>
</glyph>
<glyph name="Lslash" format="1">
  <advance width="420"/>
  <unicode hex="0141"/>
  <outline>
    <contour>
      <point x="62" y="359" type="line"/>
      <point x="55" y="395" type="line"/>
      <point x="355" y="565" type="line"/>
      <point x="362" y="529" type="line"/>
    </contour>
    <contour>
      <point x="110" y="0" type="line"/>
      <point x="119" y="52" type="line"/>
      <point x="419" y="52" type="line"/>
      <point x="410" y="0" type="line"/>
    </contour>
    <contour>
      <point x="203" y="700" type="line"/>
      <point x="258" y="700" type="line"/>
      <point x="135" y="0" type="line"/>
      <point x="80" y="0" type="line"/>
    </contour>
  </outline>
</glyph>
<glyph name="uni0145" format="1">
  <advance width="731"/>
  <unicode hex="0145"/>
  <outline>
    <contour>
      <point x="187" y="634" type="line"/>
      <point x="196" y="727" type="line"/>
      <point x="659" y="64" type="line"/>
      <point x="650" y="-27" type="line"/>
    </contour>
    <contour>
      <point x="723" y="700" type="line"/>
      <point x="778" y="700" type="line"/>
      <point x="650" y="-27" type="line"/>
      <point x="609" y="52" type="line"/>
    </contour>
    <contour>
      <point x="196" y="727" type="line"/>
      <point x="237" y="646" type="line"/>
      <point x="123" y="0" type="line"/>
      <point x="68" y="0" type="line"/>
    </contour>
    <contour>
      <point x="369" y="-39" type="line"/>
      <point x="419" y="-59" type="line"/>
      <point x="265" y="-309" type="line"/>
      <point x="229" y="-296" type="line"/>
    </contour>
  </outline>
</glyph>
<glyph name="uni0146" format="1">
  <advance width="505"/>
  <unicode hex="0146"/>
  <outline>
    <contour>
      <point x="212" y="460" type="line"/>
      <point x="131" y="0" type="line"/>
      <point x="79" y="0" type="line"/>
      <point x="160" y="460" type="line"/>
    </contour>
    <contour>
      <point x="426" y="296" type="line" smooth="yes"/>
      <point x="440" y="374"/>
      <point x="415" y="421"/>
      <point x="340" y="421" type="curve" smooth="yes"/>
      <point x="262" y="421"/>
      <point x="194" y="358"/>
      <point x="180" y="280" type="curve"/>
      <point x="156" y="280" type="line"/>
      <point x="175" y="389"/>
      <point x="266" y="470"/>
      <point x="361" y="470" type="curve" smooth="yes"/>
      <point x="456" y="470"/>
      <point x="498" y="409"/>
      <point x="479" y="302" type="curve" smooth="yes"/>
      <point x="426" y="0" type="line"/>
      <point x="374" y="0" type="line"/>
    </contour>
    <contour>
      <point x="252" y="-52" type="line"/>
      <point x="301" y="-72" type="line"/>
      <point x="147" y="-322" type="line"/>
      <point x="113" y="-309" type="line"/>
    </contour>
  </outline>
</glyph>
<glyph name="napostrophe" format="1">
  <advance width="627"/>
  <unicode hex="0149"/>
  <outline>
    <contour>
      <point x="314" y="460" type="line"/>
      <point x="233" y="0" type="line"/>
      <point x="181" y="0" type="line"/>
      <point x="262" y="460" type="line"/>
    </contour>
    <contour>
      <point x="528" y="296" type="line" smooth="yes"/>
      <point x="542" y="374"/>
      <point x="517" y="421"/>
      <point x="442" y="421" type="curve" smooth="yes"/>
      <point x="364" y="421"/>
      <point x="296" y="358"/>
      <point x="282" y="280" type="curve"/>
      <point x="258" y="280" type="line"/>
      <point x="277" y="389"/>
      <point x="368" y="470"/>
      <point x="463" y="470" type="curve" smooth="yes"/>
      <point x="558" y="470"/>
      <point x="600" y="409"/>
      <point x="581" y="302" type="curve" smooth="yes"/>
      <point x="528" y="0" type="line"/>
      <point x="476" y="0" type="line"/>
    </contour>
    <contour>
      <point x="270" y="700" type="line"/>
      <point x="332" y="700" type="line"/>
      <point x="194" y="470" type="line"/>
      <point x="157" y="470" type="line"/>
    </contour>
  </outline>
</glyph>
<glyph name="Obreve" format="1">
  <advance width="783"/>
  <unicode hex="014E"/>
  <outline>
    <contour>
      <point x="164" y="350" type="curve" smooth="yes"/>
      <point x="133" y="175"/>
      <point x="232" y="46"/>
      <point x="400" y="46" type="curve" smooth="yes"/>
      <point x="568" y="46"/>
      <point x="712" y="175"/>
      <point x="743" y="350" type="curve" smooth="yes"/>
      <point x="774" y="525"/>
      <point x="675" y="654"/>
      <point x="507" y="654" type="curve" smooth="yes"/>
      <point x="339" y="654"/>
      <point x="195" y="525"/>
    </contour>
    <contour>
      <point x="106" y="350" type="curve" smooth="yes"/>
      <point x="142" y="556"/>
      <point x="317" y="709"/>
      <point x="517" y="709" type="curve" smooth="yes"/>
      <point x="717" y="709"/>
      <point x="838" y="556"/>
      <point x="802" y="350" type="curve" smooth="yes"/>
      <point x="766" y="144"/>
      <point x="590" y="-9"/>
      <point x="390" y="-9" type="curve" smooth="yes"/>
      <point x="190" y="-9"/>
      <point x="70" y="144"/>
    </contour>
    <contour>
      <point x="394" y="909" type="curve"/>
      <point x="440" y="909" type="line"/>
      <point x="433" y="867"/>
      <point x="456" y="812"/>
      <point x="535" y="812" type="curve" smooth="yes"/>
      <point x="614" y="812"/>
      <point x="656" y="867"/>
      <point x="663" y="909" type="curve"/>
      <point x="710" y="909" type="line"/>
      <point x="698" y="840"/>
      <point x="633" y="769"/>
      <point x="528" y="769" type="curve" smooth="yes"/>
      <point x="423" y="769"/>
      <point x="382" y="840"/>
    </contour>
  </outline>
</glyph>
<glyph name="oe" format="1">
  <advance width="910"/>
  <unicode hex="0153"/>
  <outline>
    <contour>
      <point x="860" y="250" type="line" smooth="yes"/>
      <point x="877" y="344"/>
      <point x="833" y="424"/>
      <point x="731" y="424" type="curve" smooth="yes"/>
      <point x="631" y="424"/>
      <point x="546" y="347"/>
      <point x="529" y="249" type="curve"/>
      <point x="525" y="231" type="line"/>
      <point x="504" y="113"/>
      <point x="561" y="39"/>
      <point x="663" y="39" type="curve" smooth="yes"/>
      <point x="741" y="39"/>
      <point x="801" y="78"/>
      <point x="845" y="134" type="curve"/>
      <point x="882" y="107" type="line"/>
      <point x="824" y="37"/>
      <point x="753" y="-10"/>
      <point x="654" y="-10" type="curve" smooth="yes"/>
      <point x="525" y="-10"/>
      <point x="456" y="95"/>
      <point x="480" y="230" type="curve" smooth="yes"/>
      <point x="483" y="247"/>
      <point x="486" y="263"/>
      <point x="492" y="279" type="curve" smooth="yes"/>
      <point x="531" y="392"/>
      <point x="630" y="470"/>
      <point x="745" y="470" type="curve" smooth="yes"/>
      <point x="855" y="470"/>
      <point x="938" y="379"/>
      <point x="914" y="242" type="curve" smooth="yes"/>
      <point x="913" y="234"/>
      <point x="910" y="225"/>
      <point x="908" y="217" type="curve"/>
      <point x="857" y="230" type="line"/>
    </contour>
    <contour>
      <point x="509" y="217" type="line"/>
      <point x="517" y="262" type="line"/>
      <point x="904" y="262" type="line"/>
      <point x="908" y="217" type="line"/>
    </contour>
    <contour>
      <point x="80" y="230" type="curve" smooth="yes"/>
      <point x="106" y="379"/>
      <point x="221" y="470"/>
      <point x="342" y="470" type="curve" smooth="yes"/>
      <point x="459" y="470"/>
      <point x="530" y="379"/>
      <point x="504" y="230" type="curve" smooth="yes"/>
      <point x="478" y="81"/>
      <point x="374" y="-10"/>
      <point x="257" y="-10" type="curve" smooth="yes"/>
      <point x="136" y="-10"/>
      <point x="54" y="81"/>
    </contour>
    <contour>
      <point x="133" y="230" type="curve" smooth="yes"/>
      <point x="112" y="110"/>
      <point x="176" y="39"/>
      <point x="273" y="39" type="curve" smooth="yes"/>
      <point x="355" y="39"/>
      <point x="446" y="112"/>
      <point x="467" y="230" type="curve" smooth="yes"/>
      <point x="488" y="348"/>
      <point x="422" y="421"/>
      <point x="340" y="421" type="curve" smooth="yes"/>
      <point x="243" y="421"/>
      <point x="154" y="350"/>
    </contour>
  </outline>
</glyph>
<glyph name="uni0156" format="1">
  <advance width="523"/>
  <unicode hex="0156"/>
  <outline>
    <contour>
      <point x="262" y="334" type="line"/>
      <point x="323" y="334" type="line"/>
      <point x="503" y="0" type="line"/>
      <point x="435" y="0" type="line"/>
    </contour>
    <contour>
      <point x="207" y="700" type="line"/>
      <point x="262" y="700" type="line"/>
      <point x="139" y="0" type="line"/>
      <point x="84" y="0" type="line"/>
    </contour>
    <contour>
      <point x="228" y="651" type="line"/>
      <point x="236" y="700" type="line"/>
      <point x="367" y="700" type="line" smooth="yes"/>
      <point x="502" y="700"/>
      <point x="592" y="626"/>
      <point x="569" y="497" type="curve" smooth="yes"/>
      <point x="546" y="368"/>
      <point x="431" y="294"/>
      <point x="296" y="294" type="curve" smooth="yes"/>
      <point x="165" y="294" type="line"/>
      <point x="173" y="343" type="line"/>
      <point x="304" y="343" type="line" smooth="yes"/>
      <point x="411" y="343"/>
      <point x="496" y="396"/>
      <point x="514" y="497" type="curve" smooth="yes"/>
      <point x="532" y="598"/>
      <point x="465" y="651"/>
      <point x="359" y="651" type="curve" smooth="yes"/>
    </contour>
    <contour>
      <point x="284" y="-60" type="line"/>
      <point x="333" y="-80" type="line"/>
      <point x="179" y="-330" type="line"/>
      <point x="144" y="-317" type="line"/>
    </contour>
  </outline>
</glyph>
<glyph name="uni0157" format="1">
  <advance width="321"/>
  <unicode hex="0157"/>
  <outline>
    <contour>
      <point x="212" y="460" type="line"/>
      <point x="131" y="0" type="line"/>
      <point x="79" y="0" type="line"/>
      <point x="160" y="460" type="line"/>
    </contour>
    <contour>
      <point x="354" y="399" type="line"/>
      <point x="336" y="413"/>
      <point x="322" y="421"/>
      <point x="298" y="421" type="curve" smooth="yes"/>
      <point x="230" y="421"/>
      <point x="194" y="358"/>
      <point x="180" y="280" type="curve"/>
      <point x="156" y="280" type="line"/>
      <point x="175" y="389"/>
      <point x="246" y="470"/>
      <point x="319" y="470" type="curve" smooth="yes"/>
      <point x="348" y="470"/>
      <point x="374" y="462"/>
      <point x="391" y="442" type="curve"/>
    </contour>
    <contour>
      <point x="99" y="-60" type="line"/>
      <point x="149" y="-80" type="line"/>
      <point x="-5" y="-330" type="line"/>
      <point x="-41" y="-317" type="line"/>
    </contour>
  </outline>
</glyph>
<glyph name="scircumflex" format="1">
  <advance width="403"/>
  <unicode hex="015D"/>
  <outline>
    <contour>
      <point x="102" y="155" type="line"/>
      <point x="104" y="93"/>
      <point x="139" y="39"/>
      <point x="212" y="39" type="curve" smooth="yes"/>
      <point x="271" y="39"/>
      <point x="315" y="68"/>
      <point x="324" y="121" type="curve" smooth="yes"/>
      <point x="334" y="177"/>
      <point x="284" y="200"/>
      <point x="229" y="221" type="curve" smooth="yes"/>
      <point x="166" y="244"/>
      <point x="107" y="272"/>
      <point x="121" y="353" type="curve" smooth="yes"/>
      <point x="134" y="427"/>
      <point x="211" y="469"/>
      <point x="284" y="469" type="curve" smooth="yes"/>
      <point x="360" y="469"/>
      <point x="411" y="426"/>
      <point x="420" y="375" type="curve"/>
      <point x="373" y="349" type="line"/>
      <point x="360" y="387"/>
      <point x="326" y="420"/>
      <point x="275" y="420" type="curve" smooth="yes"/>
      <point x="225" y="420"/>
      <point x="181" y="398"/>
      <point x="173" y="350" type="curve" smooth="yes"/>
      <point x="163" y="296"/>
      <point x="219" y="277"/>
      <point x="274" y="256" type="curve" smooth="yes"/>
      <point x="335" y="232"/>
      <point x="391" y="194"/>
      <point x="379" y="125" type="curve" smooth="yes"/>
      <point x="363" y="34"/>
      <point x="291" y="-10"/>
      <point x="200" y="-10" type="curve" smooth="yes"/>
      <point x="107" y="-10"/>
      <point x="55" y="56"/>
      <point x="54" y="131" type="curve"/>
    </contour>
    <contour>
      <point x="314" y="641" type="line"/>
      <point x="166" y="530" type="line"/>
      <point x="139" y="557" type="line"/>
      <point x="324" y="697" type="line"/>
      <point x="459" y="557" type="line"/>
      <point x="421" y="530" type="line"/>
    </contour>
  </outline>
</glyph>
<glyph name="Scedilla" format="1">
  <advance width="524"/>
  <unicode hex="015E"/>
  <outline>
    <contour>
      <point x="125" y="214" type="line"/>
      <point x="145" y="121"/>
      <point x="186" y="43"/>
      <point x="287" y="43" type="curve" smooth="yes"/>
      <point x="387" y="43"/>
      <point x="440" y="99"/>
      <point x="454" y="180" type="curve" smooth="yes"/>
      <point x="471" y="275"/>
      <point x="391" y="317"/>
      <point x="318" y="346" type="curve" smooth="yes"/>
      <point x="249" y="373"/>
      <point x="152" y="426"/>
      <point x="172" y="541" type="curve" smooth="yes"/>
      <point x="190" y="643"/>
      <point x="287" y="709"/>
      <point x="393" y="709" type="curve" smooth="yes"/>
      <point x="506" y="709"/>
      <point x="559" y="627"/>
      <point x="570" y="556" type="curve"/>
      <point x="520" y="528" type="line"/>
      <point x="505" y="590"/>
      <point x="474" y="656"/>
      <point x="385" y="656" type="curve" smooth="yes"/>
      <point x="307" y="656"/>
      <point x="243" y="608"/>
      <point x="230" y="537" type="curve" smooth="yes"/>
      <point x="216" y="456"/>
      <point x="294" y="417"/>
      <point x="373" y="385" type="curve" smooth="yes"/>
      <point x="445" y="357"/>
      <point x="532" y="303"/>
      <point x="511" y="184" type="curve" smooth="yes"/>
      <point x="491" y="73"/>
      <point x="413" y="-9"/>
      <point x="274" y="-9" type="curve" smooth="yes"/>
      <point x="155" y="-9"/>
      <point x="92" y="79"/>
      <point x="73" y="187" type="curve"/>
    </contour>
    <contour>
      <point x="286" y="35" type="line"/>
      <point x="326" y="35" type="line"/>
      <point x="249" y="-64" type="line"/>
      <point x="188" y="-101" type="line"/>
    </contour>
    <contour>
      <point x="344" y="-127" type="curve"/>
      <point x="306" y="-127" type="line"/>
      <point x="312" y="-95"/>
      <point x="291" y="-80"/>
      <point x="259" y="-80" type="curve" smooth="yes"/>
      <point x="241" y="-80"/>
      <point x="214" y="-85"/>
      <point x="188" y="-101" type="curve"/>
      <point x="221" y="-72" type="line"/>
      <point x="250" y="-56"/>
      <point x="264" y="-53"/>
      <point x="285" y="-53" type="curve" smooth="yes"/>
      <point x="318" y="-53"/>
      <point x="353" y="-78"/>
    </contour>
    <contour>
      <point x="344" y="-127" type="line"/>
      <point x="333" y="-188"/>
      <point x="276" y="-221"/>
      <point x="221" y="-221" type="curve" smooth="yes"/>
      <point x="184" y="-221"/>
      <point x="161" y="-211"/>
      <point x="138" y="-183" type="curve"/>
      <point x="165" y="-157" type="line"/>
      <point x="185" y="-176"/>
      <point x="198" y="-185"/>
      <point x="227" y="-185" type="curve" smooth="yes"/>
      <point x="266" y="-185"/>
      <point x="299" y="-164"/>
      <point x="306" y="-127" type="curve"/>
    </contour>
  </outline>
</glyph>
<glyph name="scedilla" format="1">
  <advance width="403"/>
  <unicode hex="015F"/>
  <outline>
    <contour>
      <point x="102" y="155" type="line"/>
      <point x="104" y="93"/>
      <point x="139" y="39"/>
      <point x="212" y="39" type="curve" smooth="yes"/>
      <point x="271" y="39"/>
      <point x="315" y="68"/>
      <point x="324" y="121" type="curve" smooth="yes"/>
      <point x="334" y="177"/>
      <point x="284" y="200"/>
      <point x="229" y="221" type="curve" smooth="yes"/>
      <point x="166" y="244"/>
      <point x="107" y="272"/>
      <point x="121" y="353" type="curve" smooth="yes"/>
      <point x="134" y="427"/>
      <point x="211" y="469"/>
      <point x="284" y="469" type="curve" smooth="yes"/>
      <point x="360" y="469"/>
      <point x="411" y="426"/>
      <point x="420" y="375" type="curve"/>
      <point x="373" y="349" type="line"/>
      <point x="360" y="387"/>
      <point x="326" y="420"/>
      <point x="275" y="420" type="curve" smooth="yes"/>
      <point x="225" y="420"/>
      <point x="181" y="398"/>
      <point x="173" y="350" type="curve" smooth="yes"/>
      <point x="163" y="296"/>
      <point x="219" y="277"/>
      <point x="274" y="256" type="curve" smooth="yes"/>
      <point x="335" y="232"/>
      <point x="391" y="194"/>
      <point x="379" y="125" type="curve" smooth="yes"/>
      <point x="363" y="34"/>
      <point x="291" y="-10"/>
      <point x="200" y="-10" type="curve" smooth="yes"/>
      <point x="107" y="-10"/>
      <point x="55" y="56"/>
      <point x="54" y="131" type="curve"/>
    </contour>
    <contour>
      <point x="211" y="34" type="line"/>
      <point x="253" y="34" type="line"/>
      <point x="174" y="-65" type="line"/>
      <point x="115" y="-102" type="line"/>
    </contour>
    <contour>
      <point x="270" y="-128" type="curve"/>
      <point x="231" y="-128" type="line"/>
      <point x="237" y="-96"/>
      <point x="217" y="-81"/>
      <point x="185" y="-81" type="curve" smooth="yes"/>
      <point x="167" y="-81"/>
      <point x="141" y="-86"/>
      <point x="115" y="-102" type="curve"/>
      <point x="148" y="-73" type="line"/>
      <point x="177" y="-57"/>
      <point x="188" y="-54"/>
      <point x="209" y="-54" type="curve" smooth="yes"/>
      <point x="242" y="-54"/>
      <point x="279" y="-79"/>
    </contour>
    <contour>
      <point x="270" y="-128" type="line"/>
      <point x="259" y="-189"/>
      <point x="201" y="-222"/>
      <point x="146" y="-222" type="curve" smooth="yes"/>
      <point x="109" y="-222"/>
      <point x="88" y="-212"/>
      <point x="65" y="-184" type="curve"/>
      <point x="91" y="-157" type="line"/>
      <point x="111" y="-176"/>
      <point x="123" y="-185"/>
      <point x="152" y="-185" type="curve" smooth="yes"/>
      <point x="191" y="-185"/>
      <point x="224" y="-165"/>
      <point x="231" y="-128" type="curve"/>
    </contour>
  </outline>
</glyph>
<glyph name="Scaron" format="1">
  <advance width="524"/>
  <unicode hex="0160"/>
  <outline>
    <contour>
      <point x="125" y="214" type="line"/>
      <point x="145" y="121"/>
      <point x="186" y="43"/>
      <point x="287" y="43" type="curve" smooth="yes"/>
      <point x="387" y="43"/>
      <point x="440" y="99"/>
      <point x="454" y="180" type="curve" smooth="yes"/>
      <point x="471" y="275"/>
      <point x="391" y="317"/>
      <point x="318" y="346" type="curve" smooth="yes"/>
      <point x="249" y="373"/>
      <point x="152" y="426"/>
      <point x="172" y="541" type="curve" smooth="yes"/>
      <point x="190" y="643"/>
      <point x="287" y="709"/>
      <point x="393" y="709" type="curve" smooth="yes"/>
      <point x="506" y="709"/>
      <point x="559" y="627"/>
      <point x="570" y="556" type="curve"/>
      <point x="520" y="528" type="line"/>
      <point x="505" y="590"/>
      <point x="474" y="656"/>
      <point x="385" y="656" type="curve" smooth="yes"/>
      <point x="307" y="656"/>
      <point x="243" y="608"/>
      <point x="230" y="537" type="curve" smooth="yes"/>
      <point x="216" y="456"/>
      <point x="294" y="417"/>
      <point x="373" y="385" type="curve" smooth="yes"/>
      <point x="445" y="357"/>
      <point x="532" y="303"/>
      <point x="511" y="184" type="curve" smooth="yes"/>
      <point x="491" y="73"/>
      <point x="413" y="-9"/>
      <point x="274" y="-9" type="curve" smooth="yes"/>
      <point x="155" y="-9"/>
      <point x="92" y="79"/>
      <point x="73" y="187" type="curve"/>
    </contour>
    <contour>
      <point x="414" y="829" type="line"/>
      <point x="561" y="940" type="line"/>
      <point x="589" y="913" type="line"/>
      <point x="404" y="773" type="line"/>
      <point x="269" y="913" type="line"/>
      <point x="307" y="940" type="line"/>
    </contour>
  </outline>
</glyph>
<glyph name="Ydieresis" format="1">
  <advance width="539"/>
  <unicode hex="0178"/>
  <outline>
    <contour>
      <point x="297" y="326" type="line"/>
      <point x="352" y="326" type="line"/>
      <point x="295" y="0" type="line"/>
      <point x="240" y="0" type="line"/>
    </contour>
    <contour>
      <point x="591" y="700" type="line"/>
      <point x="653" y="700" type="line"/>
      <point x="309" y="240" type="line"/>
      <point x="132" y="700" type="line"/>
      <point x="194" y="700" type="line"/>
      <point x="327" y="338" type="line"/>
    </contour>
    <contour>
      <point x="470" y="807" type="curve" smooth="yes"/>
      <point x="474" y="828"/>
      <point x="495" y="844"/>
      <point x="515" y="844" type="curve" smooth="yes"/>
      <point x="535" y="844"/>
      <point x="550" y="828"/>
      <point x="546" y="807" type="curve" smooth="yes"/>
      <point x="542" y="786"/>
      <point x="522" y="769"/>
      <point x="502" y="769" type="curve" smooth="yes"/>
      <point x="482" y="769"/>
      <point x="466" y="786"/>
    </contour>
    <contour>
      <point x="278" y="807" type="curve" smooth="yes"/>
      <point x="282" y="828"/>
      <point x="303" y="844"/>
      <point x="323" y="844" type="curve" smooth="yes"/>
      <point x="343" y="844"/>
      <point x="358" y="828"/>
      <point x="354" y="807" type="curve" smooth="yes"/>
      <point x="350" y="786"/>
      <point x="330" y="769"/>
      <point x="310" y="769" type="curve" smooth="yes"/>
      <point x="290" y="769"/>
      <point x="274" y="786"/>
    </contour>
  </outline>
</glyph>
<glyph name="Zacute" format="1">
  <advance width="541"/>
  <unicode hex="0179"/>
  <outline>
    <contour>
      <point x="151" y="648" type="line"/>
      <point x="160" y="700" type="line"/>
      <point x="646" y="700" type="line"/>
      <point x="117" y="52" type="line"/>
      <point x="516" y="52" type="line"/>
      <point x="507" y="0" type="line"/>
      <point x="17" y="0" type="line"/>
      <point x="546" y="648" type="line"/>
    </contour>
    <contour>
      <point x="599.343" y="942" type="line"/>
      <point x="395.343" y="789" type="line"/>
      <point x="369.343" y="809" type="line"/>
      <point x="555.343" y="969" type="line"/>
    </contour>
  </outline>
</glyph>
<glyph name="zacute" format="1">
  <advance width="448"/>
  <unicode hex="017A"/>
  <outline>
    <contour>
      <point x="404" y="411" type="line"/>
      <point x="115" y="411" type="line"/>
      <point x="124" y="460" type="line"/>
      <point x="508" y="460" type="line"/>
      <point x="121" y="49" type="line"/>
      <point x="428" y="49" type="line"/>
      <point x="419" y="0" type="line"/>
      <point x="17" y="0" type="line"/>
    </contour>
    <contour>
      <point x="512.52" y="703" type="line"/>
      <point x="308.52" y="550" type="line"/>
      <point x="282.52" y="570" type="line"/>
      <point x="468.52" y="730" type="line"/>
    </contour>
  </outline>
</glyph>
<glyph name="Zdotaccent" format="1">
  <advance width="541"/>
  <unicode hex="017B"/>
  <outline>
    <contour>
      <point x="151" y="648" type="line"/>
      <point x="160" y="700" type="line"/>
      <point x="646" y="700" type="line"/>
      <point x="117" y="52" type="line"/>
      <point x="516" y="52" type="line"/>
      <point x="507" y="0" type="line"/>
      <point x="17" y="0" type="line"/>
      <point x="546" y="648" type="line"/>
    </contour>
    <contour>
      <point x="364.367" y="826" type="curve" smooth="yes"/>
      <point x="368.367" y="847"/>
      <point x="388.367" y="864"/>
      <point x="408.367" y="864" type="curve" smooth="yes"/>
      <point x="428.367" y="864"/>
      <point x="443.367" y="847"/>
      <point x="439.367" y="826" type="curve" smooth="yes"/>
      <point x="435.367" y="805"/>
      <point x="415.367" y="789"/>
      <point x="395.367" y="789" type="curve" smooth="yes"/>
      <point x="375.367" y="789"/>
      <point x="360.367" y="805"/>
    </contour>
  </outline>
</glyph>
<glyph name="zdotaccent" format="1">
  <advance width="448"/>
  <unicode hex="017C"/>
  <outline>
    <contour>
      <point x="404" y="411" type="line"/>
      <point x="115" y="411" type="line"/>
      <point x="124" y="460" type="line"/>
      <point x="508" y="460" type="line"/>
      <point x="121" y="49" type="line"/>
      <point x="428" y="49" type="line"/>
      <point x="419" y="0" type="line"/>
      <point x="17" y="0" type="line"/>
    </contour>
    <contour>
      <point x="297.543" y="597" type="curve" smooth="yes"/>
      <point x="301.543" y="618"/>
      <point x="321.543" y="635"/>
      <point x="341.543" y="635" type="curve" smooth="yes"/>
      <point x="361.543" y="635"/>
      <point x="376.543" y="618"/>
      <point x="372.543" y="597" type="curve" smooth="yes"/>
      <point x="368.543" y="576"/>
      <point x="348.543" y="560"/>
      <point x="328.543" y="560" type="curve" smooth="yes"/>
      <point x="308.543" y="560"/>
      <point x="293.543" y="576"/>
    </contour>
  </outline>
</glyph>
<glyph name="Zcaron" format="1">
  <advance width="541"/>
  <unicode hex="017D"/>
  <outline>
    <contour>
      <point x="151" y="648" type="line"/>
      <point x="160" y="700" type="line"/>
      <point x="646" y="700" type="line"/>
      <point x="120" y="52" type="line"/>
      <point x="516" y="52" type="line"/>
      <point x="507" y="0" type="line"/>
      <point x="17" y="0" type="line"/>
      <point x="543" y="648" type="line"/>
    </contour>
    <contour>
      <point x="425" y="825" type="line"/>
      <point x="572" y="936" type="line"/>
      <point x="600" y="909" type="line"/>
      <point x="416" y="769" type="line"/>
      <point x="280" y="909" type="line"/>
      <point x="318" y="936" type="line"/>
    </contour>
  </outline>
</glyph>
<glyph name="zcaron" format="1">
  <advance width="448"/>
  <unicode hex="017E"/>
  <outline>
    <contour>
      <point x="80" y="49" type="line"/>
      <point x="428" y="49" type="line"/>
      <point x="419" y="0" type="line"/>
      <point x="17" y="0" type="line"/>
    </contour>
    <contour>
      <point x="124" y="460" type="line"/>
      <point x="508" y="460" type="line"/>
      <point x="451" y="411" type="line"/>
      <point x="115" y="411" type="line"/>
    </contour>
    <contour>
      <point x="449" y="460" type="line"/>
      <point x="508" y="460" type="line"/>
      <point x="76" y="0" type="line"/>
      <point x="17" y="0" type="line"/>
    </contour>
    <contour>
      <point x="348" y="586" type="line"/>
      <point x="495" y="697" type="line"/>
      <point x="523" y="670" type="line"/>
      <point x="338" y="530" type="line"/>
      <point x="203" y="670" type="line"/>
      <point x="241" y="697" type="line"/>
    </contour>
  </outline>
</glyph>
<glyph name="uni0213" format="1">
  <advance width="321"/>
  <unicode hex="0213"/>
  <outline>
    <contour>
      <point x="212" y="460" type="line"/>
      <point x="131" y="0" type="line"/>
      <point x="79" y="0" type="line"/>
      <point x="160" y="460" type="line"/>
    </contour>
    <contour>
      <point x="354" y="399" type="line"/>
      <point x="336" y="413"/>
      <point x="322" y="421"/>
      <point x="298" y="421" type="curve" smooth="yes"/>
      <point x="230" y="421"/>
      <point x="194" y="358"/>
      <point x="180" y="280" type="curve"/>
      <point x="156" y="280" type="line"/>
      <point x="175" y="389"/>
      <point x="246" y="470"/>
      <point x="319" y="470" type="curve" smooth="yes"/>
      <point x="348" y="470"/>
      <point x="374" y="462"/>
      <point x="391" y="442" type="curve"/>
    </contour>
    <contour>
      <point x="133" y="538" type="curve"/>
      <point x="180" y="538" type="line"/>
      <point x="187" y="580"/>
      <point x="229" y="635"/>
      <point x="308" y="635" type="curve" smooth="yes"/>
      <point x="387" y="635"/>
      <point x="410" y="580"/>
      <point x="403" y="538" type="curve"/>
      <point x="449" y="538" type="line"/>
      <point x="461" y="607"/>
      <point x="421" y="678"/>
      <point x="316" y="678" type="curve" smooth="yes"/>
      <point x="211" y="678"/>
      <point x="145" y="607"/>
    </contour>
  </outline>
</glyph>
<glyph name="caron" format="1">
  <advance width="480"/>
  <unicode hex="02C7"/>
  <outline>
    <contour>
      <point x="350" y="626" type="line"/>
      <point x="497" y="737" type="line"/>
      <point x="525" y="710" type="line"/>
      <point x="341" y="570" type="line"/>
      <point x="205" y="710" type="line"/>
      <point x="243" y="737" type="line"/>
    </contour>
  </outline>
</glyph>
<glyph name="ogonek" format="1">
  <advance width="256"/>
  <unicode hex="02DB"/>
  <outline>
    <contour>
      <point x="174" y="-147" type="curve"/>
      <point x="191" y="-180" type="line"/>
      <point x="172" y="-200"/>
      <point x="135" y="-220"/>
      <point x="92" y="-220" type="curve" smooth="yes"/>
      <point x="16" y="-220"/>
      <point x="-17" y="-183"/>
      <point x="-7" y="-128" type="curve"/>
      <point x="48" y="-116" type="line"/>
      <point x="41" y="-156"/>
      <point x="65" y="-174"/>
      <point x="103" y="-174" type="curve" smooth="yes"/>
      <point x="135" y="-174"/>
      <point x="157" y="-162"/>
    </contour>
    <contour>
      <point x="48" y="-116" type="curve"/>
      <point x="-7" y="-128" type="line"/>
      <point x="4" y="-65"/>
      <point x="83" y="-17"/>
      <point x="159" y="19" type="curve"/>
      <point x="184" y="0" type="line"/>
      <point x="121" y="-26"/>
      <point x="56" y="-71"/>
    </contour>
  </outline>
</glyph>
<glyph name="tilde" format="1">
  <advance width="530"/>
  <unicode hex="02DC"/>
  <outline>
    <contour>
      <point x="229" y="635" type="line"/>
      <point x="242" y="676"/>
      <point x="284" y="707"/>
      <point x="329" y="707" type="curve" smooth="yes"/>
      <point x="390" y="707"/>
      <point x="390" y="660"/>
      <point x="444" y="660" type="curve" smooth="yes"/>
      <point x="467" y="660"/>
      <point x="485" y="676"/>
      <point x="509" y="708" type="curve"/>
      <point x="535" y="681" type="line"/>
      <point x="512" y="644"/>
      <point x="476" y="616"/>
      <point x="434" y="616" type="curve" smooth="yes"/>
      <point x="379" y="616"/>
      <point x="366" y="663"/>
      <point x="321" y="663" type="curve" smooth="yes"/>
      <point x="280" y="663"/>
      <point x="263" y="631"/>
      <point x="260" y="612" type="curve"/>
    </contour>
  </outline>
</glyph>
<glyph name="pi" format="1">
  <advance width="512"/>
  <unicode hex="03C0"/>
  <outline>
    <contour>
      <point x="167" y="438" type="line"/>
      <point x="219" y="438" type="line"/>
      <point x="142" y="0" type="line"/>
      <point x="90" y="0" type="line"/>
    </contour>
    <contour>
      <point x="111" y="460" type="line"/>
      <point x="553" y="460" type="line"/>
      <point x="544" y="411" type="line"/>
      <point x="102" y="411" type="line"/>
    </contour>
    <contour>
      <point x="417" y="438" type="line"/>
      <point x="469" y="438" type="line"/>
      <point x="415" y="133" type="line" smooth="yes"/>
      <point x="401" y="55"/>
      <point x="415" y="43"/>
      <point x="453" y="43" type="curve"/>
      <point x="443" y="-9" type="line"/>
      <point x="371" y="-9"/>
      <point x="342" y="12"/>
      <point x="361" y="121" type="curve" smooth="yes"/>
    </contour>
  </outline>
</glyph>
<glyph name="uni1E9E" format="1">
  <advance width="696"/>
  <unicode hex="1E9E"/>
  <outline>
    <contour>
      <point x="150" y="398" type="line"/>
      <point x="205" y="398" type="line"/>
      <point x="135" y="0" type="line"/>
      <point x="80" y="0" type="line"/>
    </contour>
    <contour>
      <point x="455" y="352" type="curve"/>
      <point x="461" y="388" type="line"/>
      <point x="566" y="388"/>
      <point x="640" y="446"/>
      <point x="654" y="526" type="curve" smooth="yes"/>
      <point x="668" y="608"/>
      <point x="598" y="660"/>
      <point x="496" y="660" type="curve" smooth="yes"/>
      <point x="354" y="660"/>
      <point x="236" y="575"/>
      <point x="205" y="398" type="curve"/>
      <point x="150" y="398" type="line"/>
      <point x="187" y="607"/>
      <point x="329" y="710"/>
      <point x="504" y="710" type="curve" smooth="yes"/>
      <point x="632" y="710"/>
      <point x="731" y="648"/>
      <point x="711" y="534" type="curve" smooth="yes"/>
      <point x="692" y="425"/>
      <point x="590" y="352"/>
    </contour>
    <contour>
      <point x="425" y="-10" type="curve" smooth="yes"/>
      <point x="298" y="-10"/>
      <point x="226" y="76"/>
      <point x="245" y="185" type="curve"/>
      <point x="301" y="185" type="line"/>
      <point x="287" y="104"/>
      <point x="342" y="42"/>
      <point x="434" y="42" type="curve" smooth="yes"/>
      <point x="526" y="42"/>
      <point x="600" y="104"/>
      <point x="615" y="191" type="curve" smooth="yes"/>
      <point x="632" y="289"/>
      <point x="558" y="338"/>
      <point x="453" y="338" type="curve"/>
      <point x="459" y="374" type="line"/>
      <point x="594" y="374"/>
      <point x="693" y="316"/>
      <point x="670" y="185" type="curve" smooth="yes"/>
      <point x="650" y="70"/>
      <point x="546" y="-10"/>
    </contour>
  </outline>
</glyph>
<glyph name="figuredash" format="1">
  <advance width="590"/>
  <unicode hex="2012"/>
  <outline>
    <contour>
      <point x="110" y="226" type="line"/>
      <point x="118" y="275" type="line"/>
      <point x="568" y="275" type="line"/>
      <point x="560" y="226" type="line"/>
    </contour>
  </outline>
</glyph>
<glyph name="quoteleft" format="1">
  <advance width="255"/>
  <unicode hex="2018"/>
  <outline>
    <contour>
      <point x="211" y="470" type="line"/>
      <point x="149" y="470" type="line"/>
      <point x="287" y="700" type="line"/>
      <point x="324" y="700" type="line"/>
    </contour>
  </outline>
</glyph>
<glyph name="quotedblright" format="1">
  <advance width="439"/>
  <unicode hex="201D"/>
  <outline>
    <contour>
      <point x="250" y="700" type="line"/>
      <point x="312" y="700" type="line"/>
      <point x="174" y="470" type="line"/>
      <point x="137" y="470" type="line"/>
    </contour>
    <contour>
      <point x="426" y="700" type="line"/>
      <point x="488" y="700" type="line"/>
      <point x="350" y="470" type="line"/>
      <point x="313" y="470" type="line"/>
    </contour>
  </outline>
</glyph>
<glyph name="guilsinglleft" format="1">
  <advance width="340"/>
  <unicode hex="2039"/>
  <outline>
    <contour>
      <point x="129" y="243" type="line"/>
      <point x="85" y="255" type="line"/>
      <point x="323" y="490" type="line"/>
      <point x="351" y="460" type="line"/>
    </contour>
    <contour>
      <point x="85" y="255" type="line"/>
      <point x="134" y="273" type="line"/>
      <point x="279" y="50" type="line"/>
      <point x="241" y="20" type="line"/>
    </contour>
  </outline>
</glyph>
<glyph name="guilsinglright" format="1">
  <advance width="350"/>
  <unicode hex="203A"/>
  <outline>
    <contour>
      <point x="311" y="267" type="line"/>
      <point x="355" y="255" type="line"/>
      <point x="117" y="20" type="line"/>
      <point x="89" y="50" type="line"/>
    </contour>
    <contour>
      <point x="355" y="255" type="line"/>
      <point x="306" y="237" type="line"/>
      <point x="161" y="460" type="line"/>
      <point x="199" y="490" type="line"/>
    </contour>
  </outline>
</glyph>
<glyph name="uni203D" format="1">
  <advance width="557"/>
  <unicode hex="203D"/>
  <outline>
    <contour>
      <point x="520" y="508" type="curve" smooth="yes"/>
      <point x="536" y="600"/>
      <point x="486" y="661"/>
      <point x="384" y="661" type="curve" smooth="yes"/>
      <point x="307" y="661"/>
      <point x="251" y="624"/>
      <point x="205" y="566" type="curve"/>
      <point x="167" y="593" type="line"/>
      <point x="225" y="663"/>
      <point x="287" y="710"/>
      <point x="398" y="710" type="curve" smooth="yes"/>
      <point x="523" y="710"/>
      <point x="593" y="623"/>
      <point x="573" y="508" type="curve" smooth="yes"/>
      <point x="553" y="397"/>
      <point x="435" y="309"/>
      <point x="322" y="309" type="curve"/>
      <point x="296" y="345" type="line"/>
      <point x="412" y="345"/>
      <point x="505" y="424"/>
    </contour>
    <contour>
      <point x="310" y="510" type="line"/>
      <point x="374" y="510" type="line"/>
      <point x="301" y="170" type="line"/>
      <point x="263" y="170" type="line"/>
    </contour>
    <contour>
      <point x="219" y="24" type="curve" smooth="yes"/>
      <point x="223" y="45"/>
      <point x="243" y="62"/>
      <point x="263" y="62" type="curve" smooth="yes"/>
      <point x="283" y="62"/>
      <point x="297" y="45"/>
      <point x="293" y="24" type="curve" smooth="yes"/>
      <point x="289" y="3"/>
      <point x="270" y="-13"/>
      <point x="250" y="-13" type="curve" smooth="yes"/>
      <point x="230" y="-13"/>
      <point x="215" y="3"/>
    </contour>
  </outline>
</glyph>
<glyph name="uni2074" format="1">
  <advance width="380"/>
  <unicode hex="2074"/>
  <outline>
    <contour>
      <point x="96" y="364" type="line"/>
      <point x="129" y="393" type="line"/>
      <point x="326" y="393" type="line" smooth="yes"/>
      <point x="333" y="393" type="line" smooth="yes"/>
      <point x="411" y="393" type="line"/>
      <point x="406" y="364" type="line"/>
    </contour>
    <contour>
      <point x="131" y="364" type="line"/>
      <point x="96" y="364" type="line"/>
      <point x="387" y="700" type="line"/>
      <point x="400" y="700" type="line"/>
      <point x="326" y="280" type="line"/>
      <point x="292" y="280" type="line"/>
      <point x="310" y="378" type="line" smooth="yes"/>
      <point x="310" y="382" type="line" smooth="yes"/>
      <point x="353" y="624" type="line"/>
    </contour>
  </outline>
</glyph>
<glyph name="uni2077" format="1">
  <advance width="353"/>
  <unicode hex="2077"/>
  <outline>
    <contour>
      <point x="150" y="669" type="line"/>
      <point x="155" y="700" type="line"/>
      <point x="444" y="700" type="line"/>
      <point x="161" y="280" type="line"/>
      <point x="126" y="280" type="line"/>
      <point x="390" y="669" type="line"/>
    </contour>
  </outline>
</glyph>
<glyph name="uni2079" format="1">
  <advance width="340"/>
  <unicode hex="2079"/>
  <outline>
    <contour>
      <point x="382" y="566" type="curve" smooth="yes"/>
      <point x="393" y="631"/>
      <point x="357" y="678"/>
      <point x="295" y="678" type="curve" smooth="yes"/>
      <point x="233" y="678"/>
      <point x="180" y="631"/>
      <point x="169" y="566" type="curve" smooth="yes"/>
      <point x="158" y="503"/>
      <point x="196" y="457"/>
      <point x="254" y="457" type="curve" smooth="yes"/>
      <point x="320" y="457"/>
      <point x="371" y="506"/>
    </contour>
    <contour>
      <point x="196" y="282" type="line"/>
      <point x="154" y="282" type="line"/>
      <point x="324" y="469" type="line"/>
      <point x="325" y="467" type="line"/>
      <point x="301" y="443"/>
      <point x="272" y="433"/>
      <point x="238" y="433" type="curve" smooth="yes"/>
      <point x="170" y="433"/>
      <point x="124" y="491"/>
      <point x="137" y="566" type="curve" smooth="yes"/>
      <point x="152" y="650"/>
      <point x="219" y="708"/>
      <point x="300" y="708" type="curve" smooth="yes"/>
      <point x="381" y="708"/>
      <point x="429" y="650"/>
      <point x="414" y="566" type="curve" smooth="yes"/>
      <point x="408" y="532"/>
      <point x="388" y="498"/>
      <point x="368" y="476" type="curve" smooth="yes"/>
    </contour>
  </outline>
</glyph>
<glyph name="uni2083" format="1">
  <advance width="314"/>
  <unicode hex="2083"/>
  <outline>
    <contour>
      <point x="178" y="211" type="curve"/>
      <point x="182" y="233" type="line"/>
      <point x="236" y="233"/>
      <point x="289" y="267"/>
      <point x="298" y="316" type="curve" smooth="yes"/>
      <point x="306" y="360"/>
      <point x="284" y="396"/>
      <point x="232" y="396" type="curve" smooth="yes"/>
      <point x="183" y="396"/>
      <point x="141" y="363"/>
      <point x="133" y="316" type="curve"/>
      <point x="101" y="316" type="line"/>
      <point x="112" y="381"/>
      <point x="168" y="426"/>
      <point x="237" y="426" type="curve" smooth="yes"/>
      <point x="309" y="426"/>
      <point x="341" y="373"/>
      <point x="331" y="316" type="curve" smooth="yes"/>
      <point x="320" y="255"/>
      <point x="252" y="211"/>
    </contour>
    <contour>
      <point x="158" y="-6" type="curve" smooth="yes"/>
      <point x="77" y="-6"/>
      <point x="36" y="46"/>
      <point x="47" y="111" type="curve"/>
      <point x="81" y="111" type="line"/>
      <point x="72" y="61"/>
      <point x="103" y="25"/>
      <point x="163" y="25" type="curve" smooth="yes"/>
      <point x="221" y="25"/>
      <point x="265" y="60"/>
      <point x="274" y="112" type="curve" smooth="yes"/>
      <point x="285" y="173"/>
      <point x="231" y="203"/>
      <point x="177" y="203" type="curve"/>
      <point x="181" y="225" type="line"/>
      <point x="255" y="225"/>
      <point x="320" y="190"/>
      <point x="306" y="109" type="curve" smooth="yes"/>
      <point x="294" y="40"/>
      <point x="233" y="-6"/>
    </contour>
  </outline>
</glyph>
<glyph name="uni2084" format="1">
  <advance width="380"/>
  <unicode hex="2084"/>
  <outline>
    <contour>
      <point x="47" y="84" type="line"/>
      <point x="80" y="113" type="line"/>
      <point x="277" y="113" type="line" smooth="yes"/>
      <point x="284" y="113" type="line" smooth="yes"/>
      <point x="362" y="113" type="line"/>
      <point x="357" y="84" type="line"/>
    </contour>
    <contour>
      <point x="82" y="84" type="line"/>
      <point x="47" y="84" type="line"/>
      <point x="338" y="420" type="line"/>
      <point x="351" y="420" type="line"/>
      <point x="277" y="0" type="line"/>
      <point x="243" y="0" type="line"/>
      <point x="260" y="98" type="line" smooth="yes"/>
      <point x="261" y="102" type="line" smooth="yes"/>
      <point x="304" y="344" type="line"/>
    </contour>
  </outline>
</glyph>
<glyph name="uni2085" format="1">
  <advance width="350"/>
  <unicode hex="2085"/>
  <outline>
    <contour>
      <point x="338" y="136" type="curve" smooth="yes"/>
      <point x="321" y="41"/>
      <point x="249" y="-8"/>
      <point x="170" y="-8" type="curve" smooth="yes"/>
      <point x="98" y="-8"/>
      <point x="63" y="30"/>
      <point x="46" y="80" type="curve"/>
      <point x="77" y="99" type="line"/>
      <point x="89" y="56"/>
      <point x="122" y="23"/>
      <point x="175" y="23" type="curve" smooth="yes"/>
      <point x="240" y="23"/>
      <point x="290" y="65"/>
      <point x="303" y="136" type="curve" smooth="yes"/>
      <point x="314" y="200"/>
      <point x="279" y="243"/>
      <point x="221" y="243" type="curve" smooth="yes"/>
      <point x="176" y="243"/>
      <point x="142" y="229"/>
      <point x="98" y="194" type="curve"/>
      <point x="126" y="226" type="line"/>
      <point x="155" y="255"/>
      <point x="197" y="273"/>
      <point x="239" y="273" type="curve" smooth="yes"/>
      <point x="309" y="273"/>
      <point x="352" y="217"/>
    </contour>
    <contour>
      <point x="213" y="389" type="line"/>
      <point x="147" y="234" type="line"/>
      <point x="98" y="194" type="line"/>
      <point x="193" y="418" type="line"/>
      <point x="391" y="418" type="line"/>
      <point x="386" y="389" type="line"/>
    </contour>
  </outline>
</glyph>
<glyph name="uni2087" format="1">
  <advance width="353"/>
  <unicode hex="2087"/>
  <outline>
    <contour>
      <point x="101" y="389" type="line"/>
      <point x="106" y="420" type="line"/>
      <point x="395" y="420" type="line"/>
      <point x="112" y="0" type="line"/>
      <point x="77" y="0" type="line"/>
      <point x="341" y="389" type="line"/>
    </contour>
  </outline>
</glyph>
<glyph name="uni2089" format="1">
  <advance width="340"/>
  <unicode hex="2089"/>
  <outline>
    <contour>
      <point x="322" y="286" type="curve" smooth="yes"/>
      <point x="333" y="351"/>
      <point x="297" y="398"/>
      <point x="235" y="398" type="curve" smooth="yes"/>
      <point x="173" y="398"/>
      <point x="120" y="351"/>
      <point x="109" y="286" type="curve" smooth="yes"/>
      <point x="98" y="223"/>
      <point x="136" y="177"/>
      <point x="194" y="177" type="curve" smooth="yes"/>
      <point x="260" y="177"/>
      <point x="311" y="226"/>
    </contour>
    <contour>
      <point x="135" y="2" type="line"/>
      <point x="94" y="2" type="line"/>
      <point x="264" y="189" type="line"/>
      <point x="266" y="187" type="line"/>
      <point x="242" y="163"/>
      <point x="212" y="153"/>
      <point x="178" y="153" type="curve" smooth="yes"/>
      <point x="110" y="153"/>
      <point x="64" y="211"/>
      <point x="77" y="286" type="curve" smooth="yes"/>
      <point x="92" y="370"/>
      <point x="159" y="428"/>
      <point x="240" y="428" type="curve" smooth="yes"/>
      <point x="321" y="428"/>
      <point x="368" y="370"/>
      <point x="353" y="286" type="curve" smooth="yes"/>
      <point x="347" y="252"/>
      <point x="329" y="218"/>
      <point x="309" y="196" type="curve" smooth="yes"/>
    </contour>
  </outline>
</glyph>
<glyph name="Euro" format="1">
  <advance width="628"/>
  <unicode hex="20AC"/>
  <outline>
    <contour>
      <point x="113" y="422" type="line"/>
      <point x="119" y="455" type="line"/>
      <point x="620" y="455" type="line"/>
      <point x="614" y="422" type="line"/>
    </contour>
    <contour>
      <point x="92" y="302" type="line"/>
      <point x="98" y="335" type="line"/>
      <point x="573" y="335" type="line"/>
      <point x="567" y="302" type="line"/>
    </contour>
    <contour>
      <point x="219" y="350" type="curve" smooth="yes"/>
      <point x="187" y="170"/>
      <point x="260" y="42"/>
      <point x="401" y="42" type="curve" smooth="yes"/>
      <point x="458" y="42"/>
      <point x="514" y="61"/>
      <point x="561" y="97" type="curve"/>
      <point x="549" y="31" type="line"/>
      <point x="499" y="5"/>
      <point x="446" y="-10"/>
      <point x="392" y="-10" type="curve" smooth="yes"/>
      <point x="218" y="-10"/>
      <point x="127" y="141"/>
      <point x="164" y="350" type="curve" smooth="yes"/>
      <point x="201" y="559"/>
      <point x="345" y="710"/>
      <point x="519" y="710" type="curve" smooth="yes"/>
      <point x="573" y="710"/>
      <point x="622" y="695"/>
      <point x="662" y="669" type="curve"/>
      <point x="650" y="603" type="line"/>
      <point x="615" y="639"/>
      <point x="567" y="658"/>
      <point x="510" y="658" type="curve" smooth="yes"/>
      <point x="365" y="658"/>
      <point x="251" y="530"/>
    </contour>
  </outline>
</glyph>
<glyph name="trademark" format="1">
  <advance width="665"/>
  <unicode hex="2122"/>
  <outline>
    <contour>
      <point x="153" y="674" type="line"/>
      <point x="157" y="700" type="line"/>
      <point x="370" y="700" type="line"/>
      <point x="366" y="674" type="line"/>
      <point x="273" y="674" type="line"/>
      <point x="216" y="350" type="line"/>
      <point x="188" y="350" type="line"/>
      <point x="245" y="674" type="line"/>
    </contour>
    <contour>
      <point x="686" y="636" type="line"/>
      <point x="718" y="713" type="line"/>
      <point x="694" y="350" type="line"/>
      <point x="667" y="350" type="line"/>
    </contour>
    <contour>
      <point x="438" y="713" type="line"/>
      <point x="442" y="636" type="line"/>
      <point x="362" y="350" type="line"/>
      <point x="334" y="350" type="line"/>
    </contour>
    <contour>
      <point x="718" y="713" type="line"/>
      <point x="706" y="654" type="line"/>
      <point x="521" y="390" type="line"/>
      <point x="429" y="654" type="line"/>
      <point x="438" y="713" type="line"/>
      <point x="530" y="444" type="line"/>
    </contour>
  </outline>
</glyph>
<glyph name="uni2152" format="1">
  <advance width="1080"/>
  <unicode hex="2152"/>
  <outline>
    <contour>
      <point x="712" y="700" type="line"/>
      <point x="756" y="700" type="line"/>
      <point x="92" y="0" type="line"/>
      <point x="48" y="0" type="line"/>
    </contour>
    <contour>
      <point x="138" y="633" type="line"/>
      <point x="144" y="668" type="line"/>
      <point x="279" y="699" type="line"/>
      <point x="204" y="274" type="line"/>
      <point x="171" y="274" type="line"/>
      <point x="239" y="659" type="line"/>
    </contour>
    <contour>
      <point x="529" y="360" type="line"/>
      <point x="536" y="395" type="line"/>
      <point x="671" y="426" type="line"/>
      <point x="596" y="1" type="line"/>
      <point x="563" y="1" type="line"/>
      <point x="631" y="386" type="line"/>
    </contour>
    <contour>
      <point x="810" y="210" type="curve" smooth="yes"/>
      <point x="792" y="106"/>
      <point x="819" y="25"/>
      <point x="890" y="25" type="curve" smooth="yes"/>
      <point x="961" y="25"/>
      <point x="1018" y="106"/>
      <point x="1036" y="210" type="curve" smooth="yes"/>
      <point x="1054" y="314"/>
      <point x="1027" y="395"/>
      <point x="956" y="395" type="curve" smooth="yes"/>
      <point x="885" y="395"/>
      <point x="828" y="314"/>
    </contour>
    <contour>
      <point x="777" y="210" type="curve" smooth="yes"/>
      <point x="799" y="333"/>
      <point x="873" y="426"/>
      <point x="961" y="426" type="curve" smooth="yes"/>
      <point x="1049" y="426"/>
      <point x="1092" y="333"/>
      <point x="1070" y="210" type="curve" smooth="yes"/>
      <point x="1048" y="87"/>
      <point x="973" y="-6"/>
      <point x="885" y="-6" type="curve" smooth="yes"/>
      <point x="797" y="-6"/>
      <point x="755" y="87"/>
    </contour>
  </outline>
</glyph>
<glyph name="onethird" format="1">
  <advance width="755"/>
  <unicode hex="2153"/>
  <outline>
    <contour>
      <point x="712" y="700" type="line"/>
      <point x="756" y="700" type="line"/>
      <point x="92" y="0" type="line"/>
      <point x="48" y="0" type="line"/>
    </contour>
    <contour>
      <point x="138" y="633" type="line"/>
      <point x="144" y="668" type="line"/>
      <point x="279" y="699" type="line"/>
      <point x="204" y="274" type="line"/>
      <point x="171" y="274" type="line"/>
      <point x="239" y="659" type="line"/>
    </contour>
    <contour>
      <point x="616" y="211" type="curve"/>
      <point x="620" y="233" type="line"/>
      <point x="674" y="233"/>
      <point x="727" y="267"/>
      <point x="736" y="316" type="curve" smooth="yes"/>
      <point x="744" y="360"/>
      <point x="722" y="396"/>
      <point x="670" y="396" type="curve" smooth="yes"/>
      <point x="621" y="396"/>
      <point x="579" y="363"/>
      <point x="571" y="316" type="curve"/>
      <point x="539" y="316" type="line"/>
      <point x="550" y="381"/>
      <point x="606" y="426"/>
      <point x="675" y="426" type="curve" smooth="yes"/>
      <point x="747" y="426"/>
      <point x="779" y="373"/>
      <point x="769" y="316" type="curve" smooth="yes"/>
      <point x="758" y="255"/>
      <point x="690" y="211"/>
    </contour>
    <contour>
      <point x="596" y="-6" type="curve" smooth="yes"/>
      <point x="515" y="-6"/>
      <point x="474" y="46"/>
      <point x="485" y="111" type="curve"/>
      <point x="519" y="111" type="line"/>
      <point x="510" y="61"/>
      <point x="541" y="25"/>
      <point x="601" y="25" type="curve" smooth="yes"/>
      <point x="659" y="25"/>
      <point x="703" y="60"/>
      <point x="712" y="112" type="curve" smooth="yes"/>
      <point x="723" y="173"/>
      <point x="669" y="203"/>
      <point x="615" y="203" type="curve"/>
      <point x="619" y="225" type="line"/>
      <point x="693" y="225"/>
      <point x="758" y="190"/>
      <point x="744" y="109" type="curve" smooth="yes"/>
      <point x="732" y="40"/>
      <point x="671" y="-6"/>
    </contour>
  </outline>
</glyph>
<glyph name="uni2157" format="1">
  <advance width="831"/>
  <unicode hex="2157"/>
  <outline>
    <contour>
      <point x="799" y="700" type="line"/>
      <point x="843" y="700" type="line"/>
      <point x="179" y="0" type="line"/>
      <point x="135" y="0" type="line"/>
    </contour>
    <contour>
      <point x="233" y="491" type="curve"/>
      <point x="236" y="513" type="line"/>
      <point x="290" y="513"/>
      <point x="343" y="547"/>
      <point x="352" y="596" type="curve" smooth="yes"/>
      <point x="360" y="640"/>
      <point x="338" y="676"/>
      <point x="286" y="676" type="curve" smooth="yes"/>
      <point x="237" y="676"/>
      <point x="195" y="643"/>
      <point x="187" y="596" type="curve"/>
      <point x="155" y="596" type="line"/>
      <point x="166" y="661"/>
      <point x="222" y="706"/>
      <point x="291" y="706" type="curve" smooth="yes"/>
      <point x="363" y="706"/>
      <point x="395" y="653"/>
      <point x="385" y="596" type="curve" smooth="yes"/>
      <point x="374" y="535"/>
      <point x="307" y="491"/>
    </contour>
    <contour>
      <point x="212" y="274" type="curve" smooth="yes"/>
      <point x="131" y="274"/>
      <point x="90" y="326"/>
      <point x="101" y="391" type="curve"/>
      <point x="135" y="391" type="line"/>
      <point x="126" y="341"/>
      <point x="158" y="305"/>
      <point x="218" y="305" type="curve" smooth="yes"/>
      <point x="276" y="305"/>
      <point x="319" y="340"/>
      <point x="328" y="392" type="curve" smooth="yes"/>
      <point x="339" y="453"/>
      <point x="285" y="483"/>
      <point x="231" y="483" type="curve"/>
      <point x="235" y="505" type="line"/>
      <point x="309" y="505"/>
      <point x="375" y="470"/>
      <point x="361" y="389" type="curve" smooth="yes"/>
      <point x="349" y="320"/>
      <point x="287" y="274"/>
    </contour>
    <contour>
      <point x="813" y="136" type="curve" smooth="yes"/>
      <point x="796" y="41"/>
      <point x="724" y="-8"/>
      <point x="645" y="-8" type="curve" smooth="yes"/>
      <point x="573" y="-8"/>
      <point x="538" y="30"/>
      <point x="521" y="80" type="curve"/>
      <point x="552" y="99" type="line"/>
      <point x="564" y="56"/>
      <point x="597" y="23"/>
      <point x="650" y="23" type="curve" smooth="yes"/>
      <point x="715" y="23"/>
      <point x="765" y="65"/>
      <point x="778" y="136" type="curve" smooth="yes"/>
      <point x="789" y="200"/>
      <point x="754" y="243"/>
      <point x="696" y="243" type="curve" smooth="yes"/>
      <point x="651" y="243"/>
      <point x="617" y="229"/>
      <point x="573" y="194" type="curve"/>
      <point x="601" y="226" type="line"/>
      <point x="630" y="255"/>
      <point x="672" y="273"/>
      <point x="714" y="273" type="curve" smooth="yes"/>
      <point x="784" y="273"/>
      <point x="827" y="217"/>
    </contour>
    <contour>
      <point x="688" y="389" type="line"/>
      <point x="622" y="234" type="line"/>
      <point x="573" y="194" type="line"/>
      <point x="668" y="418" type="line"/>
      <point x="866" y="418" type="line"/>
      <point x="861" y="389" type="line"/>
    </contour>
  </outline>
</glyph>
